STARTFONT 2.1
FONT -Adobe-Courier-Medium-R-Normal--34-240-100-100-M-200-ISO10646-1
SIZE 24 100 100
FONTBOUNDINGBOX 28 42 -6 -10
COMMENT ISO10646-1 extension by Markus Kuhn <mkuhn@acm.org>, 2001-03-20
COMMENT 
COMMENT +
COMMENT  Copyright 1984-1989, 1994 Adobe Systems Incorporated.
COMMENT  Copyright 1988, 1994 Digital Equipment Corporation.
COMMENT
COMMENT  Adobe is a trademark of Adobe Systems Incorporated which may be
COMMENT  registered in certain jurisdictions.
COMMENT  Permission to use these trademarks is hereby granted only in
COMMENT  association with the images described in this file.
COMMENT
COMMENT  Permission to use, copy, modify, distribute and sell this software
COMMENT  and its documentation for any purpose and without fee is hereby
COMMENT  granted, provided that the above copyright notices appear in all
COMMENT  copies and that both those copyright notices and this permission
COMMENT  notice appear in supporting documentation, and that the names of
COMMENT  Adobe Systems and Digital Equipment Corporation not be used in
COMMENT  advertising or publicity pertaining to distribution of the software
COMMENT  without specific, written prior permission.  Adobe Systems and
COMMENT  Digital Equipment Corporation make no representations about the
COMMENT  suitability of this software for any purpose.  It is provided "as
COMMENT  is" without express or implied warranty.
COMMENT -
STARTPROPERTIES 26
FOUNDRY "Adobe"
FAMILY_NAME "Courier"
WEIGHT_NAME "Medium"
SLANT "R"
SETWIDTH_NAME "Normal"
ADD_STYLE_NAME ""
PIXEL_SIZE 34
POINT_SIZE 240
RESOLUTION_X 100
RESOLUTION_Y 100
SPACING "M"
AVERAGE_WIDTH 200
CHARSET_REGISTRY "ISO10646"
CHARSET_ENCODING "1"
CAP_HEIGHT 19
X_HEIGHT 14
FONT_ASCENT 23
FONT_DESCENT 6
FACE_NAME "Courier"
COPYRIGHT "Copyright (c) 1984, 1987 Adobe Systems Incorporated. All Rights Reserved. Copyright (c) 1988, 1991 Digital Equipment Corporation. All Rights Reserved."
NOTICE "No mark"
_DEC_DEVICE_FONTNAMES "PS=Courier"
DEFAULT_CHAR 0

STARTCHAR char0
ENCODING 0
SWIDTH 600 0
DWIDTH 20 0
BBX 15 19 2 0
BITMAP
AAAA
0000
8002
0000
8002
0000
8002
0000
8002
0000
8002
0000
8002
0000
8002
0000
8002
0000
AAAA
ENDCHAR
STARTCHAR space
ENCODING 32
SWIDTH 600 0
DWIDTH 20 0
BBX 1 1 0 0
BITMAP
00
ENDCHAR
STARTCHAR exclam
ENCODING 33
SWIDTH 600 0
DWIDTH 20 0
BBX 5 21 8 0
BITMAP
20
70
70
70
70
70
20
20
20
20
20
20
20
20
00
00
00
00
70
F8
70
ENDCHAR
STARTCHAR quotedbl
ENCODING 34
SWIDTH 600 0
DWIDTH 20 0
BBX 11 10 4 10
BITMAP
F1E0
F1E0
F1E0
F1E0
F1E0
60C0
60C0
4080
4080
4080
ENDCHAR
STARTCHAR numbersign
ENCODING 35
SWIDTH 600 0
DWIDTH 20 0
BBX 13 23 3 -2
BITMAP
0440
0440
0440
0440
0CC0
0880
0880
0880
7FF8
0880
0880
0880
0880
0880
FFF0
0880
0880
0880
0980
1100
1100
1100
1100
ENDCHAR
STARTCHAR dollar
ENCODING 36
SWIDTH 600 0
DWIDTH 20 0
BBX 12 25 4 -3
BITMAP
0400
0400
0400
1F20
71E0
4060
8020
8000
C000
6000
3C00
0780
00E0
0030
0010
0010
8030
C060
F1C0
9F00
0400
0400
0400
0400
0400
ENDCHAR
STARTCHAR percent
ENCODING 37
SWIDTH 600 0
DWIDTH 20 0
BBX 15 20 3 0
BITMAP
1E00
3300
6180
4080
4080
6180
3300
1E0E
0070
0380
1C00
E000
01E0
0330
0618
0408
0408
0618
0330
01E0
ENDCHAR
STARTCHAR ampersand
ENCODING 38
SWIDTH 600 0
DWIDTH 20 0
BBX 12 17 3 0
BITMAP
0FC0
1980
3000
2000
2000
3000
1000
1800
3C00
6430
4660
C240
8340
C1C0
4180
63C0
3E70
ENDCHAR
STARTCHAR quotesingle
ENCODING 39
SWIDTH 600 0
DWIDTH 20 0
BBX 4 11 8 10
BITMAP
70
70
70
70
70
E0
E0
E0
E0
E0
E0
ENDCHAR
STARTCHAR parenleft
ENCODING 40
SWIDTH 600 0
DWIDTH 20 0
BBX 5 25 9 -4
BITMAP
08
18
10
30
20
60
60
40
40
C0
C0
C0
C0
C0
C0
C0
40
40
60
60
20
30
10
18
08
ENDCHAR
STARTCHAR parenright
ENCODING 41
SWIDTH 600 0
DWIDTH 20 0
BBX 5 25 5 -4
BITMAP
80
C0
40
60
20
30
30
10
10
18
18
18
18
18
18
18
10
10
30
30
20
60
40
C0
80
ENDCHAR
STARTCHAR asterisk
ENCODING 42
SWIDTH 600 0
DWIDTH 20 0
BBX 11 13 4 8
BITMAP
0400
0400
0400
0400
8420
F5E0
1F00
0E00
0A00
1B00
3180
2080
60C0
ENDCHAR
STARTCHAR plus
ENCODING 43
SWIDTH 600 0
DWIDTH 20 0
BBX 15 17 2 1
BITMAP
0100
0100
0100
0100
0100
0100
0100
0100
FFFE
0100
0100
0100
0100
0100
0100
0100
0100
ENDCHAR
STARTCHAR comma
ENCODING 44
SWIDTH 600 0
DWIDTH 20 0
BBX 6 9 5 -4
BITMAP
3C
3C
78
78
60
E0
C0
C0
80
ENDCHAR
STARTCHAR hyphen
ENCODING 45
SWIDTH 600 0
DWIDTH 20 0
BBX 15 1 2 9
BITMAP
FFFE
ENDCHAR
STARTCHAR period
ENCODING 46
SWIDTH 600 0
DWIDTH 20 0
BBX 5 4 7 0
BITMAP
70
F8
F8
70
ENDCHAR
STARTCHAR slash
ENCODING 47
SWIDTH 600 0
DWIDTH 20 0
BBX 11 25 4 -3
BITMAP
0020
0060
0040
0040
00C0
0080
0180
0100
0300
0200
0200
0600
0400
0C00
0800
0800
1800
1000
3000
2000
6000
4000
4000
C000
8000
ENDCHAR
STARTCHAR zero
ENCODING 48
SWIDTH 600 0
DWIDTH 20 0
BBX 11 20 4 0
BITMAP
1F00
3180
60C0
4040
4040
8020
8020
8020
8020
8020
8020
8020
8020
8020
C060
4040
4040
60C0
3180
1F00
ENDCHAR
STARTCHAR one
ENCODING 49
SWIDTH 600 0
DWIDTH 20 0
BBX 11 20 4 0
BITMAP
0C00
3C00
E400
0400
0400
0400
0400
0400
0400
0400
0400
0400
0400
0400
0400
0400
0400
0400
0400
FFE0
ENDCHAR
STARTCHAR two
ENCODING 50
SWIDTH 600 0
DWIDTH 20 0
BBX 13 20 3 0
BITMAP
0FC0
3060
6010
4010
4010
0010
0030
0020
0060
00C0
0180
0300
0600
0C00
1800
3000
6000
C000
8008
FFF8
ENDCHAR
STARTCHAR three
ENCODING 51
SWIDTH 600 0
DWIDTH 20 0
BBX 13 20 3 0
BITMAP
0F80
38E0
6030
0010
0010
0010
0010
0020
0040
0780
0060
0010
0008
0008
0008
0008
0018
C030
70E0
1F80
ENDCHAR
STARTCHAR four
ENCODING 52
SWIDTH 600 0
DWIDTH 20 0
BBX 13 20 3 0
BITMAP
00C0
0140
0140
0240
0640
0440
0840
1840
1040
2040
6040
4040
8040
FFF8
0040
0040
0040
0040
0040
03F8
ENDCHAR
STARTCHAR five
ENCODING 53
SWIDTH 600 0
DWIDTH 20 0
BBX 13 20 3 0
BITMAP
3FF0
2000
2000
2000
2000
2000
2000
2780
3CE0
2030
0010
0018
0008
0008
0008
0018
C010
6030
38E0
0F80
ENDCHAR
STARTCHAR six
ENCODING 54
SWIDTH 600 0
DWIDTH 20 0
BBX 12 20 4 0
BITMAP
07C0
1C20
3000
2000
6000
4000
C000
8F80
B8E0
A020
C030
C010
C010
C010
C010
4010
6030
2020
38E0
0F80
ENDCHAR
STARTCHAR seven
ENCODING 55
SWIDTH 600 0
DWIDTH 20 0
BBX 11 20 4 0
BITMAP
FFE0
8020
8020
0060
0040
0040
00C0
0080
0080
0180
0100
0100
0300
0200
0200
0200
0600
0400
0400
0400
ENDCHAR
STARTCHAR eight
ENCODING 56
SWIDTH 600 0
DWIDTH 20 0
BBX 11 20 4 0
BITMAP
1F00
60C0
4040
C060
8020
8020
C060
4040
3180
1F00
71C0
4040
C060
8020
8020
8020
C060
4040
71C0
1F00
ENDCHAR
STARTCHAR nine
ENCODING 57
SWIDTH 600 0
DWIDTH 20 0
BBX 12 20 4 0
BITMAP
1F00
70C0
4060
C020
8030
8030
8030
8030
C050
40D0
7390
1E10
0020
0020
0020
0040
00C0
0180
0E00
7800
ENDCHAR
STARTCHAR colon
ENCODING 58
SWIDTH 600 0
DWIDTH 20 0
BBX 5 14 7 0
BITMAP
70
F8
F8
70
00
00
00
00
00
00
70
F8
F8
70
ENDCHAR
STARTCHAR semicolon
ENCODING 59
SWIDTH 600 0
DWIDTH 20 0
BBX 7 18 5 -4
BITMAP
1C
3E
3E
1C
00
00
00
00
00
3C
3C
78
70
70
E0
C0
C0
80
ENDCHAR
STARTCHAR less
ENCODING 60
SWIDTH 600 0
DWIDTH 20 0
BBX 15 17 2 1
BITMAP
0002
000E
0038
00E0
0380
0600
1C00
7000
C000
7000
1C00
0600
0380
00E0
0038
000E
0002
ENDCHAR
STARTCHAR equal
ENCODING 61
SWIDTH 600 0
DWIDTH 20 0
BBX 15 6 2 6
BITMAP
FFFE
0000
0000
0000
0000
FFFE
ENDCHAR
STARTCHAR greater
ENCODING 62
SWIDTH 600 0
DWIDTH 20 0
BBX 15 17 2 1
BITMAP
8000
E000
3800
0E00
0380
00C0
0070
001C
0006
001C
0070
00C0
0380
0E00
3800
E000
8000
ENDCHAR
STARTCHAR question
ENCODING 63
SWIDTH 600 0
DWIDTH 20 0
BBX 11 19 4 0
BITMAP
3F00
E1C0
8040
8040
0060
0020
0060
0040
01C0
0700
0400
0400
0400
0000
0000
0000
0E00
1F00
0E00
ENDCHAR
STARTCHAR at
ENCODING 64
SWIDTH 600 0
DWIDTH 20 0
BBX 12 23 3 -2
BITMAP
0F80
18C0
3040
6060
4020
C020
8020
80E0
83A0
8620
8420
8420
8420
8620
8320
81F0
8000
C000
4000
6000
3000
18E0
0F80
ENDCHAR
STARTCHAR A
ENCODING 65
SWIDTH 600 0
DWIDTH 20 0
BBX 19 19 0 0
BITMAP
1FE000
00A000
00A000
011000
011000
011000
020800
020800
020800
040400
040400
040400
0FFE00
080200
080200
100100
100100
300180
FE0FE0
ENDCHAR
STARTCHAR B
ENCODING 66
SWIDTH 600 0
DWIDTH 20 0
BBX 16 19 1 0
BITMAP
FFF0
100C
1004
1006
1002
1002
1006
1004
100C
1FF8
1006
1002
1003
1001
1001
1003
1002
1006
FFF8
ENDCHAR
STARTCHAR C
ENCODING 67
SWIDTH 600 0
DWIDTH 20 0
BBX 14 19 2 0
BITMAP
07C4
1C74
200C
6004
4004
C004
8000
8000
8000
8000
8000
8000
8000
C000
4000
6004
201C
1C70
07C0
ENDCHAR
STARTCHAR D
ENCODING 68
SWIDTH 600 0
DWIDTH 20 0
BBX 15 19 1 0
BITMAP
FFC0
2070
2018
200C
2004
2006
2002
2002
2002
2002
2002
2002
2002
2006
2004
200C
2018
2070
FFC0
ENDCHAR
STARTCHAR E
ENCODING 69
SWIDTH 600 0
DWIDTH 20 0
BBX 15 19 1 0
BITMAP
FFFC
1004
1004
1004
1004
1044
1040
1040
1FC0
1040
1040
1040
1000
1002
1002
1002
1002
1002
FFFE
ENDCHAR
STARTCHAR F
ENCODING 70
SWIDTH 600 0
DWIDTH 20 0
BBX 15 19 1 0
BITMAP
FFFE
1002
1002
1002
1002
1042
1040
1040
1FC0
1040
1040
1040
1000
1000
1000
1000
1000
1000
FF80
ENDCHAR
STARTCHAR G
ENCODING 71
SWIDTH 600 0
DWIDTH 20 0
BBX 15 19 2 0
BITMAP
07C4
1C74
300C
6004
4004
C004
8000
8000
8000
8000
8000
80FE
8004
C004
4004
6004
3004
1C1C
07F0
ENDCHAR
STARTCHAR H
ENCODING 72
SWIDTH 600 0
DWIDTH 20 0
BBX 15 19 2 0
BITMAP
FC7E
2008
2008
2008
2008
2008
2008
2008
2008
3FF8
2008
2008
2008
2008
2008
2008
2008
2008
FC7E
ENDCHAR
STARTCHAR I
ENCODING 73
SWIDTH 600 0
DWIDTH 20 0
BBX 11 19 4 0
BITMAP
FFE0
0400
0400
0400
0400
0400
0400
0400
0400
0400
0400
0400
0400
0400
0400
0400
0400
0400
FFE0
ENDCHAR
STARTCHAR J
ENCODING 74
SWIDTH 600 0
DWIDTH 20 0
BBX 15 19 3 0
BITMAP
0FFE
0020
0020
0020
0020
0020
0020
0020
0020
0020
0020
8020
8020
8020
8020
C060
4040
61C0
1F00
ENDCHAR
STARTCHAR K
ENCODING 75
SWIDTH 600 0
DWIDTH 20 0
BBX 17 19 1 0
BITMAP
FE1F80
100400
100C00
100800
101000
103000
104000
10C000
138000
1CC000
102000
103000
101000
101800
100800
100800
100C00
100400
FE0780
ENDCHAR
STARTCHAR L
ENCODING 76
SWIDTH 600 0
DWIDTH 20 0
BBX 15 19 2 0
BITMAP
FF80
0800
0800
0800
0800
0800
0800
0800
0800
0800
0800
0800
0802
0802
0802
0802
0802
0802
FFFE
ENDCHAR
STARTCHAR M
ENCODING 77
SWIDTH 600 0
DWIDTH 20 0
BBX 19 19 0 0
BITMAP
F803E0
280280
280280
240480
240480
220880
220880
211080
211080
211080
20A080
20A080
204080
204080
200080
200080
200080
200080
FE07E0
ENDCHAR
STARTCHAR N
ENCODING 78
SWIDTH 600 0
DWIDTH 20 0
BBX 18 19 0 0
BITMAP
F81FC0
1C0100
140100
120100
120100
110100
108100
108100
104100
104100
102100
102100
101100
101100
100900
100900
100500
100700
7F0300
ENDCHAR
STARTCHAR O
ENCODING 79
SWIDTH 600 0
DWIDTH 20 0
BBX 15 19 2 0
BITMAP
07C0
1830
3018
600C
4004
C006
8002
8002
8002
8002
8002
8002
8002
C006
4004
600C
3018
1830
07C0
ENDCHAR
STARTCHAR P
ENCODING 80
SWIDTH 600 0
DWIDTH 20 0
BBX 15 19 1 0
BITMAP
FFE0
1038
1004
1006
1002
1002
1002
1006
1004
1038
1FE0
1000
1000
1000
1000
1000
1000
1000
FFC0
ENDCHAR
STARTCHAR Q
ENCODING 81
SWIDTH 600 0
DWIDTH 20 0
BBX 15 22 2 -3
BITMAP
07C0
1C70
3018
600C
4004
C006
8002
8002
8002
8002
8002
8002
8002
C006
4004
600C
3838
0C60
07C0
0200
0FC6
187C
ENDCHAR
STARTCHAR R
ENCODING 82
SWIDTH 600 0
DWIDTH 20 0
BBX 18 19 1 0
BITMAP
FFE000
103800
100400
100600
100200
100200
100600
100400
101800
1FE000
106000
103000
101800
100C00
100400
100600
100200
100300
FE01C0
ENDCHAR
STARTCHAR S
ENCODING 83
SWIDTH 600 0
DWIDTH 20 0
BBX 12 19 3 0
BITMAP
0F90
38D0
6030
4030
4010
4010
4000
6000
3800
0F00
01C0
0060
0030
8010
8010
C010
E030
B8E0
8F80
ENDCHAR
STARTCHAR T
ENCODING 84
SWIDTH 600 0
DWIDTH 20 0
BBX 15 19 2 0
BITMAP
FFFE
8102
8102
8102
8102
8102
8102
0100
0100
0100
0100
0100
0100
0100
0100
0100
0100
0100
3FF8
ENDCHAR
STARTCHAR U
ENCODING 85
SWIDTH 600 0
DWIDTH 20 0
BBX 17 19 1 0
BITMAP
FE3F80
200200
200200
200200
200200
200200
200200
200200
200200
200200
200200
200200
200200
200200
300600
100400
180C00
0E3800
03E000
ENDCHAR
STARTCHAR V
ENCODING 86
SWIDTH 600 0
DWIDTH 20 0
BBX 19 19 0 0
BITMAP
FE0FE0
300180
100100
100100
180300
080200
080200
0C0600
040400
040400
060C00
020800
031800
011000
011000
00A000
00A000
00E000
004000
ENDCHAR
STARTCHAR W
ENCODING 87
SWIDTH 600 0
DWIDTH 20 0
BBX 17 19 1 0
BITMAP
FC1F80
400100
400100
400100
400100
61C300
214200
214200
222200
222200
222200
222200
263200
241200
341600
141400
141400
180C00
180C00
ENDCHAR
STARTCHAR X
ENCODING 88
SWIDTH 600 0
DWIDTH 20 0
BBX 17 19 1 0
BITMAP
7C1F00
300600
100400
180C00
080800
041000
022000
036000
01C000
008000
01C000
022000
041000
0C1800
080800
100400
300600
600300
FC1F80
ENDCHAR
STARTCHAR Y
ENCODING 89
SWIDTH 600 0
DWIDTH 20 0
BBX 15 19 2 0
BITMAP
F83E
600C
3018
1010
1830
0820
0440
06C0
0280
0380
0100
0100
0100
0100
0100
0100
0100
0100
1FF0
ENDCHAR
STARTCHAR Z
ENCODING 90
SWIDTH 600 0
DWIDTH 20 0
BBX 13 19 3 0
BITMAP
7FF0
4010
4030
4020
4060
40C0
0080
0180
0300
0600
0400
0C00
1808
1008
3008
6008
4008
C008
FFF8
ENDCHAR
STARTCHAR bracketleft
ENCODING 91
SWIDTH 600 0
DWIDTH 20 0
BBX 5 24 9 -4
BITMAP
F8
80
80
80
80
80
80
80
80
80
80
80
80
80
80
80
80
80
80
80
80
80
80
F8
ENDCHAR
STARTCHAR backslash
ENCODING 92
SWIDTH 600 0
DWIDTH 20 0
BBX 11 25 4 -3
BITMAP
8000
C000
4000
4000
6000
2000
3000
1000
1800
0800
0800
0C00
0400
0600
0200
0200
0300
0100
0180
0080
00C0
0040
0040
0060
0020
ENDCHAR
STARTCHAR bracketright
ENCODING 93
SWIDTH 600 0
DWIDTH 20 0
BBX 5 24 5 -4
BITMAP
F8
08
08
08
08
08
08
08
08
08
08
08
08
08
08
08
08
08
08
08
08
08
08
F8
ENDCHAR
STARTCHAR asciicircum
ENCODING 94
SWIDTH 600 0
DWIDTH 20 0
BBX 11 9 4 12
BITMAP
0400
0E00
1B00
1100
3180
60C0
4040
C060
8020
ENDCHAR
STARTCHAR underscore
ENCODING 95
SWIDTH 600 0
DWIDTH 20 0
BBX 19 1 0 -6
BITMAP
FFFFE0
ENDCHAR
STARTCHAR grave
ENCODING 96
SWIDTH 600 0
DWIDTH 20 0
BBX 6 5 4 17
BITMAP
C0
60
30
18
0C
ENDCHAR
STARTCHAR a
ENCODING 97
SWIDTH 600 0
DWIDTH 20 0
BBX 15 14 2 0
BITMAP
0F80
38E0
0020
0030
0010
0010
1FF0
7030
C010
8010
8010
8030
C0F0
7F9E
ENDCHAR
STARTCHAR b
ENCODING 98
SWIDTH 600 0
DWIDTH 20 0
BBX 17 20 0 0
BITMAP
F00000
100000
100000
100000
100000
100000
11F800
170E00
140300
180100
180180
100080
100080
100080
100080
180180
180100
140300
170E00
F1F800
ENDCHAR
STARTCHAR c
ENCODING 99
SWIDTH 600 0
DWIDTH 20 0
BBX 14 14 3 0
BITMAP
0F88
38F8
6018
4008
C008
8000
8000
8000
8000
C000
400C
6018
38E0
0F80
ENDCHAR
STARTCHAR d
ENCODING 100
SWIDTH 600 0
DWIDTH 20 0
BBX 17 20 2 0
BITMAP
003C00
000400
000400
000400
000400
000400
0FC400
387400
601400
400C00
C00C00
800400
800400
800400
800400
C00C00
400C00
601400
387400
0FC780
ENDCHAR
STARTCHAR e
ENCODING 101
SWIDTH 600 0
DWIDTH 20 0
BBX 14 14 2 0
BITMAP
0FC0
3870
6018
4008
C00C
8004
FFFC
8000
8000
C000
4000
600C
3838
0FE0
ENDCHAR
STARTCHAR f
ENCODING 102
SWIDTH 600 0
DWIDTH 20 0
BBX 13 20 3 0
BITMAP
03E0
0618
0400
0C00
0800
0800
FFF0
0800
0800
0800
0800
0800
0800
0800
0800
0800
0800
0800
0800
FFF0
ENDCHAR
STARTCHAR g
ENCODING 103
SWIDTH 600 0
DWIDTH 20 0
BBX 17 20 2 -6
BITMAP
0FC780
387400
601400
400C00
C00C00
800400
800400
800400
800400
C00C00
400C00
601400
387400
0FC400
000400
000400
000C00
000800
003800
0FE000
ENDCHAR
STARTCHAR h
ENCODING 104
SWIDTH 600 0
DWIDTH 20 0
BBX 16 20 1 0
BITMAP
F000
1000
1000
1000
1000
1000
11E0
1738
1408
180C
1804
1004
1004
1004
1004
1004
1004
1004
1004
7C1F
ENDCHAR
STARTCHAR i
ENCODING 105
SWIDTH 600 0
DWIDTH 20 0
BBX 13 20 3 0
BITMAP
0600
0600
0600
0000
0000
0000
7E00
0200
0200
0200
0200
0200
0200
0200
0200
0200
0200
0200
0200
FFF8
ENDCHAR
STARTCHAR j
ENCODING 106
SWIDTH 600 0
DWIDTH 20 0
BBX 10 26 4 -6
BITMAP
0180
0180
0180
0000
0000
0000
FFC0
0040
0040
0040
0040
0040
0040
0040
0040
0040
0040
0040
0040
0040
0040
0040
00C0
0080
0380
FE00
ENDCHAR
STARTCHAR k
ENCODING 107
SWIDTH 600 0
DWIDTH 20 0
BBX 15 20 2 0
BITMAP
F000
1000
1000
1000
1000
1000
10FC
1030
1060
10C0
1180
1300
1E00
1300
1180
10C0
1060
1030
1018
F03E
ENDCHAR
STARTCHAR l
ENCODING 108
SWIDTH 600 0
DWIDTH 20 0
BBX 13 20 3 0
BITMAP
7E00
0200
0200
0200
0200
0200
0200
0200
0200
0200
0200
0200
0200
0200
0200
0200
0200
0200
0200
FFF8
ENDCHAR
STARTCHAR m
ENCODING 109
SWIDTH 600 0
DWIDTH 20 0
BBX 19 14 0 0
BITMAP
E70E00
299300
30E180
306080
204080
204080
204080
204080
204080
204080
204080
204080
204080
F870E0
ENDCHAR
STARTCHAR n
ENCODING 110
SWIDTH 600 0
DWIDTH 20 0
BBX 15 14 2 0
BITMAP
E3C0
2E70
2810
3018
3008
2008
2008
2008
2008
2008
2008
2008
2008
F83E
ENDCHAR
STARTCHAR o
ENCODING 111
SWIDTH 600 0
DWIDTH 20 0
BBX 15 14 2 0
BITMAP
0FE0
3838
600C
4004
C006
8002
8002
8002
8002
C006
4004
600C
3838
0FE0
ENDCHAR
STARTCHAR p
ENCODING 112
SWIDTH 600 0
DWIDTH 20 0
BBX 17 20 0 -6
BITMAP
01F800
F70E00
140300
180100
180180
100080
100080
100080
100080
180180
180100
140300
170E00
11F800
100000
100000
100000
100000
100000
FF0000
ENDCHAR
STARTCHAR q
ENCODING 113
SWIDTH 600 0
DWIDTH 20 0
BBX 17 20 2 -6
BITMAP
0FC000
387780
601C00
400C00
C00C00
800400
800400
800400
800400
C00C00
400C00
601C00
387400
0FC400
000400
000400
000400
000400
000400
007F80
ENDCHAR
STARTCHAR r
ENCODING 114
SWIDTH 600 0
DWIDTH 20 0
BBX 15 14 3 0
BITMAP
787C
09C6
0B00
0C00
0C00
0800
0800
0800
0800
0800
0800
0800
0800
FFF0
ENDCHAR
STARTCHAR s
ENCODING 115
SWIDTH 600 0
DWIDTH 20 0
BBX 13 14 3 0
BITMAP
0F90
38F0
6030
4010
6000
3800
0F80
00E0
0030
8018
8018
C030
F8E0
8F80
ENDCHAR
STARTCHAR t
ENCODING 116
SWIDTH 600 0
DWIDTH 20 0
BBX 14 19 2 0
BITMAP
1000
1000
1000
1000
1000
FFF0
1000
1000
1000
1000
1000
1000
1000
1000
1000
1000
180C
0C38
07E0
ENDCHAR
STARTCHAR u
ENCODING 117
SWIDTH 600 0
DWIDTH 20 0
BBX 16 14 1 0
BITMAP
F03C
1004
1004
1004
1004
1004
1004
1004
1004
1004
100C
180C
0C34
07E7
ENDCHAR
STARTCHAR v
ENCODING 118
SWIDTH 600 0
DWIDTH 20 0
BBX 17 14 1 0
BITMAP
FC1F80
300600
100400
100400
180C00
080800
0C1800
041000
041000
063000
022000
036000
014000
01C000
ENDCHAR
STARTCHAR w
ENCODING 119
SWIDTH 600 0
DWIDTH 20 0
BBX 17 14 1 0
BITMAP
F80F80
600300
200200
200200
21C200
214200
314600
136400
122400
122400
163400
1C1C00
080800
080800
ENDCHAR
STARTCHAR x
ENCODING 120
SWIDTH 600 0
DWIDTH 20 0
BBX 15 14 2 0
BITMAP
F83E
600C
3018
1830
0C60
06C0
0380
0380
06C0
0C60
1830
3018
600C
F83E
ENDCHAR
STARTCHAR y
ENCODING 121
SWIDTH 600 0
DWIDTH 20 0
BBX 15 20 2 -6
BITMAP
F83E
4004
600C
2008
3018
1010
1830
0820
0C60
0440
06C0
0280
0380
0100
0300
0200
0200
0600
0400
FF80
ENDCHAR
STARTCHAR z
ENCODING 122
SWIDTH 600 0
DWIDTH 20 0
BBX 11 14 4 0
BITMAP
FFE0
8060
80C0
8180
0300
0600
0400
0C00
1800
3000
6020
4020
C020
FFE0
ENDCHAR
STARTCHAR braceleft
ENCODING 123
SWIDTH 600 0
DWIDTH 20 0
BBX 7 25 6 -4
BITMAP
06
0C
18
10
10
10
10
10
10
10
10
30
60
E0
30
10
10
10
10
10
10
10
10
18
0E
ENDCHAR
STARTCHAR bar
ENCODING 124
SWIDTH 600 0
DWIDTH 20 0
BBX 1 25 9 -4
BITMAP
80
80
80
80
80
80
80
80
80
80
80
80
80
80
80
80
80
80
80
80
80
80
80
80
80
ENDCHAR
STARTCHAR braceright
ENCODING 125
SWIDTH 600 0
DWIDTH 20 0
BBX 7 25 6 -4
BITMAP
C0
60
30
10
10
10
10
10
10
10
10
18
0C
0E
18
10
10
10
10
10
10
10
10
30
E0
ENDCHAR
STARTCHAR asciitilde
ENCODING 126
SWIDTH 600 0
DWIDTH 20 0
BBX 13 5 3 7
BITMAP
1800
7C08
C718
81B0
00E0
ENDCHAR
STARTCHAR space
ENCODING 160
SWIDTH 600 0
DWIDTH 20 0
BBX 1 1 0 0
BITMAP
00
ENDCHAR
STARTCHAR exclamdown
ENCODING 161
SWIDTH 600 0
DWIDTH 20 0
BBX 5 20 7 -6
BITMAP
70
F8
70
00
00
00
00
20
20
20
20
20
20
20
70
70
70
70
70
20
ENDCHAR
STARTCHAR cent
ENCODING 162
SWIDTH 600 0
DWIDTH 20 0
BBX 11 20 4 0
BITMAP
0400
0400
0400
0400
1F80
30E0
6020
C020
8000
8000
8000
8000
C000
6020
30E0
1F80
0400
0400
0400
0400
ENDCHAR
STARTCHAR sterling
ENCODING 163
SWIDTH 600 0
DWIDTH 20 0
BBX 14 19 2 0
BITMAP
03E0
0C30
0818
1800
1000
1000
1000
1800
0800
FF80
0800
0800
0800
0800
0800
1800
1004
300C
7FF8
ENDCHAR
STARTCHAR currency
ENCODING 164
SWIDTH 600 0
DWIDTH 20 0
BBX 13 13 3 3
BITMAP
C018
6FB0
38E0
2020
6030
4010
4010
4010
6030
2020
38E0
6FB0
C018
ENDCHAR
STARTCHAR yen
ENCODING 165
SWIDTH 600 0
DWIDTH 20 0
BBX 15 19 2 0
BITMAP
F83E
600C
3018
1010
1830
0820
0C60
06C0
0280
0380
3FF8
0100
0100
3FF8
0100
0100
0100
0100
1FF0
ENDCHAR
STARTCHAR brokenbar
ENCODING 166
SWIDTH 600 0
DWIDTH 20 0
BBX 1 25 9 -4
BITMAP
80
80
80
80
80
80
80
80
80
80
80
00
00
00
00
80
80
80
80
80
80
80
80
80
80
ENDCHAR
STARTCHAR section
ENCODING 167
SWIDTH 600 0
DWIDTH 20 0
BBX 14 23 3 -2
BITMAP
07F8
1C08
1008
1008
1000
1800
7C00
C600
8300
81C0
C060
7038
180C
0C04
0704
0184
00FC
0060
0020
4020
4020
40E0
7F80
ENDCHAR
STARTCHAR dieresis
ENCODING 168
SWIDTH 600 0
DWIDTH 20 0
BBX 10 3 5 17
BITMAP
6180
F3C0
6180
ENDCHAR
STARTCHAR copyright
ENCODING 169
SWIDTH 600 0
DWIDTH 20 0
BBX 19 19 0 0
BITMAP
01F000
071C00
1C0700
300180
21E880
6318C0
460840
CC0860
880020
880020
880020
8C0020
C60C60
431840
61F0C0
300180
180300
0F1E00
01F000
ENDCHAR
STARTCHAR ordfeminine
ENCODING 170
SWIDTH 600 0
DWIDTH 20 0
BBX 9 12 5 7
BITMAP
3C00
6600
0200
0200
7E00
C600
8200
CE00
7B80
0000
0000
FF80
ENDCHAR
STARTCHAR guillemotleft
ENCODING 171
SWIDTH 600 0
DWIDTH 20 0
BBX 16 14 2 0
BITMAP
0183
0306
060C
0C18
1830
3060
60C0
E1C0
60C0
3060
1830
0C18
060C
0306
ENDCHAR
STARTCHAR logicalnot
ENCODING 172
SWIDTH 600 0
DWIDTH 20 0
BBX 14 6 3 6
BITMAP
FFFC
0004
0004
0004
0004
0004
ENDCHAR
STARTCHAR hyphen
ENCODING 173
SWIDTH 600 0
DWIDTH 20 0
BBX 15 1 2 9
BITMAP
FFFE
ENDCHAR
STARTCHAR registered
ENCODING 174
SWIDTH 600 0
DWIDTH 20 0
BBX 19 19 0 0
BITMAP
03F800
0E0E00
180300
300180
67E0C0
423040
C21860
820820
820820
821820
823020
83E020
C23060
421840
670CC0
300180
180300
0E0E00
03F800
ENDCHAR
STARTCHAR macron
ENCODING 175
SWIDTH 600 0
DWIDTH 20 0
BBX 9 2 5 17
BITMAP
FF80
FF80
ENDCHAR
STARTCHAR degree
ENCODING 176
SWIDTH 600 0
DWIDTH 20 0
BBX 9 10 5 11
BITMAP
3E00
6300
4100
C180
8080
8080
C180
4100
6300
3E00
ENDCHAR
STARTCHAR plusminus
ENCODING 177
SWIDTH 600 0
DWIDTH 20 0
BBX 15 16 2 1
BITMAP
0100
0100
0100
0100
0100
0100
FFFE
0100
0100
0100
0100
0100
0100
0000
0000
FFFE
ENDCHAR
STARTCHAR twosuperior
ENCODING 178
SWIDTH 600 0
DWIDTH 20 0
BBX 8 14 5 7
BITMAP
3C
66
43
C1
03
02
06
0C
18
10
30
60
C1
FF
ENDCHAR
STARTCHAR threesuperior
ENCODING 179
SWIDTH 600 0
DWIDTH 20 0
BBX 8 14 6 7
BITMAP
3C
66
C3
01
01
06
1C
06
03
01
01
C3
66
3C
ENDCHAR
STARTCHAR acute
ENCODING 180
SWIDTH 600 0
DWIDTH 20 0
BBX 6 5 9 17
BITMAP
0C
18
30
60
C0
ENDCHAR
STARTCHAR mu
ENCODING 181
SWIDTH 600 0
DWIDTH 20 0
BBX 16 20 1 -6
BITMAP
F03C
1004
1004
1004
1004
1004
1004
1004
1004
1004
180C
181C
1C34
17E7
1000
1000
1000
1000
1000
1000
ENDCHAR
STARTCHAR paragraph
ENCODING 182
SWIDTH 600 0
DWIDTH 20 0
BBX 15 23 2 -2
BITMAP
0FFE
3910
7110
6110
E110
C110
C110
E110
6110
7110
3D10
0F10
0110
0110
0110
0110
0110
0110
0110
0110
0110
0110
1FBE
ENDCHAR
STARTCHAR periodcentered
ENCODING 183
SWIDTH 600 0
DWIDTH 20 0
BBX 5 4 7 7
BITMAP
70
F8
F8
70
ENDCHAR
STARTCHAR cedilla
ENCODING 184
SWIDTH 600 0
DWIDTH 20 0
BBX 5 5 7 -5
BITMAP
20
20
30
98
F0
ENDCHAR
STARTCHAR onesuperior
ENCODING 185
SWIDTH 600 0
DWIDTH 20 0
BBX 7 14 6 7
BITMAP
70
D0
10
10
10
10
10
10
10
10
10
10
10
FE
ENDCHAR
STARTCHAR ordmasculine
ENCODING 186
SWIDTH 600 0
DWIDTH 20 0
BBX 9 12 5 7
BITMAP
1C00
7700
4100
C180
8080
C180
4100
7700
1C00
0000
0000
FF80
ENDCHAR
STARTCHAR guillemotright
ENCODING 187
SWIDTH 600 0
DWIDTH 20 0
BBX 16 14 2 0
BITMAP
C180
60C0
3060
1830
0C18
060C
0306
0387
0306
060C
0C18
1830
3060
60C0
ENDCHAR
STARTCHAR onequarter
ENCODING 188
SWIDTH 600 0
DWIDTH 20 0
BBX 18 21 1 0
BITMAP
3000C0
F00080
100180
100300
100200
100600
100C00
100800
101800
103000
102300
106700
FEC500
008D00
019900
031100
023100
063F80
0C0100
080100
180780
ENDCHAR
STARTCHAR onehalf
ENCODING 189
SWIDTH 600 0
DWIDTH 20 0
BBX 18 21 1 0
BITMAP
300080
F00180
100300
100600
100400
100C00
101800
101000
103000
106000
104780
10CCC0
FD9840
0300C0
020080
060180
0C0700
080C00
181800
303000
603FC0
ENDCHAR
STARTCHAR threequarters
ENCODING 190
SWIDTH 600 0
DWIDTH 20 0
BBX 19 21 0 0
BITMAP
3C0000
660060
0300C0
030180
060300
1C0600
060C00
030800
011800
013000
C32180
666380
3CC280
018680
010C80
030880
061880
0C1FC0
180080
300080
0003C0
ENDCHAR
STARTCHAR questiondown
ENCODING 191
SWIDTH 600 0
DWIDTH 20 0
BBX 11 20 4 -6
BITMAP
0E00
1F00
0E00
0000
0000
0000
0000
0400
0400
0C00
1800
7000
4000
C000
8000
8000
C020
6020
31E0
1F00
ENDCHAR
STARTCHAR Agrave
ENCODING 192
SWIDTH 600 0
DWIDTH 20 0
BBX 19 26 0 0
BITMAP
060000
030000
018000
00C000
006000
000000
000000
1FE000
00A000
01B000
011000
011000
031800
020800
020800
060C00
040400
040400
0C0600
0FFE00
080200
180300
100100
100100
300180
FE0FE0
ENDCHAR
STARTCHAR Aacute
ENCODING 193
SWIDTH 600 0
DWIDTH 20 0
BBX 19 26 0 0
BITMAP
000C00
001800
003000
006000
00C000
000000
000000
1FE000
00A000
01B000
011000
011000
031800
020800
020800
060C00
040400
040400
0C0600
0FFE00
080200
180300
100100
100100
300180
FE0FE0
ENDCHAR
STARTCHAR Acircumflex
ENCODING 194
SWIDTH 600 0
DWIDTH 20 0
BBX 19 26 0 0
BITMAP
004000
00E000
01B000
031800
060C00
000000
000000
1FE000
00A000
01B000
011000
011000
031800
020800
020800
060C00
040400
040400
0C0600
0FFE00
080200
180300
100100
100100
300180
FE0FE0
ENDCHAR
STARTCHAR Atilde
ENCODING 195
SWIDTH 600 0
DWIDTH 20 0
BBX 19 24 0 0
BITMAP
038400
06EC00
043800
000000
000000
1FE000
00A000
01B000
011000
011000
031800
020800
020800
060C00
040400
040400
0C0600
0FFE00
080200
180300
100100
100100
300180
FE0FE0
ENDCHAR
STARTCHAR Adieresis
ENCODING 196
SWIDTH 600 0
DWIDTH 20 0
BBX 19 24 0 0
BITMAP
060C00
0F1E00
060C00
000000
000000
1FE000
00A000
01B000
011000
011000
031800
020800
020800
060C00
040400
040400
0C0600
0FFE00
080200
180300
100100
100100
300180
FE0FE0
ENDCHAR
STARTCHAR Aring
ENCODING 197
SWIDTH 600 0
DWIDTH 20 0
BBX 19 26 0 0
BITMAP
00E000
01B000
011000
011000
01B000
00E000
000000
1FE000
00A000
01B000
011000
011000
031800
020800
020800
060C00
040400
040400
0C0600
0FFE00
080200
180300
100100
100100
300180
FE0FE0
ENDCHAR
STARTCHAR AE
ENCODING 198
SWIDTH 600 0
DWIDTH 20 0
BBX 18 19 1 0
BITMAP
1FFF80
024080
024080
064080
044080
044080
044000
0C4400
084400
087C00
084400
184400
1FC000
104000
304040
204040
204040
204040
FBFFC0
ENDCHAR
STARTCHAR Ccedilla
ENCODING 199
SWIDTH 600 0
DWIDTH 20 0
BBX 15 24 2 -5
BITMAP
07C4
1C74
300C
600C
4004
C004
8000
8000
8000
8000
8000
8000
8000
C000
4002
6004
301C
1C70
07C0
0100
0100
0180
04C0
0780
ENDCHAR
STARTCHAR Egrave
ENCODING 200
SWIDTH 600 0
DWIDTH 20 0
BBX 15 26 1 0
BITMAP
0C00
0600
0300
0180
00C0
0000
0000
FFFC
1004
1004
1004
1004
1004
1040
1040
1040
1FC0
1040
1040
1000
1002
1002
1002
1002
1002
FFFE
ENDCHAR
STARTCHAR Eacute
ENCODING 201
SWIDTH 600 0
DWIDTH 20 0
BBX 15 26 1 0
BITMAP
0030
0060
00C0
0180
0300
0000
0000
FFFC
1004
1004
1004
1004
1004
1040
1040
1040
1FC0
1040
1040
1000
1002
1002
1002
1002
1002
FFFE
ENDCHAR
STARTCHAR Ecircumflex
ENCODING 202
SWIDTH 600 0
DWIDTH 20 0
BBX 15 26 1 0
BITMAP
0080
01C0
0360
0630
0C18
0000
0000
FFFC
1004
1004
1004
1004
1004
1040
1040
1040
1FC0
1040
1040
1000
1002
1002
1002
1002
1002
FFFE
ENDCHAR
STARTCHAR Edieresis
ENCODING 203
SWIDTH 600 0
DWIDTH 20 0
BBX 15 24 1 0
BITMAP
0C30
1E78
0C30
0000
0000
FFFC
1004
1004
1004
1004
1004
1040
1040
1040
1FC0
1040
1040
1000
1002
1002
1002
1002
1002
FFFE
ENDCHAR
STARTCHAR Igrave
ENCODING 204
SWIDTH 600 0
DWIDTH 20 0
BBX 11 26 4 0
BITMAP
3000
1800
0C00
0600
0300
0000
0000
FFE0
0400
0400
0400
0400
0400
0400
0400
0400
0400
0400
0400
0400
0400
0400
0400
0400
0400
FFE0
ENDCHAR
STARTCHAR Iacute
ENCODING 205
SWIDTH 600 0
DWIDTH 20 0
BBX 11 26 4 0
BITMAP
00C0
0180
0300
0600
0C00
0000
0000
FFE0
0400
0400
0400
0400
0400
0400
0400
0400
0400
0400
0400
0400
0400
0400
0400
0400
0400
FFE0
ENDCHAR
STARTCHAR Icircumflex
ENCODING 206
SWIDTH 600 0
DWIDTH 20 0
BBX 11 26 4 0
BITMAP
0400
0E00
1B00
3180
60C0
0000
0000
FFE0
0400
0400
0400
0400
0400
0400
0400
0400
0400
0400
0400
0400
0400
0400
0400
0400
0400
FFE0
ENDCHAR
STARTCHAR Idieresis
ENCODING 207
SWIDTH 600 0
DWIDTH 20 0
BBX 11 24 4 0
BITMAP
60C0
F1E0
60C0
0000
0000
FFE0
0400
0400
0400
0400
0400
0400
0400
0400
0400
0400
0400
0400
0400
0400
0400
0400
0400
FFE0
ENDCHAR
STARTCHAR Eth
ENCODING 208
SWIDTH 600 0
DWIDTH 20 0
BBX 15 19 1 0
BITMAP
FFC0
2070
2018
200C
2004
2006
2002
2002
2002
FE02
2002
2002
2002
2006
2004
200C
2018
2070
FFC0
ENDCHAR
STARTCHAR Ntilde
ENCODING 209
SWIDTH 600 0
DWIDTH 20 0
BBX 18 24 0 0
BITMAP
038400
06EC00
043800
000000
000000
F81FC0
1C0100
140100
160100
120100
130100
118100
108100
10C100
104100
106100
102100
103100
101900
100900
100D00
100500
100700
7F0300
ENDCHAR
STARTCHAR Ograve
ENCODING 210
SWIDTH 600 0
DWIDTH 20 0
BBX 15 26 2 0
BITMAP
1800
0C00
0600
0300
0180
0000
0000
07C0
1C70
3018
600C
4004
C006
8002
8002
8002
8002
8002
8002
C006
4004
600C
2008
3018
1C70
07C0
ENDCHAR
STARTCHAR Oacute
ENCODING 211
SWIDTH 600 0
DWIDTH 20 0
BBX 15 26 2 0
BITMAP
0018
0030
0060
00C0
0180
0000
0000
07C0
1C70
3018
600C
4004
C006
8002
8002
8002
8002
8002
8002
C006
4004
600C
2008
3018
1C70
07C0
ENDCHAR
STARTCHAR Ocircumflex
ENCODING 212
SWIDTH 600 0
DWIDTH 20 0
BBX 15 26 2 0
BITMAP
0100
0380
06C0
0C60
1830
0000
0000
07C0
1C70
3018
600C
4004
C006
8002
8002
8002
8002
8002
8002
C006
4004
600C
2008
3018
1C70
07C0
ENDCHAR
STARTCHAR Otilde
ENCODING 213
SWIDTH 600 0
DWIDTH 20 0
BBX 15 24 2 0
BITMAP
0E10
1BB0
10E0
0000
0000
07C0
1C70
3018
600C
4004
C006
8002
8002
8002
8002
8002
8002
C006
4004
600C
2008
3018
1C70
07C0
ENDCHAR
STARTCHAR Odieresis
ENCODING 214
SWIDTH 600 0
DWIDTH 20 0
BBX 15 24 2 0
BITMAP
3030
7878
3030
0000
0000
07C0
1C70
3018
600C
4004
C006
8002
8002
8002
8002
8002
8002
C006
4004
600C
2008
3018
1C70
07C0
ENDCHAR
STARTCHAR multiply
ENCODING 215
SWIDTH 600 0
DWIDTH 20 0
BBX 13 14 3 1
BITMAP
8008
C018
6030
3060
18C0
0D80
0700
0700
0D80
18C0
3060
6030
C018
8008
ENDCHAR
STARTCHAR Oslash
ENCODING 216
SWIDTH 600 0
DWIDTH 20 0
BBX 16 21 2 -1
BITMAP
0001
07C3
1C76
301C
2018
603C
4024
C066
80C2
8182
8102
8302
8602
CC06
4804
780C
3008
3018
7C30
C7E0
8000
ENDCHAR
STARTCHAR Ugrave
ENCODING 217
SWIDTH 600 0
DWIDTH 20 0
BBX 17 26 1 0
BITMAP
060000
030000
018000
00C000
006000
000000
000000
FE3F80
200200
200200
200200
200200
200200
200200
200200
200200
200200
200200
200200
200200
200200
300600
100400
180C00
0E3800
03E000
ENDCHAR
STARTCHAR Uacute
ENCODING 218
SWIDTH 600 0
DWIDTH 20 0
BBX 17 26 1 0
BITMAP
001800
003000
006000
00C000
018000
000000
000000
FE3F80
200200
200200
200200
200200
200200
200200
200200
200200
200200
200200
200200
200200
200200
300600
100400
180C00
0E3800
03E000
ENDCHAR
STARTCHAR Ucircumflex
ENCODING 219
SWIDTH 600 0
DWIDTH 20 0
BBX 17 26 1 0
BITMAP
008000
01C000
036000
063000
0C1800
000000
000000
FE3F80
200200
200200
200200
200200
200200
200200
200200
200200
200200
200200
200200
200200
200200
300600
100400
180C00
0E3800
03E000
ENDCHAR
STARTCHAR Udieresis
ENCODING 220
SWIDTH 600 0
DWIDTH 20 0
BBX 17 24 1 0
BITMAP
0C1800
1E3C00
0C1800
000000
000000
FE3F80
200200
200200
200200
200200
200200
200200
200200
200200
200200
200200
200200
200200
200200
300600
100400
180C00
0E3800
03E000
ENDCHAR
STARTCHAR Yacute
ENCODING 221
SWIDTH 600 0
DWIDTH 20 0
BBX 15 26 2 0
BITMAP
0030
0060
00C0
0180
0300
0000
0000
F83E
600C
3018
1010
1830
0820
0C60
06C0
0280
0380
0100
0100
0100
0100
0100
0100
0100
0100
1FF0
ENDCHAR
STARTCHAR Thorn
ENCODING 222
SWIDTH 600 0
DWIDTH 20 0
BBX 16 19 1 0
BITMAP
FE00
1000
1000
1000
1FE0
103C
1006
1002
1003
1003
1002
1006
103C
1FE0
1000
1000
1000
1000
FE00
ENDCHAR
STARTCHAR germandbls
ENCODING 223
SWIDTH 600 0
DWIDTH 20 0
BBX 15 21 1 0
BITMAP
07C0
0C60
0820
1830
1010
1010
1010
1030
1060
11C0
1070
1018
1004
1006
1002
1002
1002
1106
1104
118C
F8F8
ENDCHAR
STARTCHAR agrave
ENCODING 224
SWIDTH 600 0
DWIDTH 20 0
BBX 15 22 2 0
BITMAP
1800
0C00
0600
0300
0180
0000
0000
0000
0F80
38E0
0020
0030
0010
0010
1FF0
7030
C010
8010
8010
8030
C0F0
7F9E
ENDCHAR
STARTCHAR aacute
ENCODING 225
SWIDTH 600 0
DWIDTH 20 0
BBX 15 22 2 0
BITMAP
0060
00C0
0180
0300
0600
0000
0000
0000
0F80
38E0
0020
0030
0010
0010
1FF0
7030
C010
8010
8010
8030
C0F0
7F9E
ENDCHAR
STARTCHAR acircumflex
ENCODING 226
SWIDTH 600 0
DWIDTH 20 0
BBX 15 22 2 0
BITMAP
0100
0380
06C0
0C60
1830
0000
0000
0000
0F80
38E0
0020
0030
0010
0010
1FF0
7030
C010
8010
8010
8030
C0F0
7F9E
ENDCHAR
STARTCHAR atilde
ENCODING 227
SWIDTH 600 0
DWIDTH 20 0
BBX 15 20 2 0
BITMAP
0E10
1BB0
10E0
0000
0000
0000
0F80
38E0
0020
0030
0010
0010
1FF0
7030
C010
8010
8010
8030
C0F0
7F9E
ENDCHAR
STARTCHAR adieresis
ENCODING 228
SWIDTH 600 0
DWIDTH 20 0
BBX 15 20 2 0
BITMAP
30C0
79E0
30C0
0000
0000
0000
0F80
38E0
0020
0030
0010
0010
1FF0
7030
C010
8010
8010
8030
C0F0
7F9E
ENDCHAR
STARTCHAR aring
ENCODING 229
SWIDTH 600 0
DWIDTH 20 0
BBX 15 23 2 0
BITMAP
0700
0D80
0880
0880
0D80
0700
0000
0000
0000
0F80
38E0
0020
0030
0010
0010
1FF0
7030
C010
8010
8010
8030
C0F0
7F9E
ENDCHAR
STARTCHAR ae
ENCODING 230
SWIDTH 600 0
DWIDTH 20 0
BBX 19 14 0 0
BITMAP
1F0F80
7198C0
00F040
006060
006020
1E4020
73FFE0
C0C000
804000
806000
80E000
C15060
6358C0
3E4F80
ENDCHAR
STARTCHAR ccedilla
ENCODING 231
SWIDTH 600 0
DWIDTH 20 0
BBX 14 19 3 -5
BITMAP
0FC8
3868
6018
4018
C008
8008
8000
8000
8000
C000
4004
601C
3870
0FC0
0200
0200
0300
0980
0F00
ENDCHAR
STARTCHAR egrave
ENCODING 232
SWIDTH 600 0
DWIDTH 20 0
BBX 14 22 2 0
BITMAP
1800
0C00
0600
0300
0180
0000
0000
0000
0FC0
3870
6018
4008
C00C
8004
FFFC
8000
8000
8000
C000
600C
3838
0FE0
ENDCHAR
STARTCHAR eacute
ENCODING 233
SWIDTH 600 0
DWIDTH 20 0
BBX 14 22 2 0
BITMAP
0030
0060
00C0
0180
0300
0000
0000
0000
0FC0
3870
6018
4008
C00C
8004
FFFC
8000
8000
8000
C000
600C
3838
0FE0
ENDCHAR
STARTCHAR ecircumflex
ENCODING 234
SWIDTH 600 0
DWIDTH 20 0
BBX 14 22 2 0
BITMAP
0100
0380
06C0
0C60
1830
0000
0000
0000
0FC0
3870
6018
4008
C00C
8004
FFFC
8000
8000
8000
C000
600C
3838
0FE0
ENDCHAR
STARTCHAR edieresis
ENCODING 235
SWIDTH 600 0
DWIDTH 20 0
BBX 14 20 2 0
BITMAP
3060
78F0
3060
0000
0000
0000
0FC0
3870
6018
4008
C00C
8004
FFFC
8000
8000
8000
C000
600C
3838
0FE0
ENDCHAR
STARTCHAR igrave
ENCODING 236
SWIDTH 600 0
DWIDTH 20 0
BBX 13 22 3 0
BITMAP
3000
1800
0C00
0600
0300
0000
0000
0000
7E00
0200
0200
0200
0200
0200
0200
0200
0200
0200
0200
0200
0200
FFF8
ENDCHAR
STARTCHAR iacute
ENCODING 237
SWIDTH 600 0
DWIDTH 20 0
BBX 13 22 3 0
BITMAP
00C0
0180
0300
0600
0C00
0000
0000
0000
7E00
0200
0200
0200
0200
0200
0200
0200
0200
0200
0200
0200
0200
FFF8
ENDCHAR
STARTCHAR icircumflex
ENCODING 238
SWIDTH 600 0
DWIDTH 20 0
BBX 13 21 3 0
BITMAP
0400
0E00
1B00
3180
60C0
0000
0000
7E00
0200
0200
0200
0200
0200
0200
0200
0200
0200
0200
0200
0200
FFF8
ENDCHAR
STARTCHAR idieresis
ENCODING 239
SWIDTH 600 0
DWIDTH 20 0
BBX 13 20 3 0
BITMAP
6180
F3C0
6180
0000
0000
0000
7E00
0200
0200
0200
0200
0200
0200
0200
0200
0200
0200
0200
0200
FFF8
ENDCHAR
STARTCHAR eth
ENCODING 240
SWIDTH 600 0
DWIDTH 20 0
BBX 15 20 2 0
BITMAP
7C0C
4F38
01E0
03C0
0E60
3830
2018
000C
0FE4
3836
600E
C006
8002
8002
8002
C006
4004
600C
1838
0FE0
ENDCHAR
STARTCHAR ntilde
ENCODING 241
SWIDTH 600 0
DWIDTH 20 0
BBX 15 20 2 0
BITMAP
0E10
1BB0
10E0
0000
0000
0000
E3C0
2E70
3810
3018
2008
2008
2008
2008
2008
2008
2008
2008
2008
F83E
ENDCHAR
STARTCHAR ograve
ENCODING 242
SWIDTH 600 0
DWIDTH 20 0
BBX 15 22 2 0
BITMAP
0C00
0600
0300
0180
00C0
0000
0000
0000
0FE0
3838
600C
4004
C006
8002
8002
8002
8002
C006
4004
600C
3838
0FE0
ENDCHAR
STARTCHAR oacute
ENCODING 243
SWIDTH 600 0
DWIDTH 20 0
BBX 15 22 2 0
BITMAP
0030
0060
00C0
0180
0300
0000
0000
0000
0FE0
3838
600C
4004
C006
8002
8002
8002
8002
C006
4004
600C
3838
0FE0
ENDCHAR
STARTCHAR ocircumflex
ENCODING 244
SWIDTH 600 0
DWIDTH 20 0
BBX 15 22 2 0
BITMAP
0180
03C0
0660
0C30
1818
0000
0000
0000
0FE0
3838
600C
4004
C006
8002
8002
8002
8002
C006
4004
600C
3838
0FE0
ENDCHAR
STARTCHAR otilde
ENCODING 245
SWIDTH 600 0
DWIDTH 20 0
BBX 15 20 2 0
BITMAP
0E10
1BB0
10E0
0000
0000
0000
0FE0
3838
600C
4004
C006
8002
8002
8002
8002
C006
4004
600C
3838
0FE0
ENDCHAR
STARTCHAR odieresis
ENCODING 246
SWIDTH 600 0
DWIDTH 20 0
BBX 15 20 2 0
BITMAP
1860
3CF0
1860
0000
0000
0000
0FE0
3838
600C
4004
C006
8002
8002
8002
8002
C006
4004
600C
3838
0FE0
ENDCHAR
STARTCHAR divide
ENCODING 247
SWIDTH 600 0
DWIDTH 20 0
BBX 14 16 2 1
BITMAP
0300
0780
0300
0000
0000
0000
0000
0000
FFFC
0000
0000
0000
0000
0300
0780
0300
ENDCHAR
STARTCHAR oslash
ENCODING 248
SWIDTH 600 0
DWIDTH 20 0
BBX 15 16 2 -1
BITMAP
0002
07E6
1C3C
3018
4034
C066
80C2
8182
8302
8602
CC06
5804
7018
7870
CFC0
8000
ENDCHAR
STARTCHAR ugrave
ENCODING 249
SWIDTH 600 0
DWIDTH 20 0
BBX 16 22 1 0
BITMAP
0C00
0600
0300
0180
00C0
0000
0000
0000
F03C
1004
1004
1004
1004
1004
1004
1004
1004
1004
100C
181C
0C34
07E7
ENDCHAR
STARTCHAR uacute
ENCODING 250
SWIDTH 600 0
DWIDTH 20 0
BBX 16 22 1 0
BITMAP
0030
0060
00C0
0180
0300
0000
0000
0000
F03C
1004
1004
1004
1004
1004
1004
1004
1004
1004
100C
181C
0C34
07E7
ENDCHAR
STARTCHAR ucircumflex
ENCODING 251
SWIDTH 600 0
DWIDTH 20 0
BBX 16 21 1 0
BITMAP
0080
01C0
0360
0630
0C18
0000
0000
F03C
1004
1004
1004
1004
1004
1004
1004
1004
1004
100C
181C
0C34
07E7
ENDCHAR
STARTCHAR udieresis
ENCODING 252
SWIDTH 600 0
DWIDTH 20 0
BBX 16 20 1 0
BITMAP
1830
3C78
1830
0000
0000
0000
F03C
1004
1004
1004
1004
1004
1004
1004
1004
1004
100C
181C
0C34
07E7
ENDCHAR
STARTCHAR yacute
ENCODING 253
SWIDTH 600 0
DWIDTH 20 0
BBX 15 28 2 -6
BITMAP
0030
0060
00C0
0180
0300
0000
0000
0000
F83E
4004
600C
2008
3018
1010
1830
0820
0C60
0440
06C0
0280
0380
0100
0300
0200
0200
0600
0400
7F80
ENDCHAR
STARTCHAR thorn
ENCODING 254
SWIDTH 600 0
DWIDTH 20 0
BBX 17 27 0 -6
BITMAP
F00000
100000
100000
100000
100000
100000
100000
11F800
170E00
1C0300
180100
180180
100080
100080
100080
100080
180180
180100
1C0300
170E00
11F800
100000
100000
100000
100000
100000
FF0000
ENDCHAR
STARTCHAR ydieresis
ENCODING 255
SWIDTH 600 0
DWIDTH 20 0
BBX 15 25 2 -6
BITMAP
1818
3C3C
1818
0000
0000
F83E
4004
600C
2008
3018
1010
1830
0820
0C60
0440
06C0
0280
0380
0100
0300
0200
0200
0600
0400
7F80
ENDCHAR
STARTCHAR Amacron
ENCODING 256
SWIDTH 600 0
DWIDTH 20 0
BBX 19 22 0 0
BITMAP
0FF800
0FF800
000000
1FE000
00A000
00A000
011000
011000
011000
020800
020800
020800
040400
040400
040400
0FFE00
080200
080200
100100
100100
300180
FE0FE0
ENDCHAR
STARTCHAR amacron
ENCODING 257
SWIDTH 600 0
DWIDTH 20 0
BBX 15 17 2 0
BITMAP
1FF0
1FF0
0000
0F80
38E0
0020
0030
0010
0010
1FF0
7030
C010
8010
8010
8030
C0F0
7F9E
ENDCHAR
STARTCHAR Abreve
ENCODING 258
SWIDTH 600 0
DWIDTH 20 0
BBX 19 25 0 0
BITMAP
080800
0C1800
041000
077000
01C000
000000
1FE000
00A000
00A000
011000
011000
011000
020800
020800
020800
040400
040400
040400
0FFE00
080200
080200
100100
100100
300180
FE0FE0
ENDCHAR
STARTCHAR abreve
ENCODING 259
SWIDTH 600 0
DWIDTH 20 0
BBX 15 20 2 0
BITMAP
1010
1830
0820
0EE0
0380
0000
0F80
38E0
0020
0030
0010
0010
1FF0
7030
C010
8010
8010
8030
C0F0
7F9E
ENDCHAR
STARTCHAR Aogonek
ENCODING 260
SWIDTH 600 0
DWIDTH 20 0
BBX 19 24 0 -5
BITMAP
1FE000
00A000
00A000
011000
011000
011000
020800
020800
020800
040400
040400
040400
0FFE00
080200
080200
100100
100100
300180
FE6FE0
00C000
008000
008000
00D800
007000
ENDCHAR
STARTCHAR aogonek
ENCODING 261
SWIDTH 600 0
DWIDTH 20 0
BBX 15 19 2 -5
BITMAP
0F80
38E0
0020
0030
0010
0010
1FF0
7030
C010
8010
8010
8030
C0F0
7F9E
0300
0200
0200
0360
01C0
ENDCHAR
STARTCHAR Cacute
ENCODING 262
SWIDTH 600 0
DWIDTH 20 0
BBX 14 25 2 0
BITMAP
0030
0060
00C0
0180
0300
0000
07C4
1C74
200C
6004
4004
C004
8000
8000
8000
8000
8000
8000
8000
C000
4000
6004
201C
1C70
07C0
ENDCHAR
STARTCHAR cacute
ENCODING 263
SWIDTH 600 0
DWIDTH 20 0
BBX 14 20 3 0
BITMAP
0060
00C0
0180
0300
0600
0000
0F88
38F8
6018
4008
C008
8000
8000
8000
8000
C000
400C
6018
38E0
0F80
ENDCHAR
STARTCHAR Ccircumflex
ENCODING 264
SWIDTH 600 0
DWIDTH 20 0
BBX 14 25 2 0
BITMAP
0100
0380
06C0
0C60
1830
0000
07C4
1C74
200C
6004
4004
C004
8000
8000
8000
8000
8000
8000
8000
C000
4000
6004
201C
1C70
07C0
ENDCHAR
STARTCHAR ccircumflex
ENCODING 265
SWIDTH 600 0
DWIDTH 20 0
BBX 14 20 3 0
BITMAP
0100
0380
06C0
0C60
1830
0000
0F88
38F8
6018
4008
C008
8000
8000
8000
8000
C000
400C
6018
38E0
0F80
ENDCHAR
STARTCHAR Cdotaccent
ENCODING 266
SWIDTH 600 0
DWIDTH 20 0
BBX 14 23 2 0
BITMAP
0180
03C0
0180
0000
07C4
1C74
200C
6004
4004
C004
8000
8000
8000
8000
8000
8000
8000
C000
4000
6004
201C
1C70
07C0
ENDCHAR
STARTCHAR cdotaccent
ENCODING 267
SWIDTH 600 0
DWIDTH 20 0
BBX 14 18 3 0
BITMAP
0300
0780
0300
0000
0F88
38F8
6018
4008
C008
8000
8000
8000
8000
C000
400C
6018
38E0
0F80
ENDCHAR
STARTCHAR Ccaron
ENCODING 268
SWIDTH 600 0
DWIDTH 20 0
BBX 14 25 2 0
BITMAP
1830
0C60
06C0
0380
0100
0000
07C4
1C74
200C
6004
4004
C004
8000
8000
8000
8000
8000
8000
8000
C000
4000
6004
201C
1C70
07C0
ENDCHAR
STARTCHAR ccaron
ENCODING 269
SWIDTH 600 0
DWIDTH 20 0
BBX 14 20 3 0
BITMAP
1830
0C60
06C0
0380
0100
0000
0F88
38F8
6018
4008
C008
8000
8000
8000
8000
C000
400C
6018
38E0
0F80
ENDCHAR
STARTCHAR Dcaron
ENCODING 270
SWIDTH 600 0
DWIDTH 20 0
BBX 15 25 1 0
BITMAP
1830
0C60
06C0
0380
0100
0000
FFC0
2070
2018
200C
2004
2006
2002
2002
2002
2002
2002
2002
2002
2006
2004
200C
2018
2070
FFC0
ENDCHAR
STARTCHAR dcaron
ENCODING 271
SWIDTH 600 0
DWIDTH 20 0
BBX 17 26 2 0
BITMAP
018300
00C600
006C00
003800
001000
000000
003C00
000400
000400
000400
000400
000400
0FC400
387400
601400
400C00
C00C00
800400
800400
800400
800400
C00C00
400C00
601400
387400
0FC780
ENDCHAR
STARTCHAR Dcroat
ENCODING 272
SWIDTH 600 0
DWIDTH 20 0
BBX 15 19 1 0
BITMAP
FFC0
2070
2018
200C
2004
2006
2002
2002
2002
FE02
2002
2002
2002
2006
2004
200C
2018
2070
FFC0
ENDCHAR
STARTCHAR dcroat
ENCODING 273
SWIDTH 600 0
DWIDTH 20 0
BBX 19 20 2 0
BITMAP
003C00
000400
000400
000400
00FFE0
000400
0FC400
387400
601400
400C00
C00C00
800400
800400
800400
800400
C00C00
400C00
601400
387400
0FC780
ENDCHAR
STARTCHAR Emacron
ENCODING 274
SWIDTH 600 0
DWIDTH 20 0
BBX 15 22 1 0
BITMAP
1FF0
1FF0
0000
FFFC
1004
1004
1004
1004
1044
1040
1040
1FC0
1040
1040
1040
1000
1002
1002
1002
1002
1002
FFFE
ENDCHAR
STARTCHAR emacron
ENCODING 275
SWIDTH 600 0
DWIDTH 20 0
BBX 14 17 2 0
BITMAP
1FF0
1FF0
0000
0FC0
3870
6018
4008
C00C
8004
FFFC
8000
8000
C000
4000
600C
3838
0FE0
ENDCHAR
STARTCHAR Ebreve
ENCODING 276
SWIDTH 600 0
DWIDTH 20 0
BBX 15 25 1 0
BITMAP
1010
1830
0820
0EE0
0380
0000
FFFC
1004
1004
1004
1004
1044
1040
1040
1FC0
1040
1040
1040
1000
1002
1002
1002
1002
1002
FFFE
ENDCHAR
STARTCHAR ebreve
ENCODING 277
SWIDTH 600 0
DWIDTH 20 0
BBX 14 20 2 0
BITMAP
1010
1830
0820
0EE0
0380
0000
0FC0
3870
6018
4008
C00C
8004
FFFC
8000
8000
C000
4000
600C
3838
0FE0
ENDCHAR
STARTCHAR Edotaccent
ENCODING 278
SWIDTH 600 0
DWIDTH 20 0
BBX 15 23 1 0
BITMAP
0180
03C0
0180
0000
FFFC
1004
1004
1004
1004
1044
1040
1040
1FC0
1040
1040
1040
1000
1002
1002
1002
1002
1002
FFFE
ENDCHAR
STARTCHAR edotaccent
ENCODING 279
SWIDTH 600 0
DWIDTH 20 0
BBX 14 18 2 0
BITMAP
0300
0780
0300
0000
0FC0
3870
6018
4008
C00C
8004
FFFC
8000
8000
C000
4000
600C
3838
0FE0
ENDCHAR
STARTCHAR Eogonek
ENCODING 280
SWIDTH 600 0
DWIDTH 20 0
BBX 15 24 1 -5
BITMAP
FFFC
1004
1004
1004
1004
1044
1040
1040
1FC0
1040
1040
1040
1000
1002
1002
1002
1002
1002
FFFE
0300
0200
0200
0360
01C0
ENDCHAR
STARTCHAR eogonek
ENCODING 281
SWIDTH 600 0
DWIDTH 20 0
BBX 14 19 2 -5
BITMAP
0FC0
3870
6018
4008
C00C
8004
FFFC
8000
8000
C000
4000
600C
3838
0FE0
0600
0400
0400
06C0
0380
ENDCHAR
STARTCHAR Ecaron
ENCODING 282
SWIDTH 600 0
DWIDTH 20 0
BBX 15 25 1 0
BITMAP
1830
0C60
06C0
0380
0100
0000
FFFC
1004
1004
1004
1004
1044
1040
1040
1FC0
1040
1040
1040
1000
1002
1002
1002
1002
1002
FFFE
ENDCHAR
STARTCHAR ecaron
ENCODING 283
SWIDTH 600 0
DWIDTH 20 0
BBX 14 20 2 0
BITMAP
1830
0C60
06C0
0380
0100
0000
0FC0
3870
6018
4008
C00C
8004
FFFC
8000
8000
C000
4000
600C
3838
0FE0
ENDCHAR
STARTCHAR Gcircumflex
ENCODING 284
SWIDTH 600 0
DWIDTH 20 0
BBX 15 25 2 0
BITMAP
0100
0380
06C0
0C60
1830
0000
07C4
1C74
300C
6004
4004
C004
8000
8000
8000
8000
8000
80FE
8004
C004
4004
6004
3004
1C1C
07F0
ENDCHAR
STARTCHAR gcircumflex
ENCODING 285
SWIDTH 600 0
DWIDTH 20 0
BBX 17 26 2 -6
BITMAP
008000
01C000
036000
063000
0C1800
000000
0FC780
387400
601400
400C00
C00C00
800400
800400
800400
800400
C00C00
400C00
601400
387400
0FC400
000400
000400
000C00
000800
003800
0FE000
ENDCHAR
STARTCHAR Gbreve
ENCODING 286
SWIDTH 600 0
DWIDTH 20 0
BBX 15 25 2 0
BITMAP
1010
1830
0820
0EE0
0380
0000
07C4
1C74
300C
6004
4004
C004
8000
8000
8000
8000
8000
80FE
8004
C004
4004
6004
3004
1C1C
07F0
ENDCHAR
STARTCHAR gbreve
ENCODING 287
SWIDTH 600 0
DWIDTH 20 0
BBX 17 26 2 -6
BITMAP
080800
0C1800
041000
077000
01C000
000000
0FC780
387400
601400
400C00
C00C00
800400
800400
800400
800400
C00C00
400C00
601400
387400
0FC400
000400
000400
000C00
000800
003800
0FE000
ENDCHAR
STARTCHAR Gdotaccent
ENCODING 288
SWIDTH 600 0
DWIDTH 20 0
BBX 15 23 2 0
BITMAP
0180
03C0
0180
0000
07C4
1C74
300C
6004
4004
C004
8000
8000
8000
8000
8000
80FE
8004
C004
4004
6004
3004
1C1C
07F0
ENDCHAR
STARTCHAR gdotaccent
ENCODING 289
SWIDTH 600 0
DWIDTH 20 0
BBX 17 24 2 -6
BITMAP
00C000
01E000
00C000
000000
0FC780
387400
601400
400C00
C00C00
800400
800400
800400
800400
C00C00
400C00
601400
387400
0FC400
000400
000400
000C00
000800
003800
0FE000
ENDCHAR
STARTCHAR Gcommaaccent
ENCODING 290
SWIDTH 600 0
DWIDTH 20 0
BBX 15 29 2 -10
BITMAP
07C4
1C74
300C
6004
4004
C004
8000
8000
8000
8000
8000
80FE
8004
C004
4004
6004
3004
1C1C
07F0
0000
03C0
03C0
0780
0780
0600
0E00
0C00
0C00
0800
ENDCHAR
STARTCHAR gcommaaccent
ENCODING 291
SWIDTH 600 0
DWIDTH 20 0
BBX 17 30 2 -6
BITMAP
1E0000
1E0000
0F0000
0F0000
078000
018000
01C000
00C000
004000
000000
0FC780
387400
601400
400C00
C00C00
800400
800400
800400
800400
C00C00
400C00
601400
387400
0FC400
000400
000400
000C00
000800
003800
0FE000
ENDCHAR
STARTCHAR Hcircumflex
ENCODING 292
SWIDTH 600 0
DWIDTH 20 0
BBX 15 25 2 0
BITMAP
0100
0380
06C0
0C60
1830
0000
FC7E
2008
2008
2008
2008
2008
2008
2008
2008
3FF8
2008
2008
2008
2008
2008
2008
2008
2008
FC7E
ENDCHAR
STARTCHAR hcircumflex
ENCODING 293
SWIDTH 600 0
DWIDTH 20 0
BBX 16 26 1 0
BITMAP
0800
1C00
3600
6300
C180
0000
F000
1000
1000
1000
1000
1000
11E0
1738
1408
180C
1804
1004
1004
1004
1004
1004
1004
1004
1004
7C1F
ENDCHAR
STARTCHAR Hbar
ENCODING 294
SWIDTH 600 0
DWIDTH 20 0
BBX 15 19 2 0
BITMAP
FC7E
2008
2008
2008
FFFE
2008
2008
2008
2008
3FF8
2008
2008
2008
2008
2008
2008
2008
2008
FC7E
ENDCHAR
STARTCHAR hbar
ENCODING 295
SWIDTH 600 0
DWIDTH 20 0
BBX 17 20 0 0
BITMAP
780000
080000
080000
080000
FFE000
080000
08F000
0B9C00
0A0400
0C0600
0C0200
080200
080200
080200
080200
080200
080200
080200
080200
3E0F80
ENDCHAR
STARTCHAR Itilde
ENCODING 296
SWIDTH 600 0
DWIDTH 20 0
BBX 11 23 4 0
BITMAP
3840
6EC0
4380
0000
FFE0
0400
0400
0400
0400
0400
0400
0400
0400
0400
0400
0400
0400
0400
0400
0400
0400
0400
FFE0
ENDCHAR
STARTCHAR itilde
ENCODING 297
SWIDTH 600 0
DWIDTH 20 0
BBX 13 18 3 0
BITMAP
3840
6EC0
4380
0000
7E00
0200
0200
0200
0200
0200
0200
0200
0200
0200
0200
0200
0200
FFF8
ENDCHAR
STARTCHAR Imacron
ENCODING 298
SWIDTH 600 0
DWIDTH 20 0
BBX 11 22 4 0
BITMAP
7FC0
7FC0
0000
FFE0
0400
0400
0400
0400
0400
0400
0400
0400
0400
0400
0400
0400
0400
0400
0400
0400
0400
FFE0
ENDCHAR
STARTCHAR imacron
ENCODING 299
SWIDTH 600 0
DWIDTH 20 0
BBX 13 17 3 0
BITMAP
7FC0
7FC0
0000
7E00
0200
0200
0200
0200
0200
0200
0200
0200
0200
0200
0200
0200
FFF8
ENDCHAR
STARTCHAR Ibreve
ENCODING 300
SWIDTH 600 0
DWIDTH 20 0
BBX 11 25 4 0
BITMAP
4040
60C0
2080
3B80
0E00
0000
FFE0
0400
0400
0400
0400
0400
0400
0400
0400
0400
0400
0400
0400
0400
0400
0400
0400
0400
FFE0
ENDCHAR
STARTCHAR ibreve
ENCODING 301
SWIDTH 600 0
DWIDTH 20 0
BBX 13 20 3 0
BITMAP
4040
60C0
2080
3B80
0E00
0000
7E00
0200
0200
0200
0200
0200
0200
0200
0200
0200
0200
0200
0200
FFF8
ENDCHAR
STARTCHAR Iogonek
ENCODING 302
SWIDTH 600 0
DWIDTH 20 0
BBX 11 24 4 -5
BITMAP
FFE0
0400
0400
0400
0400
0400
0400
0400
0400
0400
0400
0400
0400
0400
0400
0400
0400
0400
FFE0
0C00
0800
0800
0D80
0700
ENDCHAR
STARTCHAR iogonek
ENCODING 303
SWIDTH 600 0
DWIDTH 20 0
BBX 13 25 3 -5
BITMAP
0600
0600
0600
0000
0000
0000
7E00
0200
0200
0200
0200
0200
0200
0200
0200
0200
0200
0200
0200
FFF8
0600
0400
0400
06C0
0380
ENDCHAR
STARTCHAR Idotaccent
ENCODING 304
SWIDTH 600 0
DWIDTH 20 0
BBX 11 23 4 0
BITMAP
0600
0F00
0600
0000
FFE0
0400
0400
0400
0400
0400
0400
0400
0400
0400
0400
0400
0400
0400
0400
0400
0400
0400
FFE0
ENDCHAR
STARTCHAR dotlessi
ENCODING 305
SWIDTH 600 0
DWIDTH 20 0
BBX 13 14 3 0
BITMAP
7E00
0200
0200
0200
0200
0200
0200
0200
0200
0200
0200
0200
0200
FFF8
ENDCHAR
STARTCHAR IJ
ENCODING 306
SWIDTH 600 0
DWIDTH 20 0
BBX 17 19 4 0
BITMAP
FFFF80
040800
040800
040800
040800
040800
040800
040800
040800
040800
040800
240800
240800
240800
240800
341800
141000
1C7000
FFE000
ENDCHAR
STARTCHAR ij
ENCODING 307
SWIDTH 600 0
DWIDTH 20 0
BBX 16 26 3 -6
BITMAP
0606
0606
0606
0000
0000
0000
7FFF
0201
0201
0201
0201
0201
0201
0201
0201
0201
0201
0201
0201
FFF9
0001
0001
0003
0002
000E
03F8
ENDCHAR
STARTCHAR Jcircumflex
ENCODING 308
SWIDTH 600 0
DWIDTH 20 0
BBX 15 25 3 0
BITMAP
0040
00E0
01B0
0318
060C
0000
0FFE
0020
0020
0020
0020
0020
0020
0020
0020
0020
0020
8020
8020
8020
8020
C060
4040
61C0
1F00
ENDCHAR
STARTCHAR jcircumflex
ENCODING 309
SWIDTH 600 0
DWIDTH 20 0
BBX 11 26 4 -6
BITMAP
0200
0700
0D80
18C0
3060
0000
FFC0
0040
0040
0040
0040
0040
0040
0040
0040
0040
0040
0040
0040
0040
0040
0040
00C0
0080
0380
FE00
ENDCHAR
STARTCHAR Kcommaaccent
ENCODING 310
SWIDTH 600 0
DWIDTH 20 0
BBX 17 29 1 -10
BITMAP
FE1F80
100400
100C00
100800
101000
103000
104000
10C000
138000
1CC000
102000
103000
101000
101800
100800
100800
100C00
100400
FE0780
000000
01E000
01E000
03C000
03C000
030000
070000
060000
060000
040000
ENDCHAR
STARTCHAR kcommaaccent
ENCODING 311
SWIDTH 600 0
DWIDTH 20 0
BBX 15 30 2 -10
BITMAP
F000
1000
1000
1000
1000
1000
10FC
1030
1060
10C0
1180
1300
1E00
1300
1180
10C0
1060
1030
1018
F03E
0000
03C0
03C0
0780
0780
0600
0E00
0C00
0C00
0800
ENDCHAR
STARTCHAR kgreenlandic
ENCODING 312
SWIDTH 600 0
DWIDTH 20 0
BBX 15 14 2 0
BITMAP
10FC
1030
1060
10C0
1180
1300
1E00
1300
1180
10C0
1060
1030
1018
F03E
ENDCHAR
STARTCHAR Lacute
ENCODING 313
SWIDTH 600 0
DWIDTH 20 0
BBX 15 25 2 0
BITMAP
00C0
0180
0300
0600
0C00
0000
FF80
0800
0800
0800
0800
0800
0800
0800
0800
0800
0800
0800
0802
0802
0802
0802
0802
0802
FFFE
ENDCHAR
STARTCHAR lacute
ENCODING 314
SWIDTH 600 0
DWIDTH 20 0
BBX 13 26 3 0
BITMAP
00C0
0180
0300
0600
0C00
0000
7E00
0200
0200
0200
0200
0200
0200
0200
0200
0200
0200
0200
0200
0200
0200
0200
0200
0200
0200
FFF8
ENDCHAR
STARTCHAR Lcommaaccent
ENCODING 315
SWIDTH 600 0
DWIDTH 20 0
BBX 15 29 2 -10
BITMAP
FF80
0800
0800
0800
0800
0800
0800
0800
0800
0800
0800
0800
0802
0802
0802
0802
0802
0802
FFFE
0000
01E0
01E0
03C0
03C0
0300
0700
0600
0600
0400
ENDCHAR
STARTCHAR lcommaaccent
ENCODING 316
SWIDTH 600 0
DWIDTH 20 0
BBX 13 30 3 -10
BITMAP
7E00
0200
0200
0200
0200
0200
0200
0200
0200
0200
0200
0200
0200
0200
0200
0200
0200
0200
0200
FFF8
0000
0780
0780
0F00
0F00
0C00
1C00
1800
1800
1000
ENDCHAR
STARTCHAR Lcaron
ENCODING 317
SWIDTH 600 0
DWIDTH 20 0
BBX 15 25 2 0
BITMAP
60C0
3180
1B00
0E00
0400
0000
FF80
0800
0800
0800
0800
0800
0800
0800
0800
0800
0800
0800
0802
0802
0802
0802
0802
0802
FFFE
ENDCHAR
STARTCHAR lcaron
ENCODING 318
SWIDTH 600 0
DWIDTH 20 0
BBX 13 26 3 0
BITMAP
60C0
3180
1B00
0E00
0400
0000
7E00
0200
0200
0200
0200
0200
0200
0200
0200
0200
0200
0200
0200
0200
0200
0200
0200
0200
0200
FFF8
ENDCHAR
STARTCHAR Ldot
ENCODING 319
SWIDTH 600 0
DWIDTH 20 0
BBX 15 19 2 0
BITMAP
FF80
0800
0800
0800
0800
0800
0800
0800
08E0
09F0
09F0
08E0
0802
0802
0802
0802
0802
0802
FFFE
ENDCHAR
STARTCHAR ldot
ENCODING 320
SWIDTH 600 0
DWIDTH 20 0
BBX 16 20 3 0
BITMAP
7E00
0200
0200
0200
0200
0200
0200
0200
0200
020E
021F
021F
020E
0200
0200
0200
0200
0200
0200
FFF8
ENDCHAR
STARTCHAR Lslash
ENCODING 321
SWIDTH 600 0
DWIDTH 20 0
BBX 16 19 1 0
BITMAP
7FC0
0400
0400
0400
0400
0400
0460
05C0
0700
0E00
1C00
7400
C401
0401
0401
0401
0401
0401
7FFF
ENDCHAR
STARTCHAR lslash
ENCODING 322
SWIDTH 600 0
DWIDTH 20 0
BBX 13 21 3 0
BITMAP
7E00
0200
0200
0200
0200
0200
0200
0220
02E0
0380
0700
0E00
3A00
2200
0200
0200
0200
0200
0200
0200
FFF8
ENDCHAR
STARTCHAR Nacute
ENCODING 323
SWIDTH 600 0
DWIDTH 20 0
BBX 18 25 0 0
BITMAP
001800
003000
006000
00C000
018000
000000
F81FC0
1C0100
140100
120100
120100
110100
108100
108100
104100
104100
102100
102100
101100
101100
100900
100900
100500
100700
7F0300
ENDCHAR
STARTCHAR nacute
ENCODING 324
SWIDTH 600 0
DWIDTH 20 0
BBX 15 20 2 0
BITMAP
0060
00C0
0180
0300
0600
0000
E3C0
2E70
2810
3018
3008
2008
2008
2008
2008
2008
2008
2008
2008
F83E
ENDCHAR
STARTCHAR Ncommaaccent
ENCODING 325
SWIDTH 600 0
DWIDTH 20 0
BBX 18 29 0 -10
BITMAP
F81FC0
1C0100
140100
120100
120100
110100
108100
108100
104100
104100
102100
102100
101100
101100
100900
100900
100500
100700
7F0300
000000
00F000
00F000
01E000
01E000
018000
038000
030000
030000
020000
ENDCHAR
STARTCHAR ncommaaccent
ENCODING 326
SWIDTH 600 0
DWIDTH 20 0
BBX 15 24 2 -10
BITMAP
E3C0
2E70
2810
3018
3008
2008
2008
2008
2008
2008
2008
2008
2008
F83E
0000
03C0
03C0
0780
0780
0600
0E00
0C00
0C00
0800
ENDCHAR
STARTCHAR Ncaron
ENCODING 327
SWIDTH 600 0
DWIDTH 20 0
BBX 18 25 0 0
BITMAP
0C1800
063000
036000
01C000
008000
000000
F81FC0
1C0100
140100
120100
120100
110100
108100
108100
104100
104100
102100
102100
101100
101100
100900
100900
100500
100700
7F0300
ENDCHAR
STARTCHAR ncaron
ENCODING 328
SWIDTH 600 0
DWIDTH 20 0
BBX 15 20 2 0
BITMAP
3060
18C0
0D80
0700
0200
0000
E3C0
2E70
2810
3018
3008
2008
2008
2008
2008
2008
2008
2008
2008
F83E
ENDCHAR
STARTCHAR napostrophe
ENCODING 329
SWIDTH 600 0
DWIDTH 20 0
BBX 19 21 -2 0
BITMAP
3C0000
3C0000
780000
700000
700000
E00000
C00000
CE3C00
82E700
028100
030180
030080
020080
020080
020080
020080
020080
020080
020080
020080
0F83E0
ENDCHAR
STARTCHAR Eng
ENCODING 330
SWIDTH 600 0
DWIDTH 20 0
BBX 18 25 0 -6
BITMAP
F81FC0
1C0100
140100
120100
120100
110100
108100
108100
104100
104100
102100
102100
101100
101100
100900
100900
100500
100700
7F0300
000100
000100
000300
000200
000E00
03F800
ENDCHAR
STARTCHAR eng
ENCODING 331
SWIDTH 600 0
DWIDTH 20 0
BBX 13 20 2 -6
BITMAP
E3C0
2E70
2810
3018
3008
2008
2008
2008
2008
2008
2008
2008
2008
F808
0008
0008
0018
0010
0070
1FC0
ENDCHAR
STARTCHAR Omacron
ENCODING 332
SWIDTH 600 0
DWIDTH 20 0
BBX 15 22 2 0
BITMAP
1FF0
1FF0
0000
07C0
1830
3018
600C
4004
C006
8002
8002
8002
8002
8002
8002
8002
C006
4004
600C
3018
1830
07C0
ENDCHAR
STARTCHAR omacron
ENCODING 333
SWIDTH 600 0
DWIDTH 20 0
BBX 15 17 2 0
BITMAP
1FF0
1FF0
0000
0FE0
3838
600C
4004
C006
8002
8002
8002
8002
C006
4004
600C
3838
0FE0
ENDCHAR
STARTCHAR Obreve
ENCODING 334
SWIDTH 600 0
DWIDTH 20 0
BBX 15 25 2 0
BITMAP
1010
1830
0820
0EE0
0380
0000
07C0
1830
3018
600C
4004
C006
8002
8002
8002
8002
8002
8002
8002
C006
4004
600C
3018
1830
07C0
ENDCHAR
STARTCHAR obreve
ENCODING 335
SWIDTH 600 0
DWIDTH 20 0
BBX 15 20 2 0
BITMAP
1010
1830
0820
0EE0
0380
0000
0FE0
3838
600C
4004
C006
8002
8002
8002
8002
C006
4004
600C
3838
0FE0
ENDCHAR
STARTCHAR Ohungarumlaut
ENCODING 336
SWIDTH 600 0
DWIDTH 20 0
BBX 15 25 2 0
BITMAP
0108
0318
0630
0C60
0840
0000
07C0
1830
3018
600C
4004
C006
8002
8002
8002
8002
8002
8002
8002
C006
4004
600C
3018
1830
07C0
ENDCHAR
STARTCHAR ohungarumlaut
ENCODING 337
SWIDTH 600 0
DWIDTH 20 0
BBX 15 20 2 0
BITMAP
0108
0318
0630
0C60
0840
0000
0FE0
3838
600C
4004
C006
8002
8002
8002
8002
C006
4004
600C
3838
0FE0
ENDCHAR
STARTCHAR OE
ENCODING 338
SWIDTH 600 0
DWIDTH 20 0
BBX 19 19 0 0
BITMAP
03FFC0
0E2040
382040
202040
602040
402040
C02000
802200
802200
803E00
802200
802200
C02000
402000
602020
202020
302020
1C2020
07FFE0
ENDCHAR
STARTCHAR oe
ENCODING 339
SWIDTH 600 0
DWIDTH 20 0
BBX 18 14 0 0
BITMAP
1E0E00
331B00
61B180
40A080
C0E0C0
804040
807FC0
804000
806000
C0E000
40A000
61B0C0
331980
1E0F00
ENDCHAR
STARTCHAR Racute
ENCODING 340
SWIDTH 600 0
DWIDTH 20 0
BBX 18 25 1 0
BITMAP
003000
006000
00C000
018000
030000
000000
FFE000
103800
100400
100600
100200
100200
100600
100400
101800
1FE000
106000
103000
101800
100C00
100400
100600
100200
100300
FE01C0
ENDCHAR
STARTCHAR racute
ENCODING 341
SWIDTH 600 0
DWIDTH 20 0
BBX 15 20 3 0
BITMAP
0030
0060
00C0
0180
0300
0000
787C
09C6
0B00
0C00
0C00
0800
0800
0800
0800
0800
0800
0800
0800
FFF0
ENDCHAR
STARTCHAR Rcommaaccent
ENCODING 342
SWIDTH 600 0
DWIDTH 20 0
BBX 18 29 1 -10
BITMAP
FFE000
103800
100400
100600
100200
100200
100600
100400
101800
1FE000
106000
103000
101800
100C00
100400
100600
100200
100300
FE01C0
000000
01E000
01E000
03C000
03C000
030000
070000
060000
060000
040000
ENDCHAR
STARTCHAR rcommaaccent
ENCODING 343
SWIDTH 600 0
DWIDTH 20 0
BBX 15 24 3 -10
BITMAP
787C
09C6
0B00
0C00
0C00
0800
0800
0800
0800
0800
0800
0800
0800
FFF0
0000
0780
0780
0F00
0F00
0C00
1C00
1800
1800
1000
ENDCHAR
STARTCHAR Rcaron
ENCODING 344
SWIDTH 600 0
DWIDTH 20 0
BBX 18 25 1 0
BITMAP
0C1800
063000
036000
01C000
008000
000000
FFE000
103800
100400
100600
100200
100200
100600
100400
101800
1FE000
106000
103000
101800
100C00
100400
100600
100200
100300
FE01C0
ENDCHAR
STARTCHAR rcaron
ENCODING 345
SWIDTH 600 0
DWIDTH 20 0
BBX 15 20 3 0
BITMAP
1830
0C60
06C0
0380
0100
0000
787C
09C6
0B00
0C00
0C00
0800
0800
0800
0800
0800
0800
0800
0800
FFF0
ENDCHAR
STARTCHAR Sacute
ENCODING 346
SWIDTH 600 0
DWIDTH 20 0
BBX 12 25 3 0
BITMAP
0060
00C0
0180
0300
0600
0000
0F90
38D0
6030
4030
4010
4010
4000
6000
3800
0F00
01C0
0060
0030
8010
8010
C010
E030
B8E0
8F80
ENDCHAR
STARTCHAR sacute
ENCODING 347
SWIDTH 600 0
DWIDTH 20 0
BBX 13 20 3 0
BITMAP
0060
00C0
0180
0300
0600
0000
0F90
38F0
6030
4010
6000
3800
0F80
00E0
0030
8018
8018
C030
F8E0
8F80
ENDCHAR
STARTCHAR Scircumflex
ENCODING 348
SWIDTH 600 0
DWIDTH 20 0
BBX 12 25 3 0
BITMAP
0200
0700
0D80
18C0
3060
0000
0F90
38D0
6030
4030
4010
4010
4000
6000
3800
0F00
01C0
0060
0030
8010
8010
C010
E030
B8E0
8F80
ENDCHAR
STARTCHAR scircumflex
ENCODING 349
SWIDTH 600 0
DWIDTH 20 0
BBX 13 20 3 0
BITMAP
0200
0700
0D80
18C0
3060
0000
0F90
38F0
6030
4010
6000
3800
0F80
00E0
0030
8018
8018
C030
F8E0
8F80
ENDCHAR
STARTCHAR Scedilla
ENCODING 350
SWIDTH 600 0
DWIDTH 20 0
BBX 12 24 3 -5
BITMAP
0F90
38D0
6030
4030
4010
4010
4000
6000
3800
0F00
01C0
0060
0030
8010
8010
C010
E030
B8E0
8F80
0400
0400
0600
1300
1E00
ENDCHAR
STARTCHAR scedilla
ENCODING 351
SWIDTH 600 0
DWIDTH 20 0
BBX 13 19 3 -5
BITMAP
0F90
38F0
6030
4010
6000
3800
0F80
00E0
0030
8018
8018
C030
F8E0
8F80
0200
0200
0300
0980
0F00
ENDCHAR
STARTCHAR Scaron
ENCODING 352
SWIDTH 600 0
DWIDTH 20 0
BBX 12 26 3 0
BITMAP
3060
18C0
0D80
0700
0200
0000
0000
0F90
38D0
6030
4030
4010
4010
4000
6000
3800
0F00
01C0
0060
0030
8010
8010
C010
E030
B8E0
8F80
ENDCHAR
STARTCHAR scaron
ENCODING 353
SWIDTH 600 0
DWIDTH 20 0
BBX 13 21 3 0
BITMAP
3060
18C0
0D80
0700
0200
0000
0000
0F90
38F0
6030
4010
6000
3800
0F80
00E0
0030
8018
8018
C030
F8E0
8F80
ENDCHAR
STARTCHAR Tcommaaccent
ENCODING 354
SWIDTH 600 0
DWIDTH 20 0
BBX 15 24 2 -5
BITMAP
FFFE
8102
8102
8102
8102
8102
8102
0100
0100
0100
0100
0100
0100
0100
0100
0100
0100
0100
3FF8
0100
0100
0180
04C0
0780
ENDCHAR
STARTCHAR tcommaaccent
ENCODING 355
SWIDTH 600 0
DWIDTH 20 0
BBX 14 24 2 -5
BITMAP
1000
1000
1000
1000
1000
FFF0
1000
1000
1000
1000
1000
1000
1000
1000
1000
1000
180C
0C38
07E0
0100
0100
0180
04C0
0780
ENDCHAR
STARTCHAR Tcaron
ENCODING 356
SWIDTH 600 0
DWIDTH 20 0
BBX 15 25 2 0
BITMAP
1830
0C60
06C0
0380
0100
0000
FFFE
8102
8102
8102
8102
8102
8102
0100
0100
0100
0100
0100
0100
0100
0100
0100
0100
0100
3FF8
ENDCHAR
STARTCHAR tcaron
ENCODING 357
SWIDTH 600 0
DWIDTH 20 0
BBX 14 25 2 0
BITMAP
C180
6300
3600
1C00
0800
0000
1000
1000
1000
1000
1000
FFF0
1000
1000
1000
1000
1000
1000
1000
1000
1000
1000
180C
0C38
07E0
ENDCHAR
STARTCHAR Tbar
ENCODING 358
SWIDTH 600 0
DWIDTH 20 0
BBX 15 19 2 0
BITMAP
FFFE
8102
8102
8102
8102
8102
8102
0100
0100
3FF8
0100
0100
0100
0100
0100
0100
0100
0100
3FF8
ENDCHAR
STARTCHAR tbar
ENCODING 359
SWIDTH 600 0
DWIDTH 20 0
BBX 14 19 2 0
BITMAP
1000
1000
1000
1000
1000
FFF0
1000
1000
1000
1000
1000
1000
3FF8
1000
1000
1000
180C
0C38
07E0
ENDCHAR
STARTCHAR Utilde
ENCODING 360
SWIDTH 600 0
DWIDTH 20 0
BBX 17 23 1 0
BITMAP
070800
0DD800
087000
000000
FE3F80
200200
200200
200200
200200
200200
200200
200200
200200
200200
200200
200200
200200
200200
300600
100400
180C00
0E3800
03E000
ENDCHAR
STARTCHAR utilde
ENCODING 361
SWIDTH 600 0
DWIDTH 20 0
BBX 16 18 1 0
BITMAP
0E10
1BB0
10E0
0000
F03C
1004
1004
1004
1004
1004
1004
1004
1004
1004
100C
180C
0C34
07E7
ENDCHAR
STARTCHAR Umacron
ENCODING 362
SWIDTH 600 0
DWIDTH 20 0
BBX 17 22 1 0
BITMAP
0FF800
0FF800
000000
FE3F80
200200
200200
200200
200200
200200
200200
200200
200200
200200
200200
200200
200200
200200
300600
100400
180C00
0E3800
03E000
ENDCHAR
STARTCHAR umacron
ENCODING 363
SWIDTH 600 0
DWIDTH 20 0
BBX 16 17 1 0
BITMAP
1FF0
1FF0
0000
F03C
1004
1004
1004
1004
1004
1004
1004
1004
1004
100C
180C
0C34
07E7
ENDCHAR
STARTCHAR Ubreve
ENCODING 364
SWIDTH 600 0
DWIDTH 20 0
BBX 17 25 1 0
BITMAP
080800
0C1800
041000
077000
01C000
000000
FE3F80
200200
200200
200200
200200
200200
200200
200200
200200
200200
200200
200200
200200
200200
300600
100400
180C00
0E3800
03E000
ENDCHAR
STARTCHAR ubreve
ENCODING 365
SWIDTH 600 0
DWIDTH 20 0
BBX 16 20 1 0
BITMAP
1010
1830
0820
0EE0
0380
0000
F03C
1004
1004
1004
1004
1004
1004
1004
1004
1004
100C
180C
0C34
07E7
ENDCHAR
STARTCHAR Uring
ENCODING 366
SWIDTH 600 0
DWIDTH 20 0
BBX 17 26 1 0
BITMAP
01C000
036000
022000
022000
036000
01C000
000000
FE3F80
200200
200200
200200
200200
200200
200200
200200
200200
200200
200200
200200
200200
200200
300600
100400
180C00
0E3800
03E000
ENDCHAR
STARTCHAR uring
ENCODING 367
SWIDTH 600 0
DWIDTH 20 0
BBX 16 21 1 0
BITMAP
0380
06C0
0440
0440
06C0
0380
0000
F03C
1004
1004
1004
1004
1004
1004
1004
1004
1004
100C
180C
0C34
07E7
ENDCHAR
STARTCHAR Uhungarumlaut
ENCODING 368
SWIDTH 600 0
DWIDTH 20 0
BBX 17 25 1 0
BITMAP
008400
018C00
031800
063000
042000
000000
FE3F80
200200
200200
200200
200200
200200
200200
200200
200200
200200
200200
200200
200200
200200
300600
100400
180C00
0E3800
03E000
ENDCHAR
STARTCHAR uhungarumlaut
ENCODING 369
SWIDTH 600 0
DWIDTH 20 0
BBX 16 20 1 0
BITMAP
0108
0318
0630
0C60
0840
0000
F03C
1004
1004
1004
1004
1004
1004
1004
1004
1004
100C
180C
0C34
07E7
ENDCHAR
STARTCHAR Uogonek
ENCODING 370
SWIDTH 600 0
DWIDTH 20 0
BBX 17 24 1 -5
BITMAP
FE3F80
200200
200200
200200
200200
200200
200200
200200
200200
200200
200200
200200
200200
200200
300600
100400
180C00
0E3800
03E000
018000
010000
010000
01B000
00E000
ENDCHAR
STARTCHAR uogonek
ENCODING 371
SWIDTH 600 0
DWIDTH 20 0
BBX 16 19 1 -5
BITMAP
F03C
1004
1004
1004
1004
1004
1004
1004
1004
1004
100C
180C
0C34
07E7
0180
0100
0100
01B0
00E0
ENDCHAR
STARTCHAR Wcircumflex
ENCODING 372
SWIDTH 600 0
DWIDTH 20 0
BBX 17 25 1 0
BITMAP
008000
01C000
036000
063000
0C1800
000000
FC1F80
400100
400100
400100
400100
61C300
214200
214200
222200
222200
222200
222200
263200
241200
341600
141400
141400
180C00
180C00
ENDCHAR
STARTCHAR wcircumflex
ENCODING 373
SWIDTH 600 0
DWIDTH 20 0
BBX 17 20 1 0
BITMAP
008000
01C000
036000
063000
0C1800
000000
F80F80
600300
200200
200200
21C200
214200
314600
136400
122400
122400
163400
1C1C00
080800
080800
ENDCHAR
STARTCHAR Ycircumflex
ENCODING 374
SWIDTH 600 0
DWIDTH 20 0
BBX 15 25 2 0
BITMAP
0100
0380
06C0
0C60
1830
0000
F83E
600C
3018
1010
1830
0820
0440
06C0
0280
0380
0100
0100
0100
0100
0100
0100
0100
0100
1FF0
ENDCHAR
STARTCHAR ycircumflex
ENCODING 375
SWIDTH 600 0
DWIDTH 20 0
BBX 15 26 2 -6
BITMAP
0100
0380
06C0
0C60
1830
0000
F83E
4004
600C
2008
3018
1010
1830
0820
0C60
0440
06C0
0280
0380
0100
0300
0200
0200
0600
0400
FF80
ENDCHAR
STARTCHAR Ydieresis
ENCODING 376
SWIDTH 600 0
DWIDTH 20 0
BBX 15 24 2 0
BITMAP
3870
3870
3870
0000
0000
F83E
600C
3018
1010
1830
0820
0C60
06C0
0280
0380
0100
0100
0100
0100
0100
0100
0100
0100
1FF0
ENDCHAR
STARTCHAR Zacute
ENCODING 377
SWIDTH 600 0
DWIDTH 20 0
BBX 13 25 3 0
BITMAP
0060
00C0
0180
0300
0600
0000
7FF0
4010
4030
4020
4060
40C0
0080
0180
0300
0600
0400
0C00
1808
1008
3008
6008
4008
C008
FFF8
ENDCHAR
STARTCHAR zacute
ENCODING 378
SWIDTH 600 0
DWIDTH 20 0
BBX 11 20 4 0
BITMAP
00C0
0180
0300
0600
0C00
0000
FFE0
8060
80C0
8180
0300
0600
0400
0C00
1800
3000
6020
4020
C020
FFE0
ENDCHAR
STARTCHAR Zdotaccent
ENCODING 379
SWIDTH 600 0
DWIDTH 20 0
BBX 13 23 3 0
BITMAP
0300
0780
0300
0000
7FF0
4010
4030
4020
4060
40C0
0080
0180
0300
0600
0400
0C00
1808
1008
3008
6008
4008
C008
FFF8
ENDCHAR
STARTCHAR zdotaccent
ENCODING 380
SWIDTH 600 0
DWIDTH 20 0
BBX 11 18 4 0
BITMAP
0600
0F00
0600
0000
FFE0
8060
80C0
8180
0300
0600
0400
0C00
1800
3000
6020
4020
C020
FFE0
ENDCHAR
STARTCHAR Zcaron
ENCODING 381
SWIDTH 600 0
DWIDTH 20 0
BBX 13 26 3 0
BITMAP
3060
18C0
0D80
0700
0200
0000
0000
7FF0
4010
4030
4020
4060
40C0
0080
0180
0300
0600
0400
0C00
1808
1008
3008
6008
4008
C008
FFF8
ENDCHAR
STARTCHAR zcaron
ENCODING 382
SWIDTH 600 0
DWIDTH 20 0
BBX 11 21 4 0
BITMAP
60C0
3180
1B00
0E00
0400
0000
0000
FFE0
8060
80C0
8180
0300
0600
0400
0C00
1800
3000
6020
4020
C020
FFE0
ENDCHAR
STARTCHAR uni0186
ENCODING 390
SWIDTH 600 0
DWIDTH 20 0
BBX 14 19 2 0
BITMAP
0F80
38E0
E010
8018
0008
000C
0004
0004
0004
0004
0004
0004
0004
800C
8008
8018
C010
B8E0
8F80
ENDCHAR
STARTCHAR uni0189
ENCODING 393
SWIDTH 600 0
DWIDTH 20 0
BBX 15 19 1 0
BITMAP
FFC0
2070
2018
200C
2004
2006
2002
2002
2002
FE02
2002
2002
2002
2006
2004
200C
2018
2070
FFC0
ENDCHAR
STARTCHAR uni018E
ENCODING 398
SWIDTH 600 0
DWIDTH 20 0
BBX 15 19 1 0
BITMAP
FFFE
8010
8010
8010
8010
8010
0010
0410
0410
0410
07F0
0410
0410
4410
4010
4010
4010
4010
7FFE
ENDCHAR
STARTCHAR florin
ENCODING 402
SWIDTH 600 0
DWIDTH 20 0
BBX 13 24 3 -3
BITMAP
00F8
0180
0100
0100
0300
0200
0200
0200
0200
3FE0
0200
0200
0200
0200
0200
0200
0200
0200
0200
0200
0600
0400
0C00
F800
ENDCHAR
STARTCHAR uni0197
ENCODING 407
SWIDTH 600 0
DWIDTH 20 0
BBX 11 19 4 0
BITMAP
FFE0
0400
0400
0400
0400
0400
0400
0400
0400
FFE0
0400
0400
0400
0400
0400
0400
0400
0400
FFE0
ENDCHAR
STARTCHAR uni019A
ENCODING 410
SWIDTH 600 0
DWIDTH 20 0
BBX 13 20 3 0
BITMAP
7E00
0200
0200
0200
0200
0200
0200
0200
0200
7FF0
0200
0200
0200
0200
0200
0200
0200
0200
0200
FFF8
ENDCHAR
STARTCHAR uni019D
ENCODING 413
SWIDTH 600 0
DWIDTH 20 0
BBX 24 25 -6 -6
BITMAP
03E07F
007004
005004
004804
004804
004404
004204
004204
004104
004104
004084
004084
004044
004044
004024
004024
004014
00401C
00400C
004000
004000
00C000
008000
038000
FE0000
ENDCHAR
STARTCHAR uni019F
ENCODING 415
SWIDTH 600 0
DWIDTH 20 0
BBX 15 19 2 0
BITMAP
07C0
1830
3018
600C
4004
C006
8002
8002
8002
FFFE
8002
8002
8002
C006
4004
600C
3018
1830
07C0
ENDCHAR
STARTCHAR Ohorn
ENCODING 416
SWIDTH 600 0
DWIDTH 20 0
BBX 20 19 2 0
BITMAP
07C0F0
1830F0
3019E0
600DC0
4005C0
C00780
800300
800300
800200
800200
800200
800200
800200
C00600
400400
600C00
301800
183000
07C000
ENDCHAR
STARTCHAR ohorn
ENCODING 417
SWIDTH 600 0
DWIDTH 20 0
BBX 20 14 2 0
BITMAP
0FE0F0
3838F0
600DE0
4005C0
C007C0
800380
800300
800300
800200
C00600
400400
600C00
383800
0FE000
ENDCHAR
STARTCHAR uni01A7
ENCODING 423
SWIDTH 600 0
DWIDTH 20 0
BBX 12 19 3 0
BITMAP
9F00
B1C0
C060
C020
8020
8020
0020
0060
01C0
0F00
3800
6000
C000
8010
8010
8030
C070
71D0
1F10
ENDCHAR
STARTCHAR uni01A8
ENCODING 424
SWIDTH 600 0
DWIDTH 20 0
BBX 13 14 3 0
BITMAP
4F80
78E0
6030
4010
0030
00E0
0F80
3800
6000
C008
C008
6018
38F8
0F88
ENDCHAR
STARTCHAR uni01AE
ENCODING 430
SWIDTH 600 0
DWIDTH 20 0
BBX 17 25 2 -6
BITMAP
FFFE00
810200
810200
810200
810200
810200
810200
010000
010000
010000
010000
010000
010000
010000
010000
010000
010000
010000
010000
010000
010000
018000
008000
00E000
003F80
ENDCHAR
STARTCHAR Uhorn
ENCODING 431
SWIDTH 600 0
DWIDTH 20 0
BBX 21 19 1 0
BITMAP
FE3FF8
200278
2002F0
2002E0
2002E0
2003C0
200380
200380
200300
200200
200200
200200
200200
200200
300600
100400
180C00
0E3800
03E000
ENDCHAR
STARTCHAR uhorn
ENCODING 432
SWIDTH 600 0
DWIDTH 20 0
BBX 21 14 1 0
BITMAP
F03C78
100478
1004F0
1004E0
1004E0
1005C0
100580
100580
100500
100400
100C00
180C00
0C3400
07E700
ENDCHAR
STARTCHAR uni01B5
ENCODING 437
SWIDTH 600 0
DWIDTH 20 0
BBX 13 19 3 0
BITMAP
7FF0
4010
4030
4020
4060
40C0
0080
0180
0300
7FF0
0400
0C00
1808
1008
3008
6008
4008
C008
FFF8
ENDCHAR
STARTCHAR uni01B6
ENCODING 438
SWIDTH 600 0
DWIDTH 20 0
BBX 11 14 4 0
BITMAP
FFE0
8060
80C0
8180
0300
0600
FFE0
0C00
1800
3000
6020
4020
C020
FFE0
ENDCHAR
STARTCHAR uni01BB
ENCODING 443
SWIDTH 600 0
DWIDTH 20 0
BBX 13 20 3 0
BITMAP
0FC0
3060
6010
4010
4010
0010
0030
0020
0060
FFF8
0180
0300
0600
0C00
1800
3000
6000
C000
8008
FFF8
ENDCHAR
STARTCHAR uni01BC
ENCODING 444
SWIDTH 600 0
DWIDTH 20 0
BBX 13 20 3 0
BITMAP
3FF0
2000
2000
2000
2000
2000
2000
2780
3CE0
2030
0010
0018
0008
0008
0008
0018
C010
6030
38E0
0F80
ENDCHAR
STARTCHAR uni01C0
ENCODING 448
SWIDTH 600 0
DWIDTH 20 0
BBX 1 25 9 -4
BITMAP
80
80
80
80
80
80
80
80
80
80
80
80
80
80
80
80
80
80
80
80
80
80
80
80
80
ENDCHAR
STARTCHAR uni01C2
ENCODING 450
SWIDTH 600 0
DWIDTH 20 0
BBX 15 25 2 -3
BITMAP
0100
0100
0100
0100
0100
0100
0100
0100
0100
0100
FFFE
0100
0100
0100
0100
FFFE
0100
0100
0100
0100
0100
0100
0100
0100
0100
ENDCHAR
STARTCHAR uni01C3
ENCODING 451
SWIDTH 600 0
DWIDTH 20 0
BBX 5 21 8 0
BITMAP
20
70
70
70
70
70
20
20
20
20
20
20
20
20
00
00
00
00
70
F8
70
ENDCHAR
STARTCHAR uni01CD
ENCODING 461
SWIDTH 600 0
DWIDTH 20 0
BBX 19 25 0 0
BITMAP
0C1800
063000
036000
01C000
008000
000000
1FE000
00A000
00A000
011000
011000
011000
020800
020800
020800
040400
040400
040400
0FFE00
080200
080200
100100
100100
300180
FE0FE0
ENDCHAR
STARTCHAR uni01CE
ENCODING 462
SWIDTH 600 0
DWIDTH 20 0
BBX 15 20 2 0
BITMAP
1830
0C60
06C0
0380
0100
0000
0F80
38E0
0020
0030
0010
0010
1FF0
7030
C010
8010
8010
8030
C0F0
7F9E
ENDCHAR
STARTCHAR uni01CF
ENCODING 463
SWIDTH 600 0
DWIDTH 20 0
BBX 11 25 4 0
BITMAP
60C0
3180
1B00
0E00
0400
0000
FFE0
0400
0400
0400
0400
0400
0400
0400
0400
0400
0400
0400
0400
0400
0400
0400
0400
0400
FFE0
ENDCHAR
STARTCHAR uni01D0
ENCODING 464
SWIDTH 600 0
DWIDTH 20 0
BBX 13 20 3 0
BITMAP
60C0
3180
1B00
0E00
0400
0000
7E00
0200
0200
0200
0200
0200
0200
0200
0200
0200
0200
0200
0200
FFF8
ENDCHAR
STARTCHAR uni01D1
ENCODING 465
SWIDTH 600 0
DWIDTH 20 0
BBX 15 25 2 0
BITMAP
1830
0C60
06C0
0380
0100
0000
07C0
1830
3018
600C
4004
C006
8002
8002
8002
8002
8002
8002
8002
C006
4004
600C
3018
1830
07C0
ENDCHAR
STARTCHAR uni01D2
ENCODING 466
SWIDTH 600 0
DWIDTH 20 0
BBX 15 20 2 0
BITMAP
1830
0C60
06C0
0380
0100
0000
0FE0
3838
600C
4004
C006
8002
8002
8002
8002
C006
4004
600C
3838
0FE0
ENDCHAR
STARTCHAR uni01D3
ENCODING 467
SWIDTH 600 0
DWIDTH 20 0
BBX 17 25 1 0
BITMAP
0C1800
063000
036000
01C000
008000
000000
FE3F80
200200
200200
200200
200200
200200
200200
200200
200200
200200
200200
200200
200200
200200
300600
100400
180C00
0E3800
03E000
ENDCHAR
STARTCHAR uni01D4
ENCODING 468
SWIDTH 600 0
DWIDTH 20 0
BBX 16 20 1 0
BITMAP
1830
0C60
06C0
0380
0100
0000
F03C
1004
1004
1004
1004
1004
1004
1004
1004
1004
100C
180C
0C34
07E7
ENDCHAR
STARTCHAR uni01D5
ENCODING 469
SWIDTH 600 0
DWIDTH 20 0
BBX 17 27 1 0
BITMAP
0FF800
0FF800
000000
0C1800
1E3C00
0C1800
000000
000000
FE3F80
200200
200200
200200
200200
200200
200200
200200
200200
200200
200200
200200
200200
200200
300600
100400
180C00
0E3800
03E000
ENDCHAR
STARTCHAR uni01D6
ENCODING 470
SWIDTH 600 0
DWIDTH 20 0
BBX 16 23 1 0
BITMAP
1FF0
1FF0
0000
1830
3C78
1830
0000
0000
0000
F03C
1004
1004
1004
1004
1004
1004
1004
1004
1004
100C
181C
0C34
07E7
ENDCHAR
STARTCHAR uni01D7
ENCODING 471
SWIDTH 600 0
DWIDTH 20 0
BBX 17 30 1 0
BITMAP
001800
003000
006000
00C000
018000
000000
0C1800
1E3C00
0C1800
000000
000000
FE3F80
200200
200200
200200
200200
200200
200200
200200
200200
200200
200200
200200
200200
200200
300600
100400
180C00
0E3800
03E000
ENDCHAR
STARTCHAR uni01D8
ENCODING 472
SWIDTH 600 0
DWIDTH 20 0
BBX 16 26 1 0
BITMAP
0030
0060
00C0
0180
0300
0000
1830
3C78
1830
0000
0000
0000
F03C
1004
1004
1004
1004
1004
1004
1004
1004
1004
100C
181C
0C34
07E7
ENDCHAR
STARTCHAR uni01D9
ENCODING 473
SWIDTH 600 0
DWIDTH 20 0
BBX 17 30 1 0
BITMAP
0C1800
063000
036000
01C000
008000
000000
0C1800
1E3C00
0C1800
000000
000000
FE3F80
200200
200200
200200
200200
200200
200200
200200
200200
200200
200200
200200
200200
200200
300600
100400
180C00
0E3800
03E000
ENDCHAR
STARTCHAR uni01DA
ENCODING 474
SWIDTH 600 0
DWIDTH 20 0
BBX 16 26 1 0
BITMAP
1830
0C60
06C0
0380
0100
0000
1830
3C78
1830
0000
0000
0000
F03C
1004
1004
1004
1004
1004
1004
1004
1004
1004
100C
181C
0C34
07E7
ENDCHAR
STARTCHAR uni01DB
ENCODING 475
SWIDTH 600 0
DWIDTH 20 0
BBX 17 30 1 0
BITMAP
060000
030000
018000
00C000
006000
000000
0C1800
1E3C00
0C1800
000000
000000
FE3F80
200200
200200
200200
200200
200200
200200
200200
200200
200200
200200
200200
200200
200200
300600
100400
180C00
0E3800
03E000
ENDCHAR
STARTCHAR uni01DC
ENCODING 476
SWIDTH 600 0
DWIDTH 20 0
BBX 16 26 1 0
BITMAP
0C00
0600
0300
0180
00C0
0000
1830
3C78
1830
0000
0000
0000
F03C
1004
1004
1004
1004
1004
1004
1004
1004
1004
100C
181C
0C34
07E7
ENDCHAR
STARTCHAR uni01DD
ENCODING 477
SWIDTH 600 0
DWIDTH 20 0
BBX 14 14 2 0
BITMAP
1FC0
7070
C018
0008
000C
0004
0004
FFFC
8004
C00C
4008
6018
3870
0FC0
ENDCHAR
STARTCHAR uni01DE
ENCODING 478
SWIDTH 600 0
DWIDTH 20 0
BBX 19 27 0 0
BITMAP
0FF800
0FF800
000000
060C00
0F1E00
060C00
000000
000000
1FE000
00A000
01B000
011000
011000
031800
020800
020800
060C00
040400
040400
0C0600
0FFE00
080200
180300
100100
100100
300180
FE0FE0
ENDCHAR
STARTCHAR uni01DF
ENCODING 479
SWIDTH 600 0
DWIDTH 20 0
BBX 15 23 2 0
BITMAP
3FE0
3FE0
0000
30C0
79E0
30C0
0000
0000
0000
0F80
38E0
0020
0030
0010
0010
1FF0
7030
C010
8010
8010
8030
C0F0
7F9E
ENDCHAR
STARTCHAR uni01E0
ENCODING 480
SWIDTH 600 0
DWIDTH 20 0
BBX 19 26 0 0
BITMAP
0FF800
0FF800
000000
00C000
01E000
00C000
000000
1FE000
00A000
00A000
011000
011000
011000
020800
020800
020800
040400
040400
040400
0FFE00
080200
080200
100100
100100
300180
FE0FE0
ENDCHAR
STARTCHAR uni01E1
ENCODING 481
SWIDTH 600 0
DWIDTH 20 0
BBX 15 21 2 0
BITMAP
1FF0
1FF0
0000
0300
0780
0300
0000
0F80
38E0
0020
0030
0010
0010
1FF0
7030
C010
8010
8010
8030
C0F0
7F9E
ENDCHAR
STARTCHAR uni01E2
ENCODING 482
SWIDTH 600 0
DWIDTH 20 0
BBX 18 22 1 0
BITMAP
07FC00
07FC00
000000
1FFF80
024080
024080
064080
044080
044080
044000
0C4400
084400
087C00
084400
184400
1FC000
104000
304040
204040
204040
204040
FBFFC0
ENDCHAR
STARTCHAR uni01E3
ENCODING 483
SWIDTH 600 0
DWIDTH 20 0
BBX 19 17 0 0
BITMAP
03FE00
03FE00
000000
1F0F80
7198C0
00F040
006060
006020
1E4020
73FFE0
C0C000
804000
806000
80E000
C15060
6358C0
3E4F80
ENDCHAR
STARTCHAR uni01E4
ENCODING 484
SWIDTH 600 0
DWIDTH 20 0
BBX 19 19 2 0
BITMAP
07C400
1C7400
300C00
600400
400400
C00400
800000
800000
800000
800000
800000
80FE00
800400
C0FFE0
400400
600400
300400
1C1C00
07F000
ENDCHAR
STARTCHAR uni01E5
ENCODING 485
SWIDTH 600 0
DWIDTH 20 0
BBX 17 20 2 -6
BITMAP
0FC780
387400
601400
400C00
C00C00
800400
800400
800400
800400
C00C00
400C00
601400
387400
0FC400
000400
FFFF80
000C00
000800
003800
0FE000
ENDCHAR
STARTCHAR Gcaron
ENCODING 486
SWIDTH 600 0
DWIDTH 20 0
BBX 15 25 2 0
BITMAP
1830
0C60
06C0
0380
0100
0000
07C4
1C74
300C
6004
4004
C004
8000
8000
8000
8000
8000
80FE
8004
C004
4004
6004
3004
1C1C
07F0
ENDCHAR
STARTCHAR gcaron
ENCODING 487
SWIDTH 600 0
DWIDTH 20 0
BBX 17 26 2 -6
BITMAP
0C1800
063000
036000
01C000
008000
000000
0FC780
387400
601400
400C00
C00C00
800400
800400
800400
800400
C00C00
400C00
601400
387400
0FC400
000400
000400
000C00
000800
003800
0FE000
ENDCHAR
STARTCHAR uni01E8
ENCODING 488
SWIDTH 600 0
DWIDTH 20 0
BBX 17 25 1 0
BITMAP
0C1800
063000
036000
01C000
008000
000000
FE1F80
100400
100C00
100800
101000
103000
104000
10C000
138000
1CC000
102000
103000
101000
101800
100800
100800
100C00
100400
FE0780
ENDCHAR
STARTCHAR uni01E9
ENCODING 489
SWIDTH 600 0
DWIDTH 20 0
BBX 15 26 2 0
BITMAP
C180
6300
3600
1C00
0800
0000
F000
1000
1000
1000
1000
1000
10FC
1030
1060
10C0
1180
1300
1E00
1300
1180
10C0
1060
1030
1018
F03E
ENDCHAR
STARTCHAR uni01EA
ENCODING 490
SWIDTH 600 0
DWIDTH 20 0
BBX 15 24 2 -5
BITMAP
07C0
1830
3018
600C
4004
C006
8002
8002
8002
8002
8002
8002
8002
C006
4004
600C
3018
1830
07C0
0300
0200
0200
0360
01C0
ENDCHAR
STARTCHAR uni01EB
ENCODING 491
SWIDTH 600 0
DWIDTH 20 0
BBX 15 19 2 -5
BITMAP
0FE0
3838
600C
4004
C006
8002
8002
8002
8002
C006
4004
600C
3838
0FE0
0300
0200
0200
0360
01C0
ENDCHAR
STARTCHAR uni01EC
ENCODING 492
SWIDTH 600 0
DWIDTH 20 0
BBX 15 27 2 -5
BITMAP
1FF0
1FF0
0000
07C0
1830
3018
600C
4004
C006
8002
8002
8002
8002
8002
8002
8002
C006
4004
600C
3018
1830
07C0
0300
0200
0200
0360
01C0
ENDCHAR
STARTCHAR uni01ED
ENCODING 493
SWIDTH 600 0
DWIDTH 20 0
BBX 15 22 2 -5
BITMAP
1FF0
1FF0
0000
0FE0
3838
600C
4004
C006
8002
8002
8002
8002
C006
4004
600C
3838
0FE0
0300
0200
0200
0360
01C0
ENDCHAR
STARTCHAR uni01F0
ENCODING 496
SWIDTH 600 0
DWIDTH 20 0
BBX 11 26 4 -6
BITMAP
3060
18C0
0D80
0700
0200
0000
FFC0
0040
0040
0040
0040
0040
0040
0040
0040
0040
0040
0040
0040
0040
0040
0040
00C0
0080
0380
FE00
ENDCHAR
STARTCHAR uni01F4
ENCODING 500
SWIDTH 600 0
DWIDTH 20 0
BBX 15 25 2 0
BITMAP
0030
0060
00C0
0180
0300
0000
07C4
1C74
300C
6004
4004
C004
8000
8000
8000
8000
8000
80FE
8004
C004
4004
6004
3004
1C1C
07F0
ENDCHAR
STARTCHAR uni01F5
ENCODING 501
SWIDTH 600 0
DWIDTH 20 0
BBX 17 26 2 -6
BITMAP
001800
003000
006000
00C000
018000
000000
0FC780
387400
601400
400C00
C00C00
800400
800400
800400
800400
C00C00
400C00
601400
387400
0FC400
000400
000400
000C00
000800
003800
0FE000
ENDCHAR
STARTCHAR uni01F8
ENCODING 504
SWIDTH 600 0
DWIDTH 20 0
BBX 18 25 0 0
BITMAP
060000
030000
018000
00C000
006000
000000
F81FC0
1C0100
140100
120100
120100
110100
108100
108100
104100
104100
102100
102100
101100
101100
100900
100900
100500
100700
7F0300
ENDCHAR
STARTCHAR uni01F9
ENCODING 505
SWIDTH 600 0
DWIDTH 20 0
BBX 15 20 2 0
BITMAP
1800
0C00
0600
0300
0180
0000
E3C0
2E70
2810
3018
3008
2008
2008
2008
2008
2008
2008
2008
2008
F83E
ENDCHAR
STARTCHAR Aringacute
ENCODING 506
SWIDTH 600 0
DWIDTH 20 0
BBX 19 32 0 0
BITMAP
000C00
001800
003000
006000
00C000
000000
00E000
01B000
011000
011000
01B000
00E000
000000
1FE000
00A000
01B000
011000
011000
031800
020800
020800
060C00
040400
040400
0C0600
0FFE00
080200
180300
100100
100100
300180
FE0FE0
ENDCHAR
STARTCHAR aringacute
ENCODING 507
SWIDTH 600 0
DWIDTH 20 0
BBX 15 29 2 0
BITMAP
0060
00C0
0180
0300
0600
0000
0700
0D80
0880
0880
0D80
0700
0000
0000
0000
0F80
38E0
0020
0030
0010
0010
1FF0
7030
C010
8010
8010
8030
C0F0
7F9E
ENDCHAR
STARTCHAR AEacute
ENCODING 508
SWIDTH 600 0
DWIDTH 20 0
BBX 18 25 1 0
BITMAP
000C00
001800
003000
006000
00C000
000000
1FFF80
024080
024080
064080
044080
044080
044000
0C4400
084400
087C00
084400
184400
1FC000
104000
304040
204040
204040
204040
FBFFC0
ENDCHAR
STARTCHAR aeacute
ENCODING 509
SWIDTH 600 0
DWIDTH 20 0
BBX 19 20 0 0
BITMAP
000C00
001800
003000
006000
00C000
000000
1F0F80
7198C0
00F040
006060
006020
1E4020
73FFE0
C0C000
804000
806000
80E000
C15060
6358C0
3E4F80
ENDCHAR
STARTCHAR Oslashacute
ENCODING 510
SWIDTH 600 0
DWIDTH 20 0
BBX 16 27 2 -1
BITMAP
0018
0030
0060
00C0
0180
0000
0001
07C3
1C76
301C
2018
603C
4024
C066
80C2
8182
8102
8302
8602
CC06
4804
780C
3008
3018
7C30
C7E0
8000
ENDCHAR
STARTCHAR oslashacute
ENCODING 511
SWIDTH 600 0
DWIDTH 20 0
BBX 15 22 2 -1
BITMAP
0018
0030
0060
00C0
0180
0000
0002
07E6
1C3C
3018
4034
C066
80C2
8182
8302
8602
CC06
5804
7018
7870
CFC0
8000
ENDCHAR
STARTCHAR uni0200
ENCODING 512
SWIDTH 600 0
DWIDTH 20 0
BBX 19 25 0 0
BITMAP
108000
18C000
0C6000
063000
021000
000000
1FE000
00A000
00A000
011000
011000
011000
020800
020800
020800
040400
040400
040400
0FFE00
080200
080200
100100
100100
300180
FE0FE0
ENDCHAR
STARTCHAR uni0201
ENCODING 513
SWIDTH 600 0
DWIDTH 20 0
BBX 15 20 2 0
BITMAP
2100
3180
18C0
0C60
0420
0000
0F80
38E0
0020
0030
0010
0010
1FF0
7030
C010
8010
8010
8030
C0F0
7F9E
ENDCHAR
STARTCHAR uni0202
ENCODING 514
SWIDTH 600 0
DWIDTH 20 0
BBX 19 25 0 0
BITMAP
01C000
077000
041000
0C1800
080800
000000
1FE000
00A000
00A000
011000
011000
011000
020800
020800
020800
040400
040400
040400
0FFE00
080200
080200
100100
100100
300180
FE0FE0
ENDCHAR
STARTCHAR uni0203
ENCODING 515
SWIDTH 600 0
DWIDTH 20 0
BBX 15 20 2 0
BITMAP
0380
0EE0
0820
1830
1010
0000
0F80
38E0
0020
0030
0010
0010
1FF0
7030
C010
8010
8010
8030
C0F0
7F9E
ENDCHAR
STARTCHAR uni0204
ENCODING 516
SWIDTH 600 0
DWIDTH 20 0
BBX 15 25 1 0
BITMAP
2100
3180
18C0
0C60
0420
0000
FFFC
1004
1004
1004
1004
1044
1040
1040
1FC0
1040
1040
1040
1000
1002
1002
1002
1002
1002
FFFE
ENDCHAR
STARTCHAR uni0205
ENCODING 517
SWIDTH 600 0
DWIDTH 20 0
BBX 14 20 2 0
BITMAP
2100
3180
18C0
0C60
0420
0000
0FC0
3870
6018
4008
C00C
8004
FFFC
8000
8000
C000
4000
600C
3838
0FE0
ENDCHAR
STARTCHAR uni0206
ENCODING 518
SWIDTH 600 0
DWIDTH 20 0
BBX 15 25 1 0
BITMAP
0380
0EE0
0820
1830
1010
0000
FFFC
1004
1004
1004
1004
1044
1040
1040
1FC0
1040
1040
1040
1000
1002
1002
1002
1002
1002
FFFE
ENDCHAR
STARTCHAR uni0207
ENCODING 519
SWIDTH 600 0
DWIDTH 20 0
BBX 14 20 2 0
BITMAP
0380
0EE0
0820
1830
1010
0000
0FC0
3870
6018
4008
C00C
8004
FFFC
8000
8000
C000
4000
600C
3838
0FE0
ENDCHAR
STARTCHAR uni0208
ENCODING 520
SWIDTH 600 0
DWIDTH 20 0
BBX 11 25 4 0
BITMAP
8400
C600
6300
3180
1080
0000
FFE0
0400
0400
0400
0400
0400
0400
0400
0400
0400
0400
0400
0400
0400
0400
0400
0400
0400
FFE0
ENDCHAR
STARTCHAR uni0209
ENCODING 521
SWIDTH 600 0
DWIDTH 20 0
BBX 13 20 3 0
BITMAP
8400
C600
6300
3180
1080
0000
7E00
0200
0200
0200
0200
0200
0200
0200
0200
0200
0200
0200
0200
FFF8
ENDCHAR
STARTCHAR uni020A
ENCODING 522
SWIDTH 600 0
DWIDTH 20 0
BBX 11 25 4 0
BITMAP
0E00
3B80
2080
60C0
4040
0000
FFE0
0400
0400
0400
0400
0400
0400
0400
0400
0400
0400
0400
0400
0400
0400
0400
0400
0400
FFE0
ENDCHAR
STARTCHAR uni020B
ENCODING 523
SWIDTH 600 0
DWIDTH 20 0
BBX 13 20 3 0
BITMAP
0E00
3B80
2080
60C0
4040
0000
7E00
0200
0200
0200
0200
0200
0200
0200
0200
0200
0200
0200
0200
FFF8
ENDCHAR
STARTCHAR uni020C
ENCODING 524
SWIDTH 600 0
DWIDTH 20 0
BBX 15 25 2 0
BITMAP
2100
3180
18C0
0C60
0420
0000
07C0
1830
3018
600C
4004
C006
8002
8002
8002
8002
8002
8002
8002
C006
4004
600C
3018
1830
07C0
ENDCHAR
STARTCHAR uni020D
ENCODING 525
SWIDTH 600 0
DWIDTH 20 0
BBX 15 20 2 0
BITMAP
2100
3180
18C0
0C60
0420
0000
0FE0
3838
600C
4004
C006
8002
8002
8002
8002
C006
4004
600C
3838
0FE0
ENDCHAR
STARTCHAR uni020E
ENCODING 526
SWIDTH 600 0
DWIDTH 20 0
BBX 15 25 2 0
BITMAP
0380
0EE0
0820
1830
1010
0000
07C0
1830
3018
600C
4004
C006
8002
8002
8002
8002
8002
8002
8002
C006
4004
600C
3018
1830
07C0
ENDCHAR
STARTCHAR uni020F
ENCODING 527
SWIDTH 600 0
DWIDTH 20 0
BBX 15 20 2 0
BITMAP
0380
0EE0
0820
1830
1010
0000
0FE0
3838
600C
4004
C006
8002
8002
8002
8002
C006
4004
600C
3838
0FE0
ENDCHAR
STARTCHAR uni0210
ENCODING 528
SWIDTH 600 0
DWIDTH 20 0
BBX 18 25 1 0
BITMAP
108000
18C000
0C6000
063000
021000
000000
FFE000
103800
100400
100600
100200
100200
100600
100400
101800
1FE000
106000
103000
101800
100C00
100400
100600
100200
100300
FE01C0
ENDCHAR
STARTCHAR uni0211
ENCODING 529
SWIDTH 600 0
DWIDTH 20 0
BBX 15 20 3 0
BITMAP
2100
3180
18C0
0C60
0420
0000
787C
09C6
0B00
0C00
0C00
0800
0800
0800
0800
0800
0800
0800
0800
FFF0
ENDCHAR
STARTCHAR uni0212
ENCODING 530
SWIDTH 600 0
DWIDTH 20 0
BBX 18 25 1 0
BITMAP
01C000
077000
041000
0C1800
080800
000000
FFE000
103800
100400
100600
100200
100200
100600
100400
101800
1FE000
106000
103000
101800
100C00
100400
100600
100200
100300
FE01C0
ENDCHAR
STARTCHAR uni0213
ENCODING 531
SWIDTH 600 0
DWIDTH 20 0
BBX 15 20 3 0
BITMAP
0380
0EE0
0820
1830
1010
0000
787C
09C6
0B00
0C00
0C00
0800
0800
0800
0800
0800
0800
0800
0800
FFF0
ENDCHAR
STARTCHAR uni0214
ENCODING 532
SWIDTH 600 0
DWIDTH 20 0
BBX 17 25 1 0
BITMAP
108000
18C000
0C6000
063000
021000
000000
FE3F80
200200
200200
200200
200200
200200
200200
200200
200200
200200
200200
200200
200200
200200
300600
100400
180C00
0E3800
03E000
ENDCHAR
STARTCHAR uni0215
ENCODING 533
SWIDTH 600 0
DWIDTH 20 0
BBX 16 20 1 0
BITMAP
2100
3180
18C0
0C60
0420
0000
F03C
1004
1004
1004
1004
1004
1004
1004
1004
1004
100C
180C
0C34
07E7
ENDCHAR
STARTCHAR uni0216
ENCODING 534
SWIDTH 600 0
DWIDTH 20 0
BBX 17 25 1 0
BITMAP
01C000
077000
041000
0C1800
080800
000000
FE3F80
200200
200200
200200
200200
200200
200200
200200
200200
200200
200200
200200
200200
200200
300600
100400
180C00
0E3800
03E000
ENDCHAR
STARTCHAR uni0217
ENCODING 535
SWIDTH 600 0
DWIDTH 20 0
BBX 16 20 1 0
BITMAP
0380
0EE0
0820
1830
1010
0000
F03C
1004
1004
1004
1004
1004
1004
1004
1004
1004
100C
180C
0C34
07E7
ENDCHAR
STARTCHAR Scommaaccent
ENCODING 536
SWIDTH 600 0
DWIDTH 20 0
BBX 12 29 3 -10
BITMAP
0F90
38D0
6030
4030
4010
4010
4000
6000
3800
0F00
01C0
0060
0030
8010
8010
C010
E030
B8E0
8F80
0000
0F00
0F00
1E00
1E00
1800
3800
3000
3000
2000
ENDCHAR
STARTCHAR scommaaccent
ENCODING 537
SWIDTH 600 0
DWIDTH 20 0
BBX 13 24 3 -10
BITMAP
0F90
38F0
6030
4010
6000
3800
0F80
00E0
0030
8018
8018
C030
F8E0
8F80
0000
0780
0780
0F00
0F00
0C00
1C00
1800
1800
1000
ENDCHAR
STARTCHAR Tcommaaccent
ENCODING 538
SWIDTH 600 0
DWIDTH 20 0
BBX 15 29 2 -10
BITMAP
FFFE
8102
8102
8102
8102
8102
8102
0100
0100
0100
0100
0100
0100
0100
0100
0100
0100
0100
3FF8
0000
03C0
03C0
0780
0780
0600
0E00
0C00
0C00
0800
ENDCHAR
STARTCHAR tcommaaccent
ENCODING 539
SWIDTH 600 0
DWIDTH 20 0
BBX 14 29 2 -10
BITMAP
1000
1000
1000
1000
1000
FFF0
1000
1000
1000
1000
1000
1000
1000
1000
1000
1000
180C
0C38
07E0
0000
03C0
03C0
0780
0780
0600
0E00
0C00
0C00
0800
ENDCHAR
STARTCHAR uni021E
ENCODING 542
SWIDTH 600 0
DWIDTH 20 0
BBX 15 25 2 0
BITMAP
1830
0C60
06C0
0380
0100
0000
FC7E
2008
2008
2008
2008
2008
2008
2008
2008
3FF8
2008
2008
2008
2008
2008
2008
2008
2008
FC7E
ENDCHAR
STARTCHAR uni021F
ENCODING 543
SWIDTH 600 0
DWIDTH 20 0
BBX 16 26 1 0
BITMAP
C180
6300
3600
1C00
0800
0000
F000
1000
1000
1000
1000
1000
11E0
1738
1408
180C
1804
1004
1004
1004
1004
1004
1004
1004
1004
7C1F
ENDCHAR
STARTCHAR uni0226
ENCODING 550
SWIDTH 600 0
DWIDTH 20 0
BBX 19 23 0 0
BITMAP
00C000
01E000
00C000
000000
1FE000
00A000
00A000
011000
011000
011000
020800
020800
020800
040400
040400
040400
0FFE00
080200
080200
100100
100100
300180
FE0FE0
ENDCHAR
STARTCHAR uni0227
ENCODING 551
SWIDTH 600 0
DWIDTH 20 0
BBX 15 18 2 0
BITMAP
0300
0780
0300
0000
0F80
38E0
0020
0030
0010
0010
1FF0
7030
C010
8010
8010
8030
C0F0
7F9E
ENDCHAR
STARTCHAR uni0228
ENCODING 552
SWIDTH 600 0
DWIDTH 20 0
BBX 15 24 1 -5
BITMAP
FFFC
1004
1004
1004
1004
1044
1040
1040
1FC0
1040
1040
1040
1000
1002
1002
1002
1002
1002
FFFE
0100
0100
0180
04C0
0780
ENDCHAR
STARTCHAR uni0229
ENCODING 553
SWIDTH 600 0
DWIDTH 20 0
BBX 14 19 2 -5
BITMAP
0FC0
3870
6018
4008
C00C
8004
FFFC
8000
8000
C000
4000
600C
3838
0FE0
0100
0100
0180
04C0
0780
ENDCHAR
STARTCHAR uni022A
ENCODING 554
SWIDTH 600 0
DWIDTH 20 0
BBX 15 27 2 0
BITMAP
1FF0
1FF0
0000
3030
7878
3030
0000
0000
07C0
1C70
3018
600C
4004
C006
8002
8002
8002
8002
8002
8002
C006
4004
600C
2008
3018
1C70
07C0
ENDCHAR
STARTCHAR uni022B
ENCODING 555
SWIDTH 600 0
DWIDTH 20 0
BBX 15 23 2 0
BITMAP
1FF0
1FF0
0000
1860
3CF0
1860
0000
0000
0000
0FE0
3838
600C
4004
C006
8002
8002
8002
8002
C006
4004
600C
3838
0FE0
ENDCHAR
STARTCHAR uni022C
ENCODING 556
SWIDTH 600 0
DWIDTH 20 0
BBX 15 27 2 0
BITMAP
1FF0
1FF0
0000
0E10
1BB0
10E0
0000
0000
07C0
1C70
3018
600C
4004
C006
8002
8002
8002
8002
8002
8002
C006
4004
600C
2008
3018
1C70
07C0
ENDCHAR
STARTCHAR uni022D
ENCODING 557
SWIDTH 600 0
DWIDTH 20 0
BBX 15 23 2 0
BITMAP
1FF0
1FF0
0000
0E10
1BB0
10E0
0000
0000
0000
0FE0
3838
600C
4004
C006
8002
8002
8002
8002
C006
4004
600C
3838
0FE0
ENDCHAR
STARTCHAR uni022E
ENCODING 558
SWIDTH 600 0
DWIDTH 20 0
BBX 15 23 2 0
BITMAP
0180
03C0
0180
0000
07C0
1830
3018
600C
4004
C006
8002
8002
8002
8002
8002
8002
8002
C006
4004
600C
3018
1830
07C0
ENDCHAR
STARTCHAR uni022F
ENCODING 559
SWIDTH 600 0
DWIDTH 20 0
BBX 15 18 2 0
BITMAP
0180
03C0
0180
0000
0FE0
3838
600C
4004
C006
8002
8002
8002
8002
C006
4004
600C
3838
0FE0
ENDCHAR
STARTCHAR uni0230
ENCODING 560
SWIDTH 600 0
DWIDTH 20 0
BBX 15 26 2 0
BITMAP
1FF0
1FF0
0000
0180
03C0
0180
0000
07C0
1830
3018
600C
4004
C006
8002
8002
8002
8002
8002
8002
8002
C006
4004
600C
3018
1830
07C0
ENDCHAR
STARTCHAR uni0231
ENCODING 561
SWIDTH 600 0
DWIDTH 20 0
BBX 15 21 2 0
BITMAP
1FF0
1FF0
0000
0180
03C0
0180
0000
0FE0
3838
600C
4004
C006
8002
8002
8002
8002
C006
4004
600C
3838
0FE0
ENDCHAR
STARTCHAR uni0232
ENCODING 562
SWIDTH 600 0
DWIDTH 20 0
BBX 15 22 2 0
BITMAP
1FF0
1FF0
0000
F83E
600C
3018
1010
1830
0820
0440
06C0
0280
0380
0100
0100
0100
0100
0100
0100
0100
0100
1FF0
ENDCHAR
STARTCHAR uni0233
ENCODING 563
SWIDTH 600 0
DWIDTH 20 0
BBX 15 23 2 -6
BITMAP
1FF0
1FF0
0000
F83E
4004
600C
2008
3018
1010
1830
0820
0C60
0440
06C0
0280
0380
0100
0300
0200
0200
0600
0400
FF80
ENDCHAR
STARTCHAR uni0250
ENCODING 592
SWIDTH 600 0
DWIDTH 20 0
BBX 15 14 2 0
BITMAP
F3FC
1E06
1802
1002
1002
1006
181C
1FF0
1000
1000
1800
0800
0E38
03E0
ENDCHAR
STARTCHAR uni0254
ENCODING 596
SWIDTH 600 0
DWIDTH 20 0
BBX 14 14 3 0
BITMAP
47C0
7C70
6018
4008
400C
0004
0004
0004
0004
000C
C008
6018
1C70
07C0
ENDCHAR
STARTCHAR uni0258
ENCODING 600
SWIDTH 600 0
DWIDTH 20 0
BBX 14 14 2 0
BITMAP
0FC0
3870
6018
4008
C00C
8004
FFFC
0004
0004
000C
0008
C018
7070
1FC0
ENDCHAR
STARTCHAR uni0259
ENCODING 601
SWIDTH 600 0
DWIDTH 20 0
BBX 14 14 2 0
BITMAP
1FC0
7070
C018
0008
000C
0004
0004
FFFC
8004
C00C
4008
6018
3870
0FC0
ENDCHAR
STARTCHAR uni025F
ENCODING 607
SWIDTH 600 0
DWIDTH 20 0
BBX 13 20 3 -6
BITMAP
7FF8
0080
0080
0080
0080
0080
0080
0080
0080
0080
0080
0080
0080
7FF8
0080
0080
0180
0100
C300
3E00
ENDCHAR
STARTCHAR uni0265
ENCODING 613
SWIDTH 600 0
DWIDTH 20 0
BBX 16 20 1 -6
BITMAP
F83E
2008
2008
2008
2008
2008
2008
2008
2008
2018
3018
1028
1CE8
0788
0008
0008
0008
0008
0008
000F
ENDCHAR
STARTCHAR uni0275
ENCODING 629
SWIDTH 600 0
DWIDTH 20 0
BBX 15 14 2 0
BITMAP
0FE0
3838
600C
4004
C006
8002
FFFE
8002
8002
C006
4004
600C
3838
0FE0
ENDCHAR
STARTCHAR uni0279
ENCODING 633
SWIDTH 600 0
DWIDTH 20 0
BBX 15 14 3 0
BITMAP
1FFE
0020
0020
0020
0020
0020
0020
0020
0020
0060
0060
01A0
C720
7C3C
ENDCHAR
STARTCHAR uni0287
ENCODING 647
SWIDTH 600 0
DWIDTH 20 0
BBX 14 19 2 0
BITMAP
1F80
70C0
C060
0020
0020
0020
0020
0020
0020
0020
0020
0020
0020
3FFC
0020
0020
0020
0020
0020
ENDCHAR
STARTCHAR uni0288
ENCODING 648
SWIDTH 600 0
DWIDTH 20 0
BBX 13 25 2 -6
BITMAP
1000
1000
1000
1000
1000
FFF0
1000
1000
1000
1000
1000
1000
1000
1000
1000
1000
1000
1000
1000
1000
1000
1800
0800
0E00
03F8
ENDCHAR
STARTCHAR uni0289
ENCODING 649
SWIDTH 600 0
DWIDTH 20 0
BBX 16 14 1 0
BITMAP
F03C
1004
1004
1004
1004
1004
FFFF
1004
1004
1004
100C
180C
0C34
07E7
ENDCHAR
STARTCHAR uni028C
ENCODING 652
SWIDTH 600 0
DWIDTH 20 0
BBX 17 14 1 0
BITMAP
01C000
014000
036000
022000
063000
041000
041000
0C1800
080800
180C00
100400
100400
300600
FC1F80
ENDCHAR
STARTCHAR uni028D
ENCODING 653
SWIDTH 600 0
DWIDTH 20 0
BBX 17 14 1 0
BITMAP
080800
080800
1C1C00
163400
122400
122400
136400
314600
214200
21C200
200200
200200
600300
F80F80
ENDCHAR
STARTCHAR uni028E
ENCODING 654
SWIDTH 600 0
DWIDTH 20 0
BBX 15 20 2 0
BITMAP
03FE
0040
00C0
0080
0080
0180
0100
0380
0280
06C0
0440
0C60
0820
1830
1010
3018
2008
600C
4004
F83E
ENDCHAR
STARTCHAR uni029E
ENCODING 670
SWIDTH 600 0
DWIDTH 20 0
BBX 15 20 2 -6
BITMAP
F81E
3010
1810
0C10
0610
0310
0190
00F0
0190
0310
0610
0C10
1810
7E10
0010
0010
0010
0010
0010
001E
ENDCHAR
STARTCHAR uni02BB
ENCODING 699
SWIDTH 600 0
DWIDTH 20 0
BBX 7 9 8 12
BITMAP
F0
F0
78
78
3C
0C
0E
06
02
ENDCHAR
STARTCHAR afii57929
ENCODING 700
SWIDTH 600 0
DWIDTH 20 0
BBX 6 9 6 12
BITMAP
3C
3C
78
70
70
E0
C0
C0
80
ENDCHAR
STARTCHAR afii64937
ENCODING 701
SWIDTH 600 0
DWIDTH 20 0
BBX 6 9 6 12
BITMAP
F0
F0
78
38
38
1C
0C
0C
04
ENDCHAR
STARTCHAR circumflex
ENCODING 710
SWIDTH 600 0
DWIDTH 20 0
BBX 9 5 5 17
BITMAP
0800
1C00
3600
6300
C180
ENDCHAR
STARTCHAR caron
ENCODING 711
SWIDTH 600 0
DWIDTH 20 0
BBX 9 5 5 17
BITMAP
C180
6300
3600
1C00
0800
ENDCHAR
STARTCHAR uni02C8
ENCODING 712
SWIDTH 600 0
DWIDTH 20 0
BBX 4 11 8 10
BITMAP
70
70
70
70
70
E0
E0
E0
E0
E0
E0
ENDCHAR
STARTCHAR macron
ENCODING 713
SWIDTH 600 0
DWIDTH 20 0
BBX 9 2 5 17
BITMAP
FF80
FF80
ENDCHAR
STARTCHAR uni02CA
ENCODING 714
SWIDTH 600 0
DWIDTH 20 0
BBX 6 5 9 17
BITMAP
0C
18
30
60
C0
ENDCHAR
STARTCHAR uni02CB
ENCODING 715
SWIDTH 600 0
DWIDTH 20 0
BBX 6 5 4 17
BITMAP
C0
60
30
18
0C
ENDCHAR
STARTCHAR uni02CD
ENCODING 717
SWIDTH 600 0
DWIDTH 20 0
BBX 9 2 5 -3
BITMAP
FF80
FF80
ENDCHAR
STARTCHAR uni02CE
ENCODING 718
SWIDTH 600 0
DWIDTH 20 0
BBX 6 5 4 -6
BITMAP
C0
60
30
18
0C
ENDCHAR
STARTCHAR uni02CF
ENCODING 719
SWIDTH 600 0
DWIDTH 20 0
BBX 6 5 9 -6
BITMAP
0C
18
30
60
C0
ENDCHAR
STARTCHAR breve
ENCODING 728
SWIDTH 600 0
DWIDTH 20 0
BBX 9 5 5 16
BITMAP
8080
C180
4100
7700
1C00
ENDCHAR
STARTCHAR dotaccent
ENCODING 729
SWIDTH 600 0
DWIDTH 20 0
BBX 4 3 8 17
BITMAP
60
F0
60
ENDCHAR
STARTCHAR ring
ENCODING 730
SWIDTH 600 0
DWIDTH 20 0
BBX 5 6 7 17
BITMAP
70
D8
88
88
D8
70
ENDCHAR
STARTCHAR ogonek
ENCODING 731
SWIDTH 600 0
DWIDTH 20 0
BBX 5 6 9 -5
BITMAP
60
C0
80
80
D8
70
ENDCHAR
STARTCHAR tilde
ENCODING 732
SWIDTH 600 0
DWIDTH 20 0
BBX 9 3 5 17
BITMAP
7080
DD80
8700
ENDCHAR
STARTCHAR hungarumlaut
ENCODING 733
SWIDTH 600 0
DWIDTH 20 0
BBX 9 5 5 16
BITMAP
1080
3180
6300
C600
8400
ENDCHAR
STARTCHAR uni02EE
ENCODING 750
SWIDTH 600 0
DWIDTH 20 0
BBX 13 9 3 12
BITMAP
1E38
1C78
3C70
38F0
70E0
70C0
61C0
E180
C180
ENDCHAR
STARTCHAR uni037E
ENCODING 894
SWIDTH 600 0
DWIDTH 20 0
BBX 7 18 5 -4
BITMAP
1C
3E
3E
1C
00
00
00
00
00
3C
3C
78
70
70
E0
C0
C0
80
ENDCHAR
STARTCHAR tonos
ENCODING 900
SWIDTH 600 0
DWIDTH 20 0
BBX 6 5 9 17
BITMAP
0C
18
30
60
C0
ENDCHAR
STARTCHAR dieresistonos
ENCODING 901
SWIDTH 600 0
DWIDTH 20 0
BBX 10 9 5 17
BITMAP
0180
0300
0600
0C00
1800
0000
6180
F3C0
6180
ENDCHAR
STARTCHAR anoteleia
ENCODING 903
SWIDTH 600 0
DWIDTH 20 0
BBX 5 4 7 7
BITMAP
70
F8
F8
70
ENDCHAR
STARTCHAR mu
ENCODING 956
SWIDTH 600 0
DWIDTH 20 0
BBX 16 20 1 -6
BITMAP
F03C
1004
1004
1004
1004
1004
1004
1004
1004
1004
180C
181C
1C34
17E7
1000
1000
1000
1000
1000
1000
ENDCHAR
STARTCHAR uni1E00
ENCODING 7680
SWIDTH 600 0
DWIDTH 20 0
BBX 19 26 0 -7
BITMAP
1FE000
00A000
00A000
011000
011000
011000
020800
020800
020800
040400
040400
040400
0FFE00
080200
080200
100100
100100
300180
FE0FE0
000000
00E000
01B000
011000
011000
01B000
00E000
ENDCHAR
STARTCHAR uni1E01
ENCODING 7681
SWIDTH 600 0
DWIDTH 20 0
BBX 15 21 2 -7
BITMAP
0F80
38E0
0020
0030
0010
0010
1FF0
7030
C010
8010
8010
8030
C0F0
7F9E
0000
0380
06C0
0440
0440
06C0
0380
ENDCHAR
STARTCHAR uni1E02
ENCODING 7682
SWIDTH 600 0
DWIDTH 20 0
BBX 16 23 1 0
BITMAP
0180
03C0
0180
0000
FFF0
100C
1004
1006
1002
1002
1006
1004
100C
1FF8
1006
1002
1003
1001
1001
1003
1002
1006
FFF8
ENDCHAR
STARTCHAR uni1E03
ENCODING 7683
SWIDTH 600 0
DWIDTH 20 0
BBX 17 24 0 0
BITMAP
0C0000
1E0000
0C0000
000000
F00000
100000
100000
100000
100000
100000
11F800
170E00
140300
180100
180180
100080
100080
100080
100080
180180
180100
140300
170E00
F1F800
ENDCHAR
STARTCHAR uni1E04
ENCODING 7684
SWIDTH 600 0
DWIDTH 20 0
BBX 16 23 1 -4
BITMAP
FFF0
100C
1004
1006
1002
1002
1006
1004
100C
1FF8
1006
1002
1003
1001
1001
1003
1002
1006
FFF8
0000
0180
03C0
0180
ENDCHAR
STARTCHAR uni1E05
ENCODING 7685
SWIDTH 600 0
DWIDTH 20 0
BBX 17 24 0 -4
BITMAP
F00000
100000
100000
100000
100000
100000
11F800
170E00
140300
180100
180180
100080
100080
100080
100080
180180
180100
140300
170E00
F1F800
000000
018000
03C000
018000
ENDCHAR
STARTCHAR uni1E06
ENCODING 7686
SWIDTH 600 0
DWIDTH 20 0
BBX 16 22 1 -3
BITMAP
FFF0
100C
1004
1006
1002
1002
1006
1004
100C
1FF8
1006
1002
1003
1001
1001
1003
1002
1006
FFF8
0000
0FF8
0FF8
ENDCHAR
STARTCHAR uni1E07
ENCODING 7687
SWIDTH 600 0
DWIDTH 20 0
BBX 17 23 0 -3
BITMAP
F00000
100000
100000
100000
100000
100000
11F800
170E00
140300
180100
180180
100080
100080
100080
100080
180180
180100
140300
170E00
F1F800
000000
0FF800
0FF800
ENDCHAR
STARTCHAR uni1E08
ENCODING 7688
SWIDTH 600 0
DWIDTH 20 0
BBX 15 30 2 -5
BITMAP
0030
0060
00C0
0180
0300
0000
07C4
1C74
300C
600C
4004
C004
8000
8000
8000
8000
8000
8000
8000
C000
4002
6004
301C
1C70
07C0
0100
0100
0180
04C0
0780
ENDCHAR
STARTCHAR uni1E09
ENCODING 7689
SWIDTH 600 0
DWIDTH 20 0
BBX 14 25 3 -5
BITMAP
0060
00C0
0180
0300
0600
0000
0FC8
3868
6018
4018
C008
8008
8000
8000
8000
C000
4004
601C
3870
0FC0
0200
0200
0300
0980
0F00
ENDCHAR
STARTCHAR uni1E0A
ENCODING 7690
SWIDTH 600 0
DWIDTH 20 0
BBX 15 23 1 0
BITMAP
0300
0780
0300
0000
FFC0
2070
2018
200C
2004
2006
2002
2002
2002
2002
2002
2002
2002
2006
2004
200C
2018
2070
FFC0
ENDCHAR
STARTCHAR uni1E0B
ENCODING 7691
SWIDTH 600 0
DWIDTH 20 0
BBX 17 24 2 0
BITMAP
003000
007800
003000
000000
003C00
000400
000400
000400
000400
000400
0FC400
387400
601400
400C00
C00C00
800400
800400
800400
800400
C00C00
400C00
601400
387400
0FC780
ENDCHAR
STARTCHAR uni1E0C
ENCODING 7692
SWIDTH 600 0
DWIDTH 20 0
BBX 15 23 1 -4
BITMAP
FFC0
2070
2018
200C
2004
2006
2002
2002
2002
2002
2002
2002
2002
2006
2004
200C
2018
2070
FFC0
0000
0300
0780
0300
ENDCHAR
STARTCHAR uni1E0D
ENCODING 7693
SWIDTH 600 0
DWIDTH 20 0
BBX 17 24 2 -4
BITMAP
003C00
000400
000400
000400
000400
000400
0FC400
387400
601400
400C00
C00C00
800400
800400
800400
800400
C00C00
400C00
601400
387400
0FC780
000000
00C000
01E000
00C000
ENDCHAR
STARTCHAR uni1E0E
ENCODING 7694
SWIDTH 600 0
DWIDTH 20 0
BBX 15 22 1 -3
BITMAP
FFC0
2070
2018
200C
2004
2006
2002
2002
2002
2002
2002
2002
2002
2006
2004
200C
2018
2070
FFC0
0000
1FF0
1FF0
ENDCHAR
STARTCHAR uni1E0F
ENCODING 7695
SWIDTH 600 0
DWIDTH 20 0
BBX 17 23 2 -3
BITMAP
003C00
000400
000400
000400
000400
000400
0FC400
387400
601400
400C00
C00C00
800400
800400
800400
800400
C00C00
400C00
601400
387400
0FC780
000000
0FF800
0FF800
ENDCHAR
STARTCHAR uni1E10
ENCODING 7696
SWIDTH 600 0
DWIDTH 20 0
BBX 15 24 1 -5
BITMAP
FFC0
2070
2018
200C
2004
2006
2002
2002
2002
2002
2002
2002
2002
2006
2004
200C
2018
2070
FFC0
0100
0100
0180
04C0
0780
ENDCHAR
STARTCHAR uni1E11
ENCODING 7697
SWIDTH 600 0
DWIDTH 20 0
BBX 17 25 2 -5
BITMAP
003C00
000400
000400
000400
000400
000400
0FC400
387400
601400
400C00
C00C00
800400
800400
800400
800400
C00C00
400C00
601400
387400
0FC780
008000
008000
00C000
026000
03C000
ENDCHAR
STARTCHAR uni1E12
ENCODING 7698
SWIDTH 600 0
DWIDTH 20 0
BBX 15 25 1 -6
BITMAP
FFC0
2070
2018
200C
2004
2006
2002
2002
2002
2002
2002
2002
2002
2006
2004
200C
2018
2070
FFC0
0000
0100
0380
06C0
0C60
1830
ENDCHAR
STARTCHAR uni1E13
ENCODING 7699
SWIDTH 600 0
DWIDTH 20 0
BBX 17 26 2 -6
BITMAP
003C00
000400
000400
000400
000400
000400
0FC400
387400
601400
400C00
C00C00
800400
800400
800400
800400
C00C00
400C00
601400
387400
0FC780
000000
008000
01C000
036000
063000
0C1800
ENDCHAR
STARTCHAR uni1E14
ENCODING 7700
SWIDTH 600 0
DWIDTH 20 0
BBX 15 28 1 0
BITMAP
1800
0C00
0600
0300
0180
0000
1FF0
1FF0
0000
FFFC
1004
1004
1004
1004
1044
1040
1040
1FC0
1040
1040
1040
1000
1002
1002
1002
1002
1002
FFFE
ENDCHAR
STARTCHAR uni1E15
ENCODING 7701
SWIDTH 600 0
DWIDTH 20 0
BBX 14 23 2 0
BITMAP
1800
0C00
0600
0300
0180
0000
1FF0
1FF0
0000
0FC0
3870
6018
4008
C00C
8004
FFFC
8000
8000
C000
4000
600C
3838
0FE0
ENDCHAR
STARTCHAR uni1E16
ENCODING 7702
SWIDTH 600 0
DWIDTH 20 0
BBX 15 28 1 0
BITMAP
0060
00C0
0180
0300
0600
0000
1FF0
1FF0
0000
FFFC
1004
1004
1004
1004
1044
1040
1040
1FC0
1040
1040
1040
1000
1002
1002
1002
1002
1002
FFFE
ENDCHAR
STARTCHAR uni1E17
ENCODING 7703
SWIDTH 600 0
DWIDTH 20 0
BBX 14 23 2 0
BITMAP
0060
00C0
0180
0300
0600
0000
1FF0
1FF0
0000
0FC0
3870
6018
4008
C00C
8004
FFFC
8000
8000
C000
4000
600C
3838
0FE0
ENDCHAR
STARTCHAR uni1E18
ENCODING 7704
SWIDTH 600 0
DWIDTH 20 0
BBX 15 25 1 -6
BITMAP
FFFC
1004
1004
1004
1004
1044
1040
1040
1FC0
1040
1040
1040
1000
1002
1002
1002
1002
1002
FFFE
0000
0100
0380
06C0
0C60
1830
ENDCHAR
STARTCHAR uni1E19
ENCODING 7705
SWIDTH 600 0
DWIDTH 20 0
BBX 14 20 2 -6
BITMAP
0FC0
3870
6018
4008
C00C
8004
FFFC
8000
8000
C000
4000
600C
3838
0FE0
0000
0100
0380
06C0
0C60
1830
ENDCHAR
STARTCHAR uni1E1A
ENCODING 7706
SWIDTH 600 0
DWIDTH 20 0
BBX 15 23 1 -4
BITMAP
FFFC
1004
1004
1004
1004
1044
1040
1040
1FC0
1040
1040
1040
1000
1002
1002
1002
1002
1002
FFFE
0000
0708
0DD8
0870
ENDCHAR
STARTCHAR uni1E1B
ENCODING 7707
SWIDTH 600 0
DWIDTH 20 0
BBX 14 18 2 -4
BITMAP
0FC0
3870
6018
4008
C00C
8004
FFFC
8000
8000
C000
4000
600C
3838
0FE0
0000
0E10
1BB0
10E0
ENDCHAR
STARTCHAR uni1E1C
ENCODING 7708
SWIDTH 600 0
DWIDTH 20 0
BBX 15 30 1 -5
BITMAP
1010
1830
0820
0EE0
0380
0000
FFFC
1004
1004
1004
1004
1044
1040
1040
1FC0
1040
1040
1040
1000
1002
1002
1002
1002
1002
FFFE
0100
0100
0180
04C0
0780
ENDCHAR
STARTCHAR uni1E1D
ENCODING 7709
SWIDTH 600 0
DWIDTH 20 0
BBX 14 25 2 -5
BITMAP
1010
1830
0820
0EE0
0380
0000
0FC0
3870
6018
4008
C00C
8004
FFFC
8000
8000
C000
4000
600C
3838
0FE0
0100
0100
0180
04C0
0780
ENDCHAR
STARTCHAR uni1E1E
ENCODING 7710
SWIDTH 600 0
DWIDTH 20 0
BBX 15 23 1 0
BITMAP
0180
03C0
0180
0000
FFFE
1002
1002
1002
1002
1042
1040
1040
1FC0
1040
1040
1040
1000
1000
1000
1000
1000
1000
FF80
ENDCHAR
STARTCHAR uni1E1F
ENCODING 7711
SWIDTH 600 0
DWIDTH 20 0
BBX 13 24 3 0
BITMAP
0300
0780
0300
0000
03E0
0618
0400
0C00
0800
0800
FFF0
0800
0800
0800
0800
0800
0800
0800
0800
0800
0800
0800
0800
FFF0
ENDCHAR
STARTCHAR uni1E20
ENCODING 7712
SWIDTH 600 0
DWIDTH 20 0
BBX 15 22 2 0
BITMAP
1FF0
1FF0
0000
07C4
1C74
300C
6004
4004
C004
8000
8000
8000
8000
8000
80FE
8004
C004
4004
6004
3004
1C1C
07F0
ENDCHAR
STARTCHAR uni1E21
ENCODING 7713
SWIDTH 600 0
DWIDTH 20 0
BBX 17 23 2 -6
BITMAP
0FF800
0FF800
000000
0FC780
387400
601400
400C00
C00C00
800400
800400
800400
800400
C00C00
400C00
601400
387400
0FC400
000400
000400
000C00
000800
003800
0FE000
ENDCHAR
STARTCHAR uni1E22
ENCODING 7714
SWIDTH 600 0
DWIDTH 20 0
BBX 15 23 2 0
BITMAP
0180
03C0
0180
0000
FC7E
2008
2008
2008
2008
2008
2008
2008
2008
3FF8
2008
2008
2008
2008
2008
2008
2008
2008
FC7E
ENDCHAR
STARTCHAR uni1E23
ENCODING 7715
SWIDTH 600 0
DWIDTH 20 0
BBX 16 24 1 0
BITMAP
0C00
1E00
0C00
0000
F000
1000
1000
1000
1000
1000
11E0
1738
1408
180C
1804
1004
1004
1004
1004
1004
1004
1004
1004
7C1F
ENDCHAR
STARTCHAR uni1E24
ENCODING 7716
SWIDTH 600 0
DWIDTH 20 0
BBX 15 23 2 -4
BITMAP
FC7E
2008
2008
2008
2008
2008
2008
2008
2008
3FF8
2008
2008
2008
2008
2008
2008
2008
2008
FC7E
0000
0180
03C0
0180
ENDCHAR
STARTCHAR uni1E25
ENCODING 7717
SWIDTH 600 0
DWIDTH 20 0
BBX 16 24 1 -4
BITMAP
F000
1000
1000
1000
1000
1000
11E0
1738
1408
180C
1804
1004
1004
1004
1004
1004
1004
1004
1004
7C1F
0000
0180
03C0
0180
ENDCHAR
STARTCHAR uni1E26
ENCODING 7718
SWIDTH 600 0
DWIDTH 20 0
BBX 15 23 2 0
BITMAP
0C30
1E78
0C30
0000
FC7E
2008
2008
2008
2008
2008
2008
2008
2008
3FF8
2008
2008
2008
2008
2008
2008
2008
2008
FC7E
ENDCHAR
STARTCHAR uni1E27
ENCODING 7719
SWIDTH 600 0
DWIDTH 20 0
BBX 16 24 1 0
BITMAP
6180
F3C0
6180
0000
F000
1000
1000
1000
1000
1000
11E0
1738
1408
180C
1804
1004
1004
1004
1004
1004
1004
1004
1004
7C1F
ENDCHAR
STARTCHAR uni1E28
ENCODING 7720
SWIDTH 600 0
DWIDTH 20 0
BBX 15 24 2 -5
BITMAP
FC7E
2008
2008
2008
2008
2008
2008
2008
2008
3FF8
2008
2008
2008
2008
2008
2008
2008
2008
FC7E
0100
0100
0180
04C0
0780
ENDCHAR
STARTCHAR uni1E29
ENCODING 7721
SWIDTH 600 0
DWIDTH 20 0
BBX 16 25 1 -5
BITMAP
F000
1000
1000
1000
1000
1000
11E0
1738
1408
180C
1804
1004
1004
1004
1004
1004
1004
1004
1004
7C1F
0080
0080
00C0
0260
03C0
ENDCHAR
STARTCHAR uni1E2A
ENCODING 7722
SWIDTH 600 0
DWIDTH 20 0
BBX 15 25 2 -6
BITMAP
FC7E
2008
2008
2008
2008
2008
2008
2008
2008
3FF8
2008
2008
2008
2008
2008
2008
2008
2008
FC7E
0000
1010
1830
0820
0EE0
0380
ENDCHAR
STARTCHAR uni1E2B
ENCODING 7723
SWIDTH 600 0
DWIDTH 20 0
BBX 16 26 1 -6
BITMAP
F000
1000
1000
1000
1000
1000
11E0
1738
1408
180C
1804
1004
1004
1004
1004
1004
1004
1004
1004
7C1F
0000
0808
0C18
0410
0770
01C0
ENDCHAR
STARTCHAR uni1E2C
ENCODING 7724
SWIDTH 600 0
DWIDTH 20 0
BBX 11 23 4 -4
BITMAP
FFE0
0400
0400
0400
0400
0400
0400
0400
0400
0400
0400
0400
0400
0400
0400
0400
0400
0400
FFE0
0000
3840
6EC0
4380
ENDCHAR
STARTCHAR uni1E2D
ENCODING 7725
SWIDTH 600 0
DWIDTH 20 0
BBX 13 24 3 -4
BITMAP
0600
0600
0600
0000
0000
0000
7E00
0200
0200
0200
0200
0200
0200
0200
0200
0200
0200
0200
0200
FFF8
0000
1C20
3760
21C0
ENDCHAR
STARTCHAR uni1E2E
ENCODING 7726
SWIDTH 600 0
DWIDTH 20 0
BBX 11 30 4 0
BITMAP
00C0
0180
0300
0600
0C00
0000
60C0
F1E0
60C0
0000
0000
FFE0
0400
0400
0400
0400
0400
0400
0400
0400
0400
0400
0400
0400
0400
0400
0400
0400
0400
FFE0
ENDCHAR
STARTCHAR uni1E2F
ENCODING 7727
SWIDTH 600 0
DWIDTH 20 0
BBX 13 26 3 0
BITMAP
00C0
0180
0300
0600
0C00
0000
6180
F3C0
6180
0000
0000
0000
7E00
0200
0200
0200
0200
0200
0200
0200
0200
0200
0200
0200
0200
FFF8
ENDCHAR
STARTCHAR uni1E30
ENCODING 7728
SWIDTH 600 0
DWIDTH 20 0
BBX 17 25 1 0
BITMAP
003000
006000
00C000
018000
030000
000000
FE1F80
100400
100C00
100800
101000
103000
104000
10C000
138000
1CC000
102000
103000
101000
101800
100800
100800
100C00
100400
FE0780
ENDCHAR
STARTCHAR uni1E31
ENCODING 7729
SWIDTH 600 0
DWIDTH 20 0
BBX 15 26 2 0
BITMAP
0300
0600
0C00
1800
3000
0000
F000
1000
1000
1000
1000
1000
10FC
1030
1060
10C0
1180
1300
1E00
1300
1180
10C0
1060
1030
1018
F03E
ENDCHAR
STARTCHAR uni1E32
ENCODING 7730
SWIDTH 600 0
DWIDTH 20 0
BBX 17 23 1 -4
BITMAP
FE1F80
100400
100C00
100800
101000
103000
104000
10C000
138000
1CC000
102000
103000
101000
101800
100800
100800
100C00
100400
FE0780
000000
018000
03C000
018000
ENDCHAR
STARTCHAR uni1E33
ENCODING 7731
SWIDTH 600 0
DWIDTH 20 0
BBX 15 24 2 -4
BITMAP
F000
1000
1000
1000
1000
1000
10FC
1030
1060
10C0
1180
1300
1E00
1300
1180
10C0
1060
1030
1018
F03E
0000
0180
03C0
0180
ENDCHAR
STARTCHAR uni1E34
ENCODING 7732
SWIDTH 600 0
DWIDTH 20 0
BBX 17 22 1 -3
BITMAP
FE1F80
100400
100C00
100800
101000
103000
104000
10C000
138000
1CC000
102000
103000
101000
101800
100800
100800
100C00
100400
FE0780
000000
0FF800
0FF800
ENDCHAR
STARTCHAR uni1E35
ENCODING 7733
SWIDTH 600 0
DWIDTH 20 0
BBX 15 23 2 -3
BITMAP
F000
1000
1000
1000
1000
1000
10FC
1030
1060
10C0
1180
1300
1E00
1300
1180
10C0
1060
1030
1018
F03E
0000
1FF0
1FF0
ENDCHAR
STARTCHAR uni1E36
ENCODING 7734
SWIDTH 600 0
DWIDTH 20 0
BBX 15 23 2 -4
BITMAP
FF80
0800
0800
0800
0800
0800
0800
0800
0800
0800
0800
0800
0802
0802
0802
0802
0802
0802
FFFE
0000
0180
03C0
0180
ENDCHAR
STARTCHAR uni1E37
ENCODING 7735
SWIDTH 600 0
DWIDTH 20 0
BBX 13 24 3 -4
BITMAP
7E00
0200
0200
0200
0200
0200
0200
0200
0200
0200
0200
0200
0200
0200
0200
0200
0200
0200
0200
FFF8
0000
0300
0780
0300
ENDCHAR
STARTCHAR uni1E38
ENCODING 7736
SWIDTH 600 0
DWIDTH 20 0
BBX 15 26 2 -4
BITMAP
7FC0
7FC0
0000
FF80
0800
0800
0800
0800
0800
0800
0800
0800
0800
0800
0800
0802
0802
0802
0802
0802
0802
FFFE
0000
0180
03C0
0180
ENDCHAR
STARTCHAR uni1E39
ENCODING 7737
SWIDTH 600 0
DWIDTH 20 0
BBX 13 27 3 -4
BITMAP
7FC0
7FC0
0000
7E00
0200
0200
0200
0200
0200
0200
0200
0200
0200
0200
0200
0200
0200
0200
0200
0200
0200
0200
FFF8
0000
0300
0780
0300
ENDCHAR
STARTCHAR uni1E3A
ENCODING 7738
SWIDTH 600 0
DWIDTH 20 0
BBX 15 22 2 -3
BITMAP
FF80
0800
0800
0800
0800
0800
0800
0800
0800
0800
0800
0800
0802
0802
0802
0802
0802
0802
FFFE
0000
1FF0
1FF0
ENDCHAR
STARTCHAR uni1E3B
ENCODING 7739
SWIDTH 600 0
DWIDTH 20 0
BBX 13 23 3 -3
BITMAP
7E00
0200
0200
0200
0200
0200
0200
0200
0200
0200
0200
0200
0200
0200
0200
0200
0200
0200
0200
FFF8
0000
3FE0
3FE0
ENDCHAR
STARTCHAR uni1E3C
ENCODING 7740
SWIDTH 600 0
DWIDTH 20 0
BBX 15 25 2 -6
BITMAP
FF80
0800
0800
0800
0800
0800
0800
0800
0800
0800
0800
0800
0802
0802
0802
0802
0802
0802
FFFE
0000
0100
0380
06C0
0C60
1830
ENDCHAR
STARTCHAR uni1E3D
ENCODING 7741
SWIDTH 600 0
DWIDTH 20 0
BBX 13 26 3 -6
BITMAP
7E00
0200
0200
0200
0200
0200
0200
0200
0200
0200
0200
0200
0200
0200
0200
0200
0200
0200
0200
FFF8
0000
0200
0700
0D80
18C0
3060
ENDCHAR
STARTCHAR uni1E3E
ENCODING 7742
SWIDTH 600 0
DWIDTH 20 0
BBX 19 25 0 0
BITMAP
000C00
001800
003000
006000
00C000
000000
F803E0
280280
280280
240480
240480
220880
220880
211080
211080
211080
20A080
20A080
204080
204080
200080
200080
200080
200080
FE07E0
ENDCHAR
STARTCHAR uni1E3F
ENCODING 7743
SWIDTH 600 0
DWIDTH 20 0
BBX 19 20 0 0
BITMAP
001800
003000
006000
00C000
018000
000000
E70E00
299300
30E180
306080
204080
204080
204080
204080
204080
204080
204080
204080
204080
F870E0
ENDCHAR
STARTCHAR uni1E40
ENCODING 7744
SWIDTH 600 0
DWIDTH 20 0
BBX 19 23 0 0
BITMAP
006000
00F000
006000
000000
F803E0
280280
280280
240480
240480
220880
220880
211080
211080
211080
20A080
20A080
204080
204080
200080
200080
200080
200080
FE07E0
ENDCHAR
STARTCHAR uni1E41
ENCODING 7745
SWIDTH 600 0
DWIDTH 20 0
BBX 19 18 0 0
BITMAP
00C000
01E000
00C000
000000
E70E00
299300
30E180
306080
204080
204080
204080
204080
204080
204080
204080
204080
204080
F870E0
ENDCHAR
STARTCHAR uni1E42
ENCODING 7746
SWIDTH 600 0
DWIDTH 20 0
BBX 19 23 0 -4
BITMAP
F803E0
280280
280280
240480
240480
220880
220880
211080
211080
211080
20A080
20A080
204080
204080
200080
200080
200080
200080
FE07E0
000000
00C000
01E000
00C000
ENDCHAR
STARTCHAR uni1E43
ENCODING 7747
SWIDTH 600 0
DWIDTH 20 0
BBX 19 18 0 -4
BITMAP
E70E00
299300
30E180
306080
204080
204080
204080
204080
204080
204080
204080
204080
204080
F870E0
000000
00C000
01E000
00C000
ENDCHAR
STARTCHAR uni1E44
ENCODING 7748
SWIDTH 600 0
DWIDTH 20 0
BBX 18 23 0 0
BITMAP
00C000
01E000
00C000
000000
F81FC0
1C0100
140100
120100
120100
110100
108100
108100
104100
104100
102100
102100
101100
101100
100900
100900
100500
100700
7F0300
ENDCHAR
STARTCHAR uni1E45
ENCODING 7749
SWIDTH 600 0
DWIDTH 20 0
BBX 15 18 2 0
BITMAP
0300
0780
0300
0000
E3C0
2E70
2810
3018
3008
2008
2008
2008
2008
2008
2008
2008
2008
F83E
ENDCHAR
STARTCHAR uni1E46
ENCODING 7750
SWIDTH 600 0
DWIDTH 20 0
BBX 18 23 0 -4
BITMAP
F81FC0
1C0100
140100
120100
120100
110100
108100
108100
104100
104100
102100
102100
101100
101100
100900
100900
100500
100700
7F0300
000000
00C000
01E000
00C000
ENDCHAR
STARTCHAR uni1E47
ENCODING 7751
SWIDTH 600 0
DWIDTH 20 0
BBX 15 18 2 -4
BITMAP
E3C0
2E70
2810
3018
3008
2008
2008
2008
2008
2008
2008
2008
2008
F83E
0000
0180
03C0
0180
ENDCHAR
STARTCHAR uni1E48
ENCODING 7752
SWIDTH 600 0
DWIDTH 20 0
BBX 18 22 0 -3
BITMAP
F81FC0
1C0100
140100
120100
120100
110100
108100
108100
104100
104100
102100
102100
101100
101100
100900
100900
100500
100700
7F0300
000000
07FC00
07FC00
ENDCHAR
STARTCHAR uni1E49
ENCODING 7753
SWIDTH 600 0
DWIDTH 20 0
BBX 15 17 2 -3
BITMAP
E3C0
2E70
2810
3018
3008
2008
2008
2008
2008
2008
2008
2008
2008
F83E
0000
1FF0
1FF0
ENDCHAR
STARTCHAR uni1E4A
ENCODING 7754
SWIDTH 600 0
DWIDTH 20 0
BBX 18 25 0 -6
BITMAP
F81FC0
1C0100
140100
120100
120100
110100
108100
108100
104100
104100
102100
102100
101100
101100
100900
100900
100500
100700
7F0300
000000
004000
00E000
01B000
031800
060C00
ENDCHAR
STARTCHAR uni1E4B
ENCODING 7755
SWIDTH 600 0
DWIDTH 20 0
BBX 15 20 2 -6
BITMAP
E3C0
2E70
2810
3018
3008
2008
2008
2008
2008
2008
2008
2008
2008
F83E
0000
0100
0380
06C0
0C60
1830
ENDCHAR
STARTCHAR uni1E4C
ENCODING 7756
SWIDTH 600 0
DWIDTH 20 0
BBX 15 30 2 0
BITMAP
0030
0060
00C0
0180
0300
0000
0E10
1BB0
10E0
0000
0000
07C0
1C70
3018
600C
4004
C006
8002
8002
8002
8002
8002
8002
C006
4004
600C
2008
3018
1C70
07C0
ENDCHAR
STARTCHAR uni1E4D
ENCODING 7757
SWIDTH 600 0
DWIDTH 20 0
BBX 15 26 2 0
BITMAP
0030
0060
00C0
0180
0300
0000
0E10
1BB0
10E0
0000
0000
0000
0FE0
3838
600C
4004
C006
8002
8002
8002
8002
C006
4004
600C
3838
0FE0
ENDCHAR
STARTCHAR uni1E4E
ENCODING 7758
SWIDTH 600 0
DWIDTH 20 0
BBX 15 28 2 0
BITMAP
0C30
1E78
0C30
0000
0E10
1BB0
10E0
0000
0000
07C0
1C70
3018
600C
4004
C006
8002
8002
8002
8002
8002
8002
C006
4004
600C
2008
3018
1C70
07C0
ENDCHAR
STARTCHAR uni1E4F
ENCODING 7759
SWIDTH 600 0
DWIDTH 20 0
BBX 15 24 2 0
BITMAP
0C30
1E78
0C30
0000
0E10
1BB0
10E0
0000
0000
0000
0FE0
3838
600C
4004
C006
8002
8002
8002
8002
C006
4004
600C
3838
0FE0
ENDCHAR
STARTCHAR uni1E50
ENCODING 7760
SWIDTH 600 0
DWIDTH 20 0
BBX 15 28 2 0
BITMAP
0C00
0600
0300
0180
00C0
0000
1FF0
1FF0
0000
07C0
1830
3018
600C
4004
C006
8002
8002
8002
8002
8002
8002
8002
C006
4004
600C
3018
1830
07C0
ENDCHAR
STARTCHAR uni1E51
ENCODING 7761
SWIDTH 600 0
DWIDTH 20 0
BBX 15 23 2 0
BITMAP
0C00
0600
0300
0180
00C0
0000
1FF0
1FF0
0000
0FE0
3838
600C
4004
C006
8002
8002
8002
8002
C006
4004
600C
3838
0FE0
ENDCHAR
STARTCHAR uni1E52
ENCODING 7762
SWIDTH 600 0
DWIDTH 20 0
BBX 15 28 2 0
BITMAP
0030
0060
00C0
0180
0300
0000
1FF0
1FF0
0000
07C0
1830
3018
600C
4004
C006
8002
8002
8002
8002
8002
8002
8002
C006
4004
600C
3018
1830
07C0
ENDCHAR
STARTCHAR uni1E53
ENCODING 7763
SWIDTH 600 0
DWIDTH 20 0
BBX 15 23 2 0
BITMAP
0030
0060
00C0
0180
0300
0000
1FF0
1FF0
0000
0FE0
3838
600C
4004
C006
8002
8002
8002
8002
C006
4004
600C
3838
0FE0
ENDCHAR
STARTCHAR uni1E54
ENCODING 7764
SWIDTH 600 0
DWIDTH 20 0
BBX 15 25 1 0
BITMAP
0030
0060
00C0
0180
0300
0000
FFE0
1038
1004
1006
1002
1002
1002
1006
1004
1038
1FE0
1000
1000
1000
1000
1000
1000
1000
FFC0
ENDCHAR
STARTCHAR uni1E55
ENCODING 7765
SWIDTH 600 0
DWIDTH 20 0
BBX 17 26 0 -6
BITMAP
001800
003000
006000
00C000
018000
000000
01F800
F70E00
140300
180100
180180
100080
100080
100080
100080
180180
180100
140300
170E00
11F800
100000
100000
100000
100000
100000
FF0000
ENDCHAR
STARTCHAR uni1E56
ENCODING 7766
SWIDTH 600 0
DWIDTH 20 0
BBX 15 23 1 0
BITMAP
0180
03C0
0180
0000
FFE0
1038
1004
1006
1002
1002
1002
1006
1004
1038
1FE0
1000
1000
1000
1000
1000
1000
1000
FFC0
ENDCHAR
STARTCHAR uni1E57
ENCODING 7767
SWIDTH 600 0
DWIDTH 20 0
BBX 17 24 0 -6
BITMAP
00C000
01E000
00C000
000000
01F800
F70E00
140300
180100
180180
100080
100080
100080
100080
180180
180100
140300
170E00
11F800
100000
100000
100000
100000
100000
FF0000
ENDCHAR
STARTCHAR uni1E58
ENCODING 7768
SWIDTH 600 0
DWIDTH 20 0
BBX 18 23 1 0
BITMAP
018000
03C000
018000
000000
FFE000
103800
100400
100600
100200
100200
100600
100400
101800
1FE000
106000
103000
101800
100C00
100400
100600
100200
100300
FE01C0
ENDCHAR
STARTCHAR uni1E59
ENCODING 7769
SWIDTH 600 0
DWIDTH 20 0
BBX 15 18 3 0
BITMAP
0180
03C0
0180
0000
787C
09C6
0B00
0C00
0C00
0800
0800
0800
0800
0800
0800
0800
0800
FFF0
ENDCHAR
STARTCHAR uni1E5A
ENCODING 7770
SWIDTH 600 0
DWIDTH 20 0
BBX 18 23 1 -4
BITMAP
FFE000
103800
100400
100600
100200
100200
100600
100400
101800
1FE000
106000
103000
101800
100C00
100400
100600
100200
100300
FE01C0
000000
00C000
01E000
00C000
ENDCHAR
STARTCHAR uni1E5B
ENCODING 7771
SWIDTH 600 0
DWIDTH 20 0
BBX 15 18 3 -4
BITMAP
787C
09C6
0B00
0C00
0C00
0800
0800
0800
0800
0800
0800
0800
0800
FFF0
0000
0600
0F00
0600
ENDCHAR
STARTCHAR uni1E5C
ENCODING 7772
SWIDTH 600 0
DWIDTH 20 0
BBX 18 26 1 -4
BITMAP
0FF800
0FF800
000000
FFE000
103800
100400
100600
100200
100200
100600
100400
101800
1FE000
106000
103000
101800
100C00
100400
100600
100200
100300
FE01C0
000000
00C000
01E000
00C000
ENDCHAR
STARTCHAR uni1E5D
ENCODING 7773
SWIDTH 600 0
DWIDTH 20 0
BBX 15 21 3 -4
BITMAP
1FF0
1FF0
0000
787C
09C6
0B00
0C00
0C00
0800
0800
0800
0800
0800
0800
0800
0800
FFF0
0000
0600
0F00
0600
ENDCHAR
STARTCHAR uni1E5E
ENCODING 7774
SWIDTH 600 0
DWIDTH 20 0
BBX 18 22 1 -3
BITMAP
FFE000
103800
100400
100600
100200
100200
100600
100400
101800
1FE000
106000
103000
101800
100C00
100400
100600
100200
100300
FE01C0
000000
0FF800
0FF800
ENDCHAR
STARTCHAR uni1E5F
ENCODING 7775
SWIDTH 600 0
DWIDTH 20 0
BBX 15 17 3 -3
BITMAP
787C
09C6
0B00
0C00
0C00
0800
0800
0800
0800
0800
0800
0800
0800
FFF0
0000
3FE0
3FE0
ENDCHAR
STARTCHAR uni1E60
ENCODING 7776
SWIDTH 600 0
DWIDTH 20 0
BBX 12 23 3 0
BITMAP
0300
0780
0300
0000
0F90
38D0
6030
4030
4010
4010
4000
6000
3800
0F00
01C0
0060
0030
8010
8010
C010
E030
B8E0
8F80
ENDCHAR
STARTCHAR uni1E61
ENCODING 7777
SWIDTH 600 0
DWIDTH 20 0
BBX 13 18 3 0
BITMAP
0300
0780
0300
0000
0F90
38F0
6030
4010
6000
3800
0F80
00E0
0030
8018
8018
C030
F8E0
8F80
ENDCHAR
STARTCHAR uni1E62
ENCODING 7778
SWIDTH 600 0
DWIDTH 20 0
BBX 12 23 3 -4
BITMAP
0F90
38D0
6030
4030
4010
4010
4000
6000
3800
0F00
01C0
0060
0030
8010
8010
C010
E030
B8E0
8F80
0000
0600
0F00
0600
ENDCHAR
STARTCHAR uni1E63
ENCODING 7779
SWIDTH 600 0
DWIDTH 20 0
BBX 13 18 3 -4
BITMAP
0F90
38F0
6030
4010
6000
3800
0F80
00E0
0030
8018
8018
C030
F8E0
8F80
0000
0600
0F00
0600
ENDCHAR
STARTCHAR uni1E64
ENCODING 7780
SWIDTH 600 0
DWIDTH 20 0
BBX 12 29 3 0
BITMAP
0300
0780
0300
0000
0060
00C0
0180
0300
0600
0000
0F90
38D0
6030
4030
4010
4010
4000
6000
3800
0F00
01C0
0060
0030
8010
8010
C010
E030
B8E0
8F80
ENDCHAR
STARTCHAR uni1E65
ENCODING 7781
SWIDTH 600 0
DWIDTH 20 0
BBX 13 24 3 0
BITMAP
0180
03C0
0180
0000
0060
00C0
0180
0300
0600
0000
0F90
38F0
6030
4010
6000
3800
0F80
00E0
0030
8018
8018
C030
F8E0
8F80
ENDCHAR
STARTCHAR uni1E66
ENCODING 7782
SWIDTH 600 0
DWIDTH 20 0
BBX 12 30 3 0
BITMAP
0600
0F00
0600
0000
3060
18C0
0D80
0700
0200
0000
0000
0F90
38D0
6030
4030
4010
4010
4000
6000
3800
0F00
01C0
0060
0030
8010
8010
C010
E030
B8E0
8F80
ENDCHAR
STARTCHAR uni1E67
ENCODING 7783
SWIDTH 600 0
DWIDTH 20 0
BBX 13 25 3 0
BITMAP
0300
0780
0300
0000
3060
18C0
0D80
0700
0200
0000
0000
0F90
38F0
6030
4010
6000
3800
0F80
00E0
0030
8018
8018
C030
F8E0
8F80
ENDCHAR
STARTCHAR uni1E68
ENCODING 7784
SWIDTH 600 0
DWIDTH 20 0
BBX 12 27 3 -4
BITMAP
0300
0780
0300
0000
0F90
38D0
6030
4030
4010
4010
4000
6000
3800
0F00
01C0
0060
0030
8010
8010
C010
E030
B8E0
8F80
0000
0600
0F00
0600
ENDCHAR
STARTCHAR uni1E69
ENCODING 7785
SWIDTH 600 0
DWIDTH 20 0
BBX 13 22 3 -4
BITMAP
0300
0780
0300
0000
0F90
38F0
6030
4010
6000
3800
0F80
00E0
0030
8018
8018
C030
F8E0
8F80
0000
0600
0F00
0600
ENDCHAR
STARTCHAR uni1E6A
ENCODING 7786
SWIDTH 600 0
DWIDTH 20 0
BBX 15 23 2 0
BITMAP
0180
03C0
0180
0000
FFFE
8102
8102
8102
8102
8102
8102
0100
0100
0100
0100
0100
0100
0100
0100
0100
0100
0100
3FF8
ENDCHAR
STARTCHAR uni1E6B
ENCODING 7787
SWIDTH 600 0
DWIDTH 20 0
BBX 14 23 2 0
BITMAP
0C00
1E00
0C00
0000
1000
1000
1000
1000
1000
FFF0
1000
1000
1000
1000
1000
1000
1000
1000
1000
1000
180C
0C38
07E0
ENDCHAR
STARTCHAR uni1E6C
ENCODING 7788
SWIDTH 600 0
DWIDTH 20 0
BBX 15 23 2 -4
BITMAP
FFFE
8102
8102
8102
8102
8102
8102
0100
0100
0100
0100
0100
0100
0100
0100
0100
0100
0100
3FF8
0000
0180
03C0
0180
ENDCHAR
STARTCHAR uni1E6D
ENCODING 7789
SWIDTH 600 0
DWIDTH 20 0
BBX 14 23 2 -4
BITMAP
1000
1000
1000
1000
1000
FFF0
1000
1000
1000
1000
1000
1000
1000
1000
1000
1000
180C
0C38
07E0
0000
0180
03C0
0180
ENDCHAR
STARTCHAR uni1E6E
ENCODING 7790
SWIDTH 600 0
DWIDTH 20 0
BBX 15 22 2 -3
BITMAP
FFFE
8102
8102
8102
8102
8102
8102
0100
0100
0100
0100
0100
0100
0100
0100
0100
0100
0100
3FF8
0000
1FF0
1FF0
ENDCHAR
STARTCHAR uni1E6F
ENCODING 7791
SWIDTH 600 0
DWIDTH 20 0
BBX 14 22 2 -3
BITMAP
1000
1000
1000
1000
1000
FFF0
1000
1000
1000
1000
1000
1000
1000
1000
1000
1000
180C
0C38
07E0
0000
1FF0
1FF0
ENDCHAR
STARTCHAR uni1E70
ENCODING 7792
SWIDTH 600 0
DWIDTH 20 0
BBX 15 25 2 -6
BITMAP
FFFE
8102
8102
8102
8102
8102
8102
0100
0100
0100
0100
0100
0100
0100
0100
0100
0100
0100
3FF8
0000
0100
0380
06C0
0C60
1830
ENDCHAR
STARTCHAR uni1E71
ENCODING 7793
SWIDTH 600 0
DWIDTH 20 0
BBX 14 25 2 -6
BITMAP
1000
1000
1000
1000
1000
FFF0
1000
1000
1000
1000
1000
1000
1000
1000
1000
1000
180C
0C38
07E0
0000
0100
0380
06C0
0C60
1830
ENDCHAR
STARTCHAR uni1E72
ENCODING 7794
SWIDTH 600 0
DWIDTH 20 0
BBX 17 23 1 -4
BITMAP
FE3F80
200200
200200
200200
200200
200200
200200
200200
200200
200200
200200
200200
200200
200200
300600
100400
180C00
0E3800
03E000
000000
061800
0F3C00
061800
ENDCHAR
STARTCHAR uni1E73
ENCODING 7795
SWIDTH 600 0
DWIDTH 20 0
BBX 16 18 1 -4
BITMAP
F03C
1004
1004
1004
1004
1004
1004
1004
1004
1004
100C
180C
0C34
07E7
0000
0618
0F3C
0618
ENDCHAR
STARTCHAR uni1E74
ENCODING 7796
SWIDTH 600 0
DWIDTH 20 0
BBX 17 23 1 -4
BITMAP
FE3F80
200200
200200
200200
200200
200200
200200
200200
200200
200200
200200
200200
200200
200200
300600
100400
180C00
0E3800
03E000
000000
070800
0DD800
087000
ENDCHAR
STARTCHAR uni1E75
ENCODING 7797
SWIDTH 600 0
DWIDTH 20 0
BBX 16 18 1 -4
BITMAP
F03C
1004
1004
1004
1004
1004
1004
1004
1004
1004
100C
180C
0C34
07E7
0000
0384
06EC
0438
ENDCHAR
STARTCHAR uni1E76
ENCODING 7798
SWIDTH 600 0
DWIDTH 20 0
BBX 17 25 1 -6
BITMAP
FE3F80
200200
200200
200200
200200
200200
200200
200200
200200
200200
200200
200200
200200
200200
300600
100400
180C00
0E3800
03E000
000000
008000
01C000
036000
063000
0C1800
ENDCHAR
STARTCHAR uni1E77
ENCODING 7799
SWIDTH 600 0
DWIDTH 20 0
BBX 16 20 1 -6
BITMAP
F03C
1004
1004
1004
1004
1004
1004
1004
1004
1004
100C
180C
0C34
07E7
0000
0040
00E0
01B0
0318
060C
ENDCHAR
STARTCHAR uni1E78
ENCODING 7800
SWIDTH 600 0
DWIDTH 20 0
BBX 17 29 1 0
BITMAP
001800
003000
006000
00C000
018000
000000
070800
0DD800
087000
000000
FE3F80
200200
200200
200200
200200
200200
200200
200200
200200
200200
200200
200200
200200
200200
300600
100400
180C00
0E3800
03E000
ENDCHAR
STARTCHAR uni1E79
ENCODING 7801
SWIDTH 600 0
DWIDTH 20 0
BBX 16 24 1 0
BITMAP
0030
0060
00C0
0180
0300
0000
0E10
1BB0
10E0
0000
F03C
1004
1004
1004
1004
1004
1004
1004
1004
1004
100C
180C
0C34
07E7
ENDCHAR
STARTCHAR uni1E7A
ENCODING 7802
SWIDTH 600 0
DWIDTH 20 0
BBX 17 26 1 0
BITMAP
061800
0F3C00
061800
000000
0FF800
0FF800
000000
FE3F80
200200
200200
200200
200200
200200
200200
200200
200200
200200
200200
200200
200200
200200
300600
100400
180C00
0E3800
03E000
ENDCHAR
STARTCHAR uni1E7B
ENCODING 7803
SWIDTH 600 0
DWIDTH 20 0
BBX 16 21 1 0
BITMAP
0C30
1E78
0C30
0000
1FF0
1FF0
0000
F03C
1004
1004
1004
1004
1004
1004
1004
1004
1004
100C
180C
0C34
07E7
ENDCHAR
STARTCHAR uni1E7C
ENCODING 7804
SWIDTH 600 0
DWIDTH 20 0
BBX 19 23 0 0
BITMAP
038400
06EC00
043800
000000
FE0FE0
300180
100100
100100
180300
080200
080200
0C0600
040400
040400
060C00
020800
031800
011000
011000
00A000
00A000
00E000
004000
ENDCHAR
STARTCHAR uni1E7D
ENCODING 7805
SWIDTH 600 0
DWIDTH 20 0
BBX 17 18 1 0
BITMAP
070800
0DD800
087000
000000
FC1F80
300600
100400
100400
180C00
080800
0C1800
041000
041000
063000
022000
036000
014000
01C000
ENDCHAR
STARTCHAR uni1E7E
ENCODING 7806
SWIDTH 600 0
DWIDTH 20 0
BBX 19 23 0 -4
BITMAP
FE0FE0
300180
100100
100100
180300
080200
080200
0C0600
040400
040400
060C00
020800
031800
011000
011000
00A000
00A000
00E000
004000
000000
006000
00F000
006000
ENDCHAR
STARTCHAR uni1E7F
ENCODING 7807
SWIDTH 600 0
DWIDTH 20 0
BBX 17 18 1 -4
BITMAP
FC1F80
300600
100400
100400
180C00
080800
0C1800
041000
041000
063000
022000
036000
014000
01C000
000000
00C000
01E000
00C000
ENDCHAR
STARTCHAR Wgrave
ENCODING 7808
SWIDTH 600 0
DWIDTH 20 0
BBX 17 25 1 0
BITMAP
060000
030000
018000
00C000
006000
000000
FC1F80
400100
400100
400100
400100
61C300
214200
214200
222200
222200
222200
222200
263200
241200
341600
141400
141400
180C00
180C00
ENDCHAR
STARTCHAR wgrave
ENCODING 7809
SWIDTH 600 0
DWIDTH 20 0
BBX 17 20 1 0
BITMAP
060000
030000
018000
00C000
006000
000000
F80F80
600300
200200
200200
21C200
214200
314600
136400
122400
122400
163400
1C1C00
080800
080800
ENDCHAR
STARTCHAR Wacute
ENCODING 7810
SWIDTH 600 0
DWIDTH 20 0
BBX 17 25 1 0
BITMAP
001800
003000
006000
00C000
018000
000000
FC1F80
400100
400100
400100
400100
61C300
214200
214200
222200
222200
222200
222200
263200
241200
341600
141400
141400
180C00
180C00
ENDCHAR
STARTCHAR wacute
ENCODING 7811
SWIDTH 600 0
DWIDTH 20 0
BBX 17 20 1 0
BITMAP
001800
003000
006000
00C000
018000
000000
F80F80
600300
200200
200200
21C200
214200
314600
136400
122400
122400
163400
1C1C00
080800
080800
ENDCHAR
STARTCHAR Wdieresis
ENCODING 7812
SWIDTH 600 0
DWIDTH 20 0
BBX 17 23 1 0
BITMAP
061800
0F3C00
061800
000000
FC1F80
400100
400100
400100
400100
61C300
214200
214200
222200
222200
222200
222200
263200
241200
341600
141400
141400
180C00
180C00
ENDCHAR
STARTCHAR wdieresis
ENCODING 7813
SWIDTH 600 0
DWIDTH 20 0
BBX 17 18 1 0
BITMAP
061800
0F3C00
061800
000000
F80F80
600300
200200
200200
21C200
214200
314600
136400
122400
122400
163400
1C1C00
080800
080800
ENDCHAR
STARTCHAR uni1E86
ENCODING 7814
SWIDTH 600 0
DWIDTH 20 0
BBX 17 23 1 0
BITMAP
00C000
01E000
00C000
000000
FC1F80
400100
400100
400100
400100
61C300
214200
214200
222200
222200
222200
222200
263200
241200
341600
141400
141400
180C00
180C00
ENDCHAR
STARTCHAR uni1E87
ENCODING 7815
SWIDTH 600 0
DWIDTH 20 0
BBX 17 18 1 0
BITMAP
00C000
01E000
00C000
000000
F80F80
600300
200200
200200
21C200
214200
314600
136400
122400
122400
163400
1C1C00
080800
080800
ENDCHAR
STARTCHAR uni1E88
ENCODING 7816
SWIDTH 600 0
DWIDTH 20 0
BBX 17 23 1 -4
BITMAP
FC1F80
400100
400100
400100
400100
61C300
214200
214200
222200
222200
222200
222200
263200
241200
341600
141400
141400
180C00
180C00
000000
00C000
01E000
00C000
ENDCHAR
STARTCHAR uni1E89
ENCODING 7817
SWIDTH 600 0
DWIDTH 20 0
BBX 17 18 1 -4
BITMAP
F80F80
600300
200200
200200
21C200
214200
314600
136400
122400
122400
163400
1C1C00
080800
080800
000000
00C000
01E000
00C000
ENDCHAR
STARTCHAR uni1E8A
ENCODING 7818
SWIDTH 600 0
DWIDTH 20 0
BBX 17 23 1 0
BITMAP
00C000
01E000
00C000
000000
7C1F00
300600
100400
180C00
080800
041000
022000
036000
01C000
008000
01C000
022000
041000
0C1800
080800
100400
300600
600300
FC1F80
ENDCHAR
STARTCHAR uni1E8B
ENCODING 7819
SWIDTH 600 0
DWIDTH 20 0
BBX 15 18 2 0
BITMAP
0180
03C0
0180
0000
F83E
600C
3018
1830
0C60
06C0
0380
0380
06C0
0C60
1830
3018
600C
F83E
ENDCHAR
STARTCHAR uni1E8C
ENCODING 7820
SWIDTH 600 0
DWIDTH 20 0
BBX 17 23 1 0
BITMAP
061800
0F3C00
061800
000000
7C1F00
300600
100400
180C00
080800
041000
022000
036000
01C000
008000
01C000
022000
041000
0C1800
080800
100400
300600
600300
FC1F80
ENDCHAR
STARTCHAR uni1E8D
ENCODING 7821
SWIDTH 600 0
DWIDTH 20 0
BBX 15 18 2 0
BITMAP
0C30
1E78
0C30
0000
F83E
600C
3018
1830
0C60
06C0
0380
0380
06C0
0C60
1830
3018
600C
F83E
ENDCHAR
STARTCHAR uni1E8E
ENCODING 7822
SWIDTH 600 0
DWIDTH 20 0
BBX 15 23 2 0
BITMAP
0180
03C0
0180
0000
F83E
600C
3018
1010
1830
0820
0440
06C0
0280
0380
0100
0100
0100
0100
0100
0100
0100
0100
1FF0
ENDCHAR
STARTCHAR uni1E8F
ENCODING 7823
SWIDTH 600 0
DWIDTH 20 0
BBX 15 24 2 -6
BITMAP
0180
03C0
0180
0000
F83E
4004
600C
2008
3018
1010
1830
0820
0C60
0440
06C0
0280
0380
0100
0300
0200
0200
0600
0400
FF80
ENDCHAR
STARTCHAR uni1E90
ENCODING 7824
SWIDTH 600 0
DWIDTH 20 0
BBX 13 25 3 0
BITMAP
0200
0700
0D80
18C0
3060
0000
7FF0
4010
4030
4020
4060
40C0
0080
0180
0300
0600
0400
0C00
1808
1008
3008
6008
4008
C008
FFF8
ENDCHAR
STARTCHAR uni1E91
ENCODING 7825
SWIDTH 600 0
DWIDTH 20 0
BBX 11 20 4 0
BITMAP
0400
0E00
1B00
3180
60C0
0000
FFE0
8060
80C0
8180
0300
0600
0400
0C00
1800
3000
6020
4020
C020
FFE0
ENDCHAR
STARTCHAR uni1E92
ENCODING 7826
SWIDTH 600 0
DWIDTH 20 0
BBX 13 23 3 -4
BITMAP
7FF0
4010
4030
4020
4060
40C0
0080
0180
0300
0600
0400
0C00
1808
1008
3008
6008
4008
C008
FFF8
0000
0600
0F00
0600
ENDCHAR
STARTCHAR uni1E93
ENCODING 7827
SWIDTH 600 0
DWIDTH 20 0
BBX 11 18 4 -4
BITMAP
FFE0
8060
80C0
8180
0300
0600
0400
0C00
1800
3000
6020
4020
C020
FFE0
0000
0C00
1E00
0C00
ENDCHAR
STARTCHAR uni1E94
ENCODING 7828
SWIDTH 600 0
DWIDTH 20 0
BBX 13 22 3 -3
BITMAP
7FF0
4010
4030
4020
4060
40C0
0080
0180
0300
0600
0400
0C00
1808
1008
3008
6008
4008
C008
FFF8
0000
3FE0
3FE0
ENDCHAR
STARTCHAR uni1E95
ENCODING 7829
SWIDTH 600 0
DWIDTH 20 0
BBX 11 17 4 -3
BITMAP
FFE0
8060
80C0
8180
0300
0600
0400
0C00
1800
3000
6020
4020
C020
FFE0
0000
7FC0
7FC0
ENDCHAR
STARTCHAR uni1E96
ENCODING 7830
SWIDTH 600 0
DWIDTH 20 0
BBX 16 23 1 -3
BITMAP
F000
1000
1000
1000
1000
1000
11E0
1738
1408
180C
1804
1004
1004
1004
1004
1004
1004
1004
1004
7C1F
0000
0FF8
0FF8
ENDCHAR
STARTCHAR uni1E97
ENCODING 7831
SWIDTH 600 0
DWIDTH 20 0
BBX 14 23 2 0
BITMAP
6180
F3C0
6180
0000
1000
1000
1000
1000
1000
FFF0
1000
1000
1000
1000
1000
1000
1000
1000
1000
1000
180C
0C38
07E0
ENDCHAR
STARTCHAR uni1E98
ENCODING 7832
SWIDTH 600 0
DWIDTH 20 0
BBX 17 21 1 0
BITMAP
01C000
036000
022000
022000
036000
01C000
000000
F80F80
600300
200200
200200
21C200
214200
314600
136400
122400
122400
163400
1C1C00
080800
080800
ENDCHAR
STARTCHAR uni1E99
ENCODING 7833
SWIDTH 600 0
DWIDTH 20 0
BBX 15 27 2 -6
BITMAP
0380
06C0
0440
0440
06C0
0380
0000
F83E
4004
600C
2008
3018
1010
1830
0820
0C60
0440
06C0
0280
0380
0100
0300
0200
0200
0600
0400
FF80
ENDCHAR
STARTCHAR uni1EA0
ENCODING 7840
SWIDTH 600 0
DWIDTH 20 0
BBX 19 23 0 -4
BITMAP
1FE000
00A000
00A000
011000
011000
011000
020800
020800
020800
040400
040400
040400
0FFE00
080200
080200
100100
100100
300180
FE0FE0
000000
006000
00F000
006000
ENDCHAR
STARTCHAR uni1EA1
ENCODING 7841
SWIDTH 600 0
DWIDTH 20 0
BBX 15 18 2 -4
BITMAP
0F80
38E0
0020
0030
0010
0010
1FF0
7030
C010
8010
8010
8030
C0F0
7F9E
0000
0300
0780
0300
ENDCHAR
STARTCHAR uni1EA4
ENCODING 7844
SWIDTH 600 0
DWIDTH 20 0
BBX 19 32 0 0
BITMAP
000C00
001800
003000
006000
00C000
000000
004000
00E000
01B000
031800
060C00
000000
000000
1FE000
00A000
01B000
011000
011000
031800
020800
020800
060C00
040400
040400
0C0600
0FFE00
080200
180300
100100
100100
300180
FE0FE0
ENDCHAR
STARTCHAR uni1EA5
ENCODING 7845
SWIDTH 600 0
DWIDTH 20 0
BBX 15 28 2 0
BITMAP
0030
0060
00C0
0180
0300
0000
0100
0380
06C0
0C60
1830
0000
0000
0000
0F80
38E0
0020
0030
0010
0010
1FF0
7030
C010
8010
8010
8030
C0F0
7F9E
ENDCHAR
STARTCHAR uni1EA6
ENCODING 7846
SWIDTH 600 0
DWIDTH 20 0
BBX 19 32 0 0
BITMAP
030000
018000
00C000
006000
003000
000000
004000
00E000
01B000
031800
060C00
000000
000000
1FE000
00A000
01B000
011000
011000
031800
020800
020800
060C00
040400
040400
0C0600
0FFE00
080200
180300
100100
100100
300180
FE0FE0
ENDCHAR
STARTCHAR uni1EA7
ENCODING 7847
SWIDTH 600 0
DWIDTH 20 0
BBX 15 28 2 0
BITMAP
0C00
0600
0300
0180
00C0
0000
0100
0380
06C0
0C60
1830
0000
0000
0000
0F80
38E0
0020
0030
0010
0010
1FF0
7030
C010
8010
8010
8030
C0F0
7F9E
ENDCHAR
STARTCHAR uni1EAA
ENCODING 7850
SWIDTH 600 0
DWIDTH 20 0
BBX 19 30 0 0
BITMAP
038400
06EC00
043800
000000
004000
00E000
01B000
031800
060C00
000000
000000
1FE000
00A000
01B000
011000
011000
031800
020800
020800
060C00
040400
040400
0C0600
0FFE00
080200
180300
100100
100100
300180
FE0FE0
ENDCHAR
STARTCHAR uni1EAB
ENCODING 7851
SWIDTH 600 0
DWIDTH 20 0
BBX 15 26 2 0
BITMAP
0E10
1BB0
10E0
0000
0100
0380
06C0
0C60
1830
0000
0000
0000
0F80
38E0
0020
0030
0010
0010
1FF0
7030
C010
8010
8010
8030
C0F0
7F9E
ENDCHAR
STARTCHAR uni1EAC
ENCODING 7852
SWIDTH 600 0
DWIDTH 20 0
BBX 19 29 0 -4
BITMAP
008000
01C000
036000
063000
0C1800
000000
1FE000
00A000
00A000
011000
011000
011000
020800
020800
020800
040400
040400
040400
0FFE00
080200
080200
100100
100100
300180
FE0FE0
000000
006000
00F000
006000
ENDCHAR
STARTCHAR uni1EAD
ENCODING 7853
SWIDTH 600 0
DWIDTH 20 0
BBX 15 24 2 -4
BITMAP
0100
0380
06C0
0C60
1830
0000
0F80
38E0
0020
0030
0010
0010
1FF0
7030
C010
8010
8010
8030
C0F0
7F9E
0000
0300
0780
0300
ENDCHAR
STARTCHAR uni1EAE
ENCODING 7854
SWIDTH 600 0
DWIDTH 20 0
BBX 19 31 0 0
BITMAP
001800
003000
006000
00C000
018000
000000
080800
0C1800
041000
077000
01C000
000000
1FE000
00A000
00A000
011000
011000
011000
020800
020800
020800
040400
040400
040400
0FFE00
080200
080200
100100
100100
300180
FE0FE0
ENDCHAR
STARTCHAR uni1EAF
ENCODING 7855
SWIDTH 600 0
DWIDTH 20 0
BBX 15 26 2 0
BITMAP
0030
0060
00C0
0180
0300
0000
1010
1830
0820
0EE0
0380
0000
0F80
38E0
0020
0030
0010
0010
1FF0
7030
C010
8010
8010
8030
C0F0
7F9E
ENDCHAR
STARTCHAR uni1EB0
ENCODING 7856
SWIDTH 600 0
DWIDTH 20 0
BBX 19 31 0 0
BITMAP
060000
030000
018000
00C000
006000
000000
080800
0C1800
041000
077000
01C000
000000
1FE000
00A000
00A000
011000
011000
011000
020800
020800
020800
040400
040400
040400
0FFE00
080200
080200
100100
100100
300180
FE0FE0
ENDCHAR
STARTCHAR uni1EB1
ENCODING 7857
SWIDTH 600 0
DWIDTH 20 0
BBX 15 26 2 0
BITMAP
0C00
0600
0300
0180
00C0
0000
1010
1830
0820
0EE0
0380
0000
0F80
38E0
0020
0030
0010
0010
1FF0
7030
C010
8010
8010
8030
C0F0
7F9E
ENDCHAR
STARTCHAR uni1EB4
ENCODING 7860
SWIDTH 600 0
DWIDTH 20 0
BBX 19 29 0 0
BITMAP
070800
0DD800
087000
000000
080800
0C1800
041000
077000
01C000
000000
1FE000
00A000
00A000
011000
011000
011000
020800
020800
020800
040400
040400
040400
0FFE00
080200
080200
100100
100100
300180
FE0FE0
ENDCHAR
STARTCHAR uni1EB5
ENCODING 7861
SWIDTH 600 0
DWIDTH 20 0
BBX 15 24 2 0
BITMAP
0E10
1BB0
10E0
0000
1010
1830
0820
0EE0
0380
0000
0F80
38E0
0020
0030
0010
0010
1FF0
7030
C010
8010
8010
8030
C0F0
7F9E
ENDCHAR
STARTCHAR uni1EB6
ENCODING 7862
SWIDTH 600 0
DWIDTH 20 0
BBX 19 29 0 -4
BITMAP
080800
0C1800
041000
077000
01C000
000000
1FE000
00A000
00A000
011000
011000
011000
020800
020800
020800
040400
040400
040400
0FFE00
080200
080200
100100
100100
300180
FE0FE0
000000
006000
00F000
006000
ENDCHAR
STARTCHAR uni1EB7
ENCODING 7863
SWIDTH 600 0
DWIDTH 20 0
BBX 15 24 2 -4
BITMAP
1010
1830
0820
0EE0
0380
0000
0F80
38E0
0020
0030
0010
0010
1FF0
7030
C010
8010
8010
8030
C0F0
7F9E
0000
0300
0780
0300
ENDCHAR
STARTCHAR uni1EB8
ENCODING 7864
SWIDTH 600 0
DWIDTH 20 0
BBX 15 23 1 -4
BITMAP
FFFC
1004
1004
1004
1004
1044
1040
1040
1FC0
1040
1040
1040
1000
1002
1002
1002
1002
1002
FFFE
0000
0180
03C0
0180
ENDCHAR
STARTCHAR uni1EB9
ENCODING 7865
SWIDTH 600 0
DWIDTH 20 0
BBX 14 18 2 -4
BITMAP
0FC0
3870
6018
4008
C00C
8004
FFFC
8000
8000
C000
4000
600C
3838
0FE0
0000
0300
0780
0300
ENDCHAR
STARTCHAR uni1EBC
ENCODING 7868
SWIDTH 600 0
DWIDTH 20 0
BBX 15 23 1 0
BITMAP
0E10
1BB0
10E0
0000
FFFC
1004
1004
1004
1004
1044
1040
1040
1FC0
1040
1040
1040
1000
1002
1002
1002
1002
1002
FFFE
ENDCHAR
STARTCHAR uni1EBD
ENCODING 7869
SWIDTH 600 0
DWIDTH 20 0
BBX 14 18 2 0
BITMAP
1C20
3760
21C0
0000
0FC0
3870
6018
4008
C00C
8004
FFFC
8000
8000
C000
4000
600C
3838
0FE0
ENDCHAR
STARTCHAR uni1EBE
ENCODING 7870
SWIDTH 600 0
DWIDTH 20 0
BBX 15 32 1 0
BITMAP
0030
0060
00C0
0180
0300
0000
0080
01C0
0360
0630
0C18
0000
0000
FFFC
1004
1004
1004
1004
1004
1040
1040
1040
1FC0
1040
1040
1000
1002
1002
1002
1002
1002
FFFE
ENDCHAR
STARTCHAR uni1EBF
ENCODING 7871
SWIDTH 600 0
DWIDTH 20 0
BBX 14 28 2 0
BITMAP
0060
00C0
0180
0300
0600
0000
0100
0380
06C0
0C60
1830
0000
0000
0000
0FC0
3870
6018
4008
C00C
8004
FFFC
8000
8000
8000
C000
600C
3838
0FE0
ENDCHAR
STARTCHAR uni1EC0
ENCODING 7872
SWIDTH 600 0
DWIDTH 20 0
BBX 15 32 1 0
BITMAP
0C00
0600
0300
0180
00C0
0000
0080
01C0
0360
0630
0C18
0000
0000
FFFC
1004
1004
1004
1004
1004
1040
1040
1040
1FC0
1040
1040
1000
1002
1002
1002
1002
1002
FFFE
ENDCHAR
STARTCHAR uni1EC1
ENCODING 7873
SWIDTH 600 0
DWIDTH 20 0
BBX 14 28 2 0
BITMAP
1800
0C00
0600
0300
0180
0000
0100
0380
06C0
0C60
1830
0000
0000
0000
0FC0
3870
6018
4008
C00C
8004
FFFC
8000
8000
8000
C000
600C
3838
0FE0
ENDCHAR
STARTCHAR uni1EC4
ENCODING 7876
SWIDTH 600 0
DWIDTH 20 0
BBX 15 30 1 0
BITMAP
0E10
1BB0
10E0
0000
0080
01C0
0360
0630
0C18
0000
0000
FFFC
1004
1004
1004
1004
1004
1040
1040
1040
1FC0
1040
1040
1000
1002
1002
1002
1002
1002
FFFE
ENDCHAR
STARTCHAR uni1EC5
ENCODING 7877
SWIDTH 600 0
DWIDTH 20 0
BBX 14 26 2 0
BITMAP
0E10
1BB0
10E0
0000
0100
0380
06C0
0C60
1830
0000
0000
0000
0FC0
3870
6018
4008
C00C
8004
FFFC
8000
8000
8000
C000
600C
3838
0FE0
ENDCHAR
STARTCHAR uni1EC6
ENCODING 7878
SWIDTH 600 0
DWIDTH 20 0
BBX 15 29 1 -4
BITMAP
0100
0380
06C0
0C60
1830
0000
FFFC
1004
1004
1004
1004
1044
1040
1040
1FC0
1040
1040
1040
1000
1002
1002
1002
1002
1002
FFFE
0000
0180
03C0
0180
ENDCHAR
STARTCHAR uni1EC7
ENCODING 7879
SWIDTH 600 0
DWIDTH 20 0
BBX 14 24 2 -4
BITMAP
0100
0380
06C0
0C60
1830
0000
0FC0
3870
6018
4008
C00C
8004
FFFC
8000
8000
C000
4000
600C
3838
0FE0
0000
0300
0780
0300
ENDCHAR
STARTCHAR uni1ECA
ENCODING 7882
SWIDTH 600 0
DWIDTH 20 0
BBX 11 23 4 -4
BITMAP
FFE0
0400
0400
0400
0400
0400
0400
0400
0400
0400
0400
0400
0400
0400
0400
0400
0400
0400
FFE0
0000
0600
0F00
0600
ENDCHAR
STARTCHAR uni1ECB
ENCODING 7883
SWIDTH 600 0
DWIDTH 20 0
BBX 13 24 3 -4
BITMAP
0600
0600
0600
0000
0000
0000
7E00
0200
0200
0200
0200
0200
0200
0200
0200
0200
0200
0200
0200
FFF8
0000
0300
0780
0300
ENDCHAR
STARTCHAR uni1ECC
ENCODING 7884
SWIDTH 600 0
DWIDTH 20 0
BBX 15 23 2 -4
BITMAP
07C0
1830
3018
600C
4004
C006
8002
8002
8002
8002
8002
8002
8002
C006
4004
600C
3018
1830
07C0
0000
0180
03C0
0180
ENDCHAR
STARTCHAR uni1ECD
ENCODING 7885
SWIDTH 600 0
DWIDTH 20 0
BBX 15 18 2 -4
BITMAP
0FE0
3838
600C
4004
C006
8002
8002
8002
8002
C006
4004
600C
3838
0FE0
0000
0180
03C0
0180
ENDCHAR
STARTCHAR uni1ED0
ENCODING 7888
SWIDTH 600 0
DWIDTH 20 0
BBX 15 32 2 0
BITMAP
0030
0060
00C0
0180
0300
0000
0100
0380
06C0
0C60
1830
0000
0000
07C0
1C70
3018
600C
4004
C006
8002
8002
8002
8002
8002
8002
C006
4004
600C
2008
3018
1C70
07C0
ENDCHAR
STARTCHAR uni1ED1
ENCODING 7889
SWIDTH 600 0
DWIDTH 20 0
BBX 15 28 2 0
BITMAP
0030
0060
00C0
0180
0300
0000
0180
03C0
0660
0C30
1818
0000
0000
0000
0FE0
3838
600C
4004
C006
8002
8002
8002
8002
C006
4004
600C
3838
0FE0
ENDCHAR
STARTCHAR uni1ED2
ENCODING 7890
SWIDTH 600 0
DWIDTH 20 0
BBX 15 32 2 0
BITMAP
0C00
0600
0300
0180
00C0
0000
0100
0380
06C0
0C60
1830
0000
0000
07C0
1C70
3018
600C
4004
C006
8002
8002
8002
8002
8002
8002
C006
4004
600C
2008
3018
1C70
07C0
ENDCHAR
STARTCHAR uni1ED3
ENCODING 7891
SWIDTH 600 0
DWIDTH 20 0
BBX 15 28 2 0
BITMAP
0C00
0600
0300
0180
00C0
0000
0180
03C0
0660
0C30
1818
0000
0000
0000
0FE0
3838
600C
4004
C006
8002
8002
8002
8002
C006
4004
600C
3838
0FE0
ENDCHAR
STARTCHAR uni1ED6
ENCODING 7894
SWIDTH 600 0
DWIDTH 20 0
BBX 15 30 2 0
BITMAP
0E10
1BB0
10E0
0000
0100
0380
06C0
0C60
1830
0000
0000
07C0
1C70
3018
600C
4004
C006
8002
8002
8002
8002
8002
8002
C006
4004
600C
2008
3018
1C70
07C0
ENDCHAR
STARTCHAR uni1ED7
ENCODING 7895
SWIDTH 600 0
DWIDTH 20 0
BBX 15 26 2 0
BITMAP
0E10
1BB0
10E0
0000
0180
03C0
0660
0C30
1818
0000
0000
0000
0FE0
3838
600C
4004
C006
8002
8002
8002
8002
C006
4004
600C
3838
0FE0
ENDCHAR
STARTCHAR uni1ED8
ENCODING 7896
SWIDTH 600 0
DWIDTH 20 0
BBX 15 29 2 -4
BITMAP
0100
0380
06C0
0C60
1830
0000
07C0
1830
3018
600C
4004
C006
8002
8002
8002
8002
8002
8002
8002
C006
4004
600C
3018
1830
07C0
0000
0180
03C0
0180
ENDCHAR
STARTCHAR uni1ED9
ENCODING 7897
SWIDTH 600 0
DWIDTH 20 0
BBX 15 24 2 -4
BITMAP
0100
0380
06C0
0C60
1830
0000
0FE0
3838
600C
4004
C006
8002
8002
8002
8002
C006
4004
600C
3838
0FE0
0000
0180
03C0
0180
ENDCHAR
STARTCHAR uni1EDA
ENCODING 7898
SWIDTH 600 0
DWIDTH 20 0
BBX 20 25 2 0
BITMAP
000300
000600
000C00
001800
003000
000000
07C0F0
1830F0
3019E0
600DC0
4005C0
C00780
800300
800300
800200
800200
800200
800200
800200
C00600
400400
600C00
301800
183000
07C000
ENDCHAR
STARTCHAR uni1EDB
ENCODING 7899
SWIDTH 600 0
DWIDTH 20 0
BBX 20 20 2 0
BITMAP
000600
000C00
001800
003000
006000
000000
0FE0F0
3838F0
600DE0
4005C0
C007C0
800380
800300
800300
800200
C00600
400400
600C00
383800
0FE000
ENDCHAR
STARTCHAR uni1EDC
ENCODING 7900
SWIDTH 600 0
DWIDTH 20 0
BBX 20 25 2 0
BITMAP
00C000
006000
003000
001800
000C00
000000
07C0F0
1830F0
3019E0
600DC0
4005C0
C00780
800300
800300
800200
800200
800200
800200
800200
C00600
400400
600C00
301800
183000
07C000
ENDCHAR
STARTCHAR uni1EDD
ENCODING 7901
SWIDTH 600 0
DWIDTH 20 0
BBX 20 20 2 0
BITMAP
018000
00C000
006000
003000
001800
000000
0FE0F0
3838F0
600DE0
4005C0
C007C0
800380
800300
800300
800200
C00600
400400
600C00
383800
0FE000
ENDCHAR
STARTCHAR uni1EE0
ENCODING 7904
SWIDTH 600 0
DWIDTH 20 0
BBX 20 23 2 0
BITMAP
00E100
01BB00
010E00
000000
07C0F0
1830F0
3019E0
600DC0
4005C0
C00780
800300
800300
800200
800200
800200
800200
800200
C00600
400400
600C00
301800
183000
07C000
ENDCHAR
STARTCHAR uni1EE1
ENCODING 7905
SWIDTH 600 0
DWIDTH 20 0
BBX 20 18 2 0
BITMAP
01C200
037600
021C00
000000
0FE0F0
3838F0
600DE0
4005C0
C007C0
800380
800300
800300
800200
C00600
400400
600C00
383800
0FE000
ENDCHAR
STARTCHAR uni1EE2
ENCODING 7906
SWIDTH 600 0
DWIDTH 20 0
BBX 20 23 2 -4
BITMAP
07C0F0
1830F0
3019E0
600DC0
4005C0
C00780
800300
800300
800200
800200
800200
800200
800200
C00600
400400
600C00
301800
183000
07C000
000000
018000
03C000
018000
ENDCHAR
STARTCHAR uni1EE3
ENCODING 7907
SWIDTH 600 0
DWIDTH 20 0
BBX 20 18 2 -4
BITMAP
0FE0F0
3838F0
600DE0
4005C0
C007C0
800380
800300
800300
800200
C00600
400400
600C00
383800
0FE000
000000
018000
03C000
018000
ENDCHAR
STARTCHAR uni1EE4
ENCODING 7908
SWIDTH 600 0
DWIDTH 20 0
BBX 17 23 1 -4
BITMAP
FE3F80
200200
200200
200200
200200
200200
200200
200200
200200
200200
200200
200200
200200
200200
300600
100400
180C00
0E3800
03E000
000000
00C000
01E000
00C000
ENDCHAR
STARTCHAR uni1EE5
ENCODING 7909
SWIDTH 600 0
DWIDTH 20 0
BBX 16 18 1 -4
BITMAP
F03C
1004
1004
1004
1004
1004
1004
1004
1004
1004
100C
180C
0C34
07E7
0000
00C0
01E0
00C0
ENDCHAR
STARTCHAR uni1EE8
ENCODING 7912
SWIDTH 600 0
DWIDTH 20 0
BBX 21 25 1 0
BITMAP
000300
000600
000C00
001800
003000
000000
FE3FF8
200278
2002F0
2002E0
2002E0
2003C0
200380
200380
200300
200200
200200
200200
200200
200200
300600
100400
180C00
0E3800
03E000
ENDCHAR
STARTCHAR uni1EE9
ENCODING 7913
SWIDTH 600 0
DWIDTH 20 0
BBX 21 20 1 0
BITMAP
000300
000600
000C00
001800
003000
000000
F03C78
100478
1004F0
1004E0
1004E0
1005C0
100580
100580
100500
100400
100C00
180C00
0C3400
07E700
ENDCHAR
STARTCHAR uni1EEA
ENCODING 7914
SWIDTH 600 0
DWIDTH 20 0
BBX 21 25 1 0
BITMAP
00C000
006000
003000
001800
000C00
000000
FE3FF8
200278
2002F0
2002E0
2002E0
2003C0
200380
200380
200300
200200
200200
200200
200200
200200
300600
100400
180C00
0E3800
03E000
ENDCHAR
STARTCHAR uni1EEB
ENCODING 7915
SWIDTH 600 0
DWIDTH 20 0
BBX 21 20 1 0
BITMAP
00C000
006000
003000
001800
000C00
000000
F03C78
100478
1004F0
1004E0
1004E0
1005C0
100580
100580
100500
100400
100C00
180C00
0C3400
07E700
ENDCHAR
STARTCHAR uni1EEE
ENCODING 7918
SWIDTH 600 0
DWIDTH 20 0
BBX 21 23 1 0
BITMAP
00E100
01BB00
010E00
000000
FE3FF8
200278
2002F0
2002E0
2002E0
2003C0
200380
200380
200300
200200
200200
200200
200200
200200
300600
100400
180C00
0E3800
03E000
ENDCHAR
STARTCHAR uni1EEF
ENCODING 7919
SWIDTH 600 0
DWIDTH 20 0
BBX 21 18 1 0
BITMAP
00E100
01BB00
010E00
000000
F03C78
100478
1004F0
1004E0
1004E0
1005C0
100580
100580
100500
100400
100C00
180C00
0C3400
07E700
ENDCHAR
STARTCHAR uni1EF0
ENCODING 7920
SWIDTH 600 0
DWIDTH 20 0
BBX 21 23 1 -4
BITMAP
FE3FF8
200278
2002F0
2002E0
2002E0
2003C0
200380
200380
200300
200200
200200
200200
200200
200200
300600
100400
180C00
0E3800
03E000
000000
00C000
01E000
00C000
ENDCHAR
STARTCHAR uni1EF1
ENCODING 7921
SWIDTH 600 0
DWIDTH 20 0
BBX 21 18 1 -4
BITMAP
F03C78
100478
1004F0
1004E0
1004E0
1005C0
100580
100580
100500
100400
100C00
180C00
0C3400
07E700
000000
006000
00F000
006000
ENDCHAR
STARTCHAR Ygrave
ENCODING 7922
SWIDTH 600 0
DWIDTH 20 0
BBX 15 25 2 0
BITMAP
0C00
0600
0300
0180
00C0
0000
F83E
600C
3018
1010
1830
0820
0440
06C0
0280
0380
0100
0100
0100
0100
0100
0100
0100
0100
1FF0
ENDCHAR
STARTCHAR ygrave
ENCODING 7923
SWIDTH 600 0
DWIDTH 20 0
BBX 15 26 2 -6
BITMAP
0C00
0600
0300
0180
00C0
0000
F83E
4004
600C
2008
3018
1010
1830
0820
0C60
0440
06C0
0280
0380
0100
0300
0200
0200
0600
0400
FF80
ENDCHAR
STARTCHAR uni1EF4
ENCODING 7924
SWIDTH 600 0
DWIDTH 20 0
BBX 15 23 2 -4
BITMAP
F83E
600C
3018
1010
1830
0820
0440
06C0
0280
0380
0100
0100
0100
0100
0100
0100
0100
0100
1FF0
0000
0180
03C0
0180
ENDCHAR
STARTCHAR uni1EF5
ENCODING 7925
SWIDTH 600 0
DWIDTH 20 0
BBX 15 24 2 -10
BITMAP
F83E
4004
600C
2008
3018
1010
1830
0820
0C60
0440
06C0
0280
0380
0100
0300
0200
0200
0600
0400
FF80
0000
0600
0F00
0600
ENDCHAR
STARTCHAR uni1EF8
ENCODING 7928
SWIDTH 600 0
DWIDTH 20 0
BBX 15 23 2 0
BITMAP
0E10
1BB0
10E0
0000
F83E
600C
3018
1010
1830
0820
0440
06C0
0280
0380
0100
0100
0100
0100
0100
0100
0100
0100
1FF0
ENDCHAR
STARTCHAR uni1EF9
ENCODING 7929
SWIDTH 600 0
DWIDTH 20 0
BBX 15 24 2 -6
BITMAP
0E10
1BB0
10E0
0000
F83E
4004
600C
2008
3018
1010
1830
0820
0C60
0440
06C0
0280
0380
0100
0300
0200
0200
0600
0400
FF80
ENDCHAR
STARTCHAR uni2000
ENCODING 8192
SWIDTH 600 0
DWIDTH 20 0
BBX 1 1 0 0
BITMAP
00
ENDCHAR
STARTCHAR uni2001
ENCODING 8193
SWIDTH 600 0
DWIDTH 20 0
BBX 1 1 0 0
BITMAP
00
ENDCHAR
STARTCHAR uni2002
ENCODING 8194
SWIDTH 600 0
DWIDTH 20 0
BBX 1 1 0 0
BITMAP
00
ENDCHAR
STARTCHAR uni2003
ENCODING 8195
SWIDTH 600 0
DWIDTH 20 0
BBX 1 1 0 0
BITMAP
00
ENDCHAR
STARTCHAR uni2004
ENCODING 8196
SWIDTH 600 0
DWIDTH 20 0
BBX 1 1 0 0
BITMAP
00
ENDCHAR
STARTCHAR uni2005
ENCODING 8197
SWIDTH 600 0
DWIDTH 20 0
BBX 1 1 0 0
BITMAP
00
ENDCHAR
STARTCHAR uni2006
ENCODING 8198
SWIDTH 600 0
DWIDTH 20 0
BBX 1 1 0 0
BITMAP
00
ENDCHAR
STARTCHAR uni2007
ENCODING 8199
SWIDTH 600 0
DWIDTH 20 0
BBX 1 1 0 0
BITMAP
00
ENDCHAR
STARTCHAR uni2008
ENCODING 8200
SWIDTH 600 0
DWIDTH 20 0
BBX 1 1 0 0
BITMAP
00
ENDCHAR
STARTCHAR uni2009
ENCODING 8201
SWIDTH 600 0
DWIDTH 20 0
BBX 1 1 0 0
BITMAP
00
ENDCHAR
STARTCHAR uni200A
ENCODING 8202
SWIDTH 600 0
DWIDTH 20 0
BBX 1 1 0 0
BITMAP
00
ENDCHAR
STARTCHAR uni2010
ENCODING 8208
SWIDTH 600 0
DWIDTH 20 0
BBX 15 1 2 9
BITMAP
FFFE
ENDCHAR
STARTCHAR uni2011
ENCODING 8209
SWIDTH 600 0
DWIDTH 20 0
BBX 15 1 2 9
BITMAP
FFFE
ENDCHAR
STARTCHAR figuredash
ENCODING 8210
SWIDTH 600 0
DWIDTH 20 0
BBX 15 1 2 9
BITMAP
FFFE
ENDCHAR
STARTCHAR endash
ENCODING 8211
SWIDTH 600 0
DWIDTH 20 0
BBX 15 1 2 9
BITMAP
FFFE
ENDCHAR
STARTCHAR emdash
ENCODING 8212
SWIDTH 600 0
DWIDTH 20 0
BBX 19 1 0 9
BITMAP
FFFFE0
ENDCHAR
STARTCHAR afii00208
ENCODING 8213
SWIDTH 600 0
DWIDTH 20 0
BBX 19 1 0 9
BITMAP
FFFFE0
ENDCHAR
STARTCHAR quoteleft
ENCODING 8216
SWIDTH 600 0
DWIDTH 20 0
BBX 7 9 8 12
BITMAP
F0
F0
78
78
3C
0C
0E
06
02
ENDCHAR
STARTCHAR quoteright
ENCODING 8217
SWIDTH 600 0
DWIDTH 20 0
BBX 6 9 6 12
BITMAP
3C
3C
78
70
70
E0
C0
C0
80
ENDCHAR
STARTCHAR quotesinglbase
ENCODING 8218
SWIDTH 600 0
DWIDTH 20 0
BBX 6 11 5 -6
BITMAP
3C
3C
38
78
70
70
60
E0
E0
C0
C0
ENDCHAR
STARTCHAR quotereversed
ENCODING 8219
SWIDTH 600 0
DWIDTH 20 0
BBX 6 9 6 12
BITMAP
F0
F0
78
38
38
1C
0C
0C
04
ENDCHAR
STARTCHAR quotedblleft
ENCODING 8220
SWIDTH 600 0
DWIDTH 20 0
BBX 13 9 3 12
BITMAP
F1C0
F1E0
70E0
78E0
3870
1870
1C38
0C18
0C18
ENDCHAR
STARTCHAR quotedblright
ENCODING 8221
SWIDTH 600 0
DWIDTH 20 0
BBX 13 9 3 12
BITMAP
1E38
1C78
3C70
38F0
70E0
70C0
61C0
E180
C180
ENDCHAR
STARTCHAR quotedblbase
ENCODING 8222
SWIDTH 600 0
DWIDTH 20 0
BBX 14 10 3 -5
BITMAP
1E3C
1E3C
3C78
3870
3870
70E0
70E0
E1C0
C180
C180
ENDCHAR
STARTCHAR uni201F
ENCODING 8223
SWIDTH 600 0
DWIDTH 20 0
BBX 13 9 3 12
BITMAP
E3C0
F1C0
71E0
78E0
3870
1870
1C30
0C38
0C18
ENDCHAR
STARTCHAR dagger
ENCODING 8224
SWIDTH 600 0
DWIDTH 20 0
BBX 11 23 4 -2
BITMAP
0400
0400
0400
0400
0400
0400
0400
FFE0
0400
0400
0400
0400
0400
0400
0400
0400
0400
0400
0400
0400
0400
0400
0400
ENDCHAR
STARTCHAR daggerdbl
ENCODING 8225
SWIDTH 600 0
DWIDTH 20 0
BBX 11 23 4 -2
BITMAP
0400
0400
0400
0400
0400
0400
FFE0
0400
0400
0400
0400
0400
0400
0400
0400
FFE0
0400
0400
0400
0400
0400
0400
0400
ENDCHAR
STARTCHAR bullet
ENCODING 8226
SWIDTH 600 0
DWIDTH 20 0
BBX 8 8 6 6
BITMAP
3C
7E
FF
FF
FF
FF
7E
3C
ENDCHAR
STARTCHAR ellipsis
ENCODING 8230
SWIDTH 600 0
DWIDTH 20 0
BBX 15 3 2 0
BITMAP
E38E
E38E
E38E
ENDCHAR
STARTCHAR perthousand
ENCODING 8240
SWIDTH 600 0
DWIDTH 20 0
BBX 17 21 1 0
BITMAP
300000
780000
CC0000
840000
CC0000
780000
300000
001E00
00F000
078000
1C0000
F00000
000000
000000
060600
0F0F00
199980
109080
199980
0F0F00
060600
ENDCHAR
STARTCHAR guilsinglleft
ENCODING 8249
SWIDTH 600 0
DWIDTH 20 0
BBX 8 14 5 0
BITMAP
01
03
06
0C
18
30
60
E0
60
30
18
0C
06
03
ENDCHAR
STARTCHAR guilsinglright
ENCODING 8250
SWIDTH 600 0
DWIDTH 20 0
BBX 8 14 6 1
BITMAP
C0
60
30
18
0C
06
07
07
06
0C
18
30
60
C0
ENDCHAR
STARTCHAR uni203D
ENCODING 8253
SWIDTH 600 0
DWIDTH 20 0
BBX 11 21 4 0
BITMAP
0400
0E00
3F00
EFC0
8E40
8E40
0460
0420
0460
0440
05C0
0700
0400
0400
0400
0000
0000
0000
0E00
1F00
0E00
ENDCHAR
STARTCHAR fraction
ENCODING 8260
SWIDTH 600 0
DWIDTH 20 0
BBX 15 11 2 5
BITMAP
0006
000C
0018
0070
00C0
0380
0600
0C00
3800
6000
C000
ENDCHAR
STARTCHAR oneinferior
ENCODING 8321
SWIDTH 600 0
DWIDTH 20 0
BBX 7 14 6 -6
BITMAP
70
D0
10
10
10
10
10
10
10
10
10
10
10
FE
ENDCHAR
STARTCHAR twoinferior
ENCODING 8322
SWIDTH 600 0
DWIDTH 20 0
BBX 8 14 5 -6
BITMAP
3C
66
43
C1
03
02
06
0C
18
10
30
60
C1
FF
ENDCHAR
STARTCHAR threeinferior
ENCODING 8323
SWIDTH 600 0
DWIDTH 20 0
BBX 8 14 6 -6
BITMAP
3C
66
C3
01
01
06
1C
06
03
01
01
C3
66
3C
ENDCHAR
STARTCHAR uni20A5
ENCODING 8357
SWIDTH 600 0
DWIDTH 20 0
BBX 19 25 0 -5
BITMAP
000200
000600
000400
000400
000C00
000800
E71E00
299300
30F180
306080
206080
206080
204080
20C080
20C080
20C080
21C080
214080
234080
FA70E0
060000
040000
040000
0C0000
080000
ENDCHAR
STARTCHAR uni20A6
ENCODING 8358
SWIDTH 600 0
DWIDTH 20 0
BBX 18 19 0 0
BITMAP
F81FC0
1C0100
140100
120100
120100
110100
3FFF80
108100
104100
104100
102100
3FFF80
101100
101100
100900
100900
100500
100700
7F0300
ENDCHAR
STARTCHAR uni20A9
ENCODING 8361
SWIDTH 600 0
DWIDTH 20 0
BBX 17 19 1 0
BITMAP
FC1F80
400100
400100
400100
400100
61C300
7FFF00
214200
222200
222200
222200
7FFF00
263200
241200
341600
141400
141400
180C00
180C00
ENDCHAR
STARTCHAR Euro
ENCODING 8364
SWIDTH 600 0
DWIDTH 20 0
BBX 18 19 -2 0
BITMAP
007C40
01C740
0200C0
060040
040040
0C0040
FFFE00
080000
080000
080000
080000
FFFE00
080000
0C0000
040000
060040
0201C0
01C700
007C00
ENDCHAR
STARTCHAR uni20AD
ENCODING 8365
SWIDTH 600 0
DWIDTH 20 0
BBX 17 19 1 0
BITMAP
FE1F80
100400
100C00
100800
101000
103000
104000
10C000
138000
FFFF80
102000
103000
101000
101800
100800
100800
100C00
100400
FE0780
ENDCHAR
STARTCHAR trademark
ENCODING 8482
SWIDTH 600 0
DWIDTH 20 0
BBX 19 11 0 8
BITMAP
FF3060
9118C0
9118C0
911DC0
101540
101540
101740
101240
101040
101040
3C38E0
ENDCHAR
STARTCHAR uni212A
ENCODING 8490
SWIDTH 600 0
DWIDTH 20 0
BBX 17 19 1 0
BITMAP
FE1F80
100400
100C00
100800
101000
103000
104000
10C000
138000
1CC000
102000
103000
101000
101800
100800
100800
100C00
100400
FE0780
ENDCHAR
STARTCHAR uni212B
ENCODING 8491
SWIDTH 600 0
DWIDTH 20 0
BBX 19 26 0 0
BITMAP
00E000
01B000
011000
011000
01B000
00E000
000000
1FE000
00A000
01B000
011000
011000
031800
020800
020800
060C00
040400
040400
0C0600
0FFE00
080200
180300
100100
100100
300180
FE0FE0
ENDCHAR
STARTCHAR uni2132
ENCODING 8498
SWIDTH 600 0
DWIDTH 20 0
BBX 15 19 1 0
BITMAP
03FE
0010
0010
0010
0010
0010
0010
0410
0410
0410
07F0
0410
0410
8410
8010
8010
8010
8010
FFFE
ENDCHAR
STARTCHAR universal
ENCODING 8704
SWIDTH 600 0
DWIDTH 20 0
BBX 19 19 0 0
BITMAP
FE0FE0
300180
100100
100100
080200
080200
0FFE00
040400
040400
040400
020800
020800
020800
011000
011000
011000
00A000
00A000
1FE000
ENDCHAR
STARTCHAR existential
ENCODING 8707
SWIDTH 600 0
DWIDTH 20 0
BBX 15 19 1 0
BITMAP
7FFE
4010
4010
4010
4010
4410
0410
0410
07F0
0410
0410
0410
0010
8010
8010
8010
8010
8010
FFFE
ENDCHAR
STARTCHAR uni2204
ENCODING 8708
SWIDTH 600 0
DWIDTH 20 0
BBX 15 25 1 -3
BITMAP
0008
0018
0010
7FFE
4030
4030
4070
4050
44D0
0490
0490
07F0
0510
0710
0610
0210
8610
8410
8C10
8810
9810
FFFE
1000
3000
2000
ENDCHAR
STARTCHAR minus
ENCODING 8722
SWIDTH 600 0
DWIDTH 20 0
BBX 15 1 2 9
BITMAP
FFFE
ENDCHAR
STARTCHAR fraction
ENCODING 8725
SWIDTH 600 0
DWIDTH 20 0
BBX 15 11 2 5
BITMAP
0006
000C
0018
0070
00C0
0380
0600
0C00
3800
6000
C000
ENDCHAR
STARTCHAR periodcentered
ENCODING 8729
SWIDTH 600 0
DWIDTH 20 0
BBX 5 4 7 7
BITMAP
70
F8
F8
70
ENDCHAR
STARTCHAR uni2236
ENCODING 8758
SWIDTH 600 0
DWIDTH 20 0
BBX 5 14 7 0
BITMAP
70
F8
F8
70
00
00
00
00
00
00
70
F8
F8
70
ENDCHAR
STARTCHAR uni2259
ENCODING 8793
SWIDTH 600 0
DWIDTH 20 0
BBX 15 12 2 6
BITMAP
0100
0380
06C0
0C60
1830
0000
FFFE
0000
0000
0000
0000
FFFE
ENDCHAR
STARTCHAR uni225A
ENCODING 8794
SWIDTH 600 0
DWIDTH 20 0
BBX 15 12 2 6
BITMAP
1830
0C60
06C0
0380
0100
0000
FFFE
0000
0000
0000
0000
FFFE
ENDCHAR
STARTCHAR notequal
ENCODING 8800
SWIDTH 600 0
DWIDTH 20 0
BBX 15 25 2 -3
BITMAP
0008
0018
0010
0010
0030
0020
0060
0040
00C0
0080
FFFE
0180
0100
0300
0200
FFFE
0600
0400
0C00
0800
1800
1000
1000
3000
2000
ENDCHAR
STARTCHAR equivalence
ENCODING 8801
SWIDTH 600 0
DWIDTH 20 0
BBX 15 5 0 7
BITMAP
FFFE
0000
FFFE
0000
FFFE
ENDCHAR
STARTCHAR uni2262
ENCODING 8802
SWIDTH 600 0
DWIDTH 20 0
BBX 15 25 0 -3
BITMAP
0008
0018
0010
0010
0030
0020
0060
0040
00C0
0080
FFFE
0180
FFFE
0300
FFFE
0200
0600
0400
0C00
0800
1800
1000
1000
3000
2000
ENDCHAR
STARTCHAR lessequal
ENCODING 8804
SWIDTH 600 0
DWIDTH 20 0
BBX 15 19 2 -1
BITMAP
0002
000E
0038
00E0
0380
0600
1C00
7000
C000
7000
1C00
0600
0380
00E0
0038
000E
0002
0000
FFFE
ENDCHAR
STARTCHAR greaterequal
ENCODING 8805
SWIDTH 600 0
DWIDTH 20 0
BBX 15 19 2 -1
BITMAP
8000
E000
3800
0E00
0380
00C0
0070
001C
0006
001C
0070
00C0
0380
0E00
3800
E000
8000
0000
FFFE
ENDCHAR
STARTCHAR uni226E
ENCODING 8814
SWIDTH 600 0
DWIDTH 20 0
BBX 15 25 2 -3
BITMAP
0008
0018
0010
0010
0032
002E
0078
00E0
03C0
0680
1C80
7180
C100
7300
1E00
0600
0780
04E0
0C38
080E
1802
1000
1000
3000
2000
ENDCHAR
STARTCHAR uni226F
ENCODING 8815
SWIDTH 600 0
DWIDTH 20 0
BBX 15 25 2 -3
BITMAP
0008
0018
0010
0010
8030
E020
3860
0E40
03C0
00C0
00F0
019C
0106
031C
0270
02C0
0780
0E00
3C00
E800
9800
1000
1000
3000
2000
ENDCHAR
STARTCHAR uni2270
ENCODING 8816
SWIDTH 600 0
DWIDTH 20 0
BBX 15 25 2 -4
BITMAP
0008
0018
0010
0012
003E
0038
00E0
03C0
06C0
1C80
7080
C180
7100
1F00
0600
0380
06E0
0438
0C0E
0802
1800
FFFE
1000
3000
2000
ENDCHAR
STARTCHAR uni2271
ENCODING 8817
SWIDTH 600 0
DWIDTH 20 0
BBX 15 25 2 -4
BITMAP
0008
0018
0010
8010
E030
3820
0E60
03C0
00C0
00F0
009C
0186
011C
0370
02C0
0380
0E00
3C00
EC00
8800
1800
FFFE
1000
3000
2000
ENDCHAR
STARTCHAR SF100000
ENCODING 9472
SWIDTH 600 0
DWIDTH 20 0
BBX 20 1 0 8
BITMAP
FFFFF0
ENDCHAR
STARTCHAR uni2501
ENCODING 9473
SWIDTH 600 0
DWIDTH 20 0
BBX 20 3 0 7
BITMAP
FFFFF0
FFFFF0
FFFFF0
ENDCHAR
STARTCHAR SF110000
ENCODING 9474
SWIDTH 600 0
DWIDTH 20 0
BBX 1 29 9 -6
BITMAP
80
80
80
80
80
80
80
80
80
80
80
80
80
80
80
80
80
80
80
80
80
80
80
80
80
80
80
80
80
ENDCHAR
STARTCHAR uni2503
ENCODING 9475
SWIDTH 600 0
DWIDTH 20 0
BBX 3 29 8 -6
BITMAP
E0
E0
E0
E0
E0
E0
E0
E0
E0
E0
E0
E0
E0
E0
E0
E0
E0
E0
E0
E0
E0
E0
E0
E0
E0
E0
E0
E0
E0
ENDCHAR
STARTCHAR SF010000
ENCODING 9484
SWIDTH 600 0
DWIDTH 20 0
BBX 11 15 9 -6
BITMAP
FFE0
8000
8000
8000
8000
8000
8000
8000
8000
8000
8000
8000
8000
8000
8000
ENDCHAR
STARTCHAR uni250D
ENCODING 9485
SWIDTH 600 0
DWIDTH 20 0
BBX 12 16 8 -6
BITMAP
FFF0
FFF0
FFF0
4000
4000
4000
4000
4000
4000
4000
4000
4000
4000
4000
4000
4000
ENDCHAR
STARTCHAR uni250E
ENCODING 9486
SWIDTH 600 0
DWIDTH 20 0
BBX 12 16 8 -6
BITMAP
E000
FFF0
E000
E000
E000
E000
E000
E000
E000
E000
E000
E000
E000
E000
E000
E000
ENDCHAR
STARTCHAR uni250F
ENCODING 9487
SWIDTH 600 0
DWIDTH 20 0
BBX 12 16 8 -6
BITMAP
FFF0
FFF0
FFF0
E000
E000
E000
E000
E000
E000
E000
E000
E000
E000
E000
E000
E000
ENDCHAR
STARTCHAR SF030000
ENCODING 9488
SWIDTH 600 0
DWIDTH 20 0
BBX 10 15 0 -6
BITMAP
FFC0
0040
0040
0040
0040
0040
0040
0040
0040
0040
0040
0040
0040
0040
0040
ENDCHAR
STARTCHAR uni2511
ENCODING 9489
SWIDTH 600 0
DWIDTH 20 0
BBX 11 16 0 -6
BITMAP
FFE0
FFE0
FFE0
0040
0040
0040
0040
0040
0040
0040
0040
0040
0040
0040
0040
0040
ENDCHAR
STARTCHAR uni2512
ENCODING 9490
SWIDTH 600 0
DWIDTH 20 0
BBX 11 16 0 -6
BITMAP
00E0
FFE0
00E0
00E0
00E0
00E0
00E0
00E0
00E0
00E0
00E0
00E0
00E0
00E0
00E0
00E0
ENDCHAR
STARTCHAR uni2513
ENCODING 9491
SWIDTH 600 0
DWIDTH 20 0
BBX 11 16 0 -6
BITMAP
FFE0
FFE0
FFE0
00E0
00E0
00E0
00E0
00E0
00E0
00E0
00E0
00E0
00E0
00E0
00E0
00E0
ENDCHAR
STARTCHAR SF020000
ENCODING 9492
SWIDTH 600 0
DWIDTH 20 0
BBX 11 15 9 8
BITMAP
8000
8000
8000
8000
8000
8000
8000
8000
8000
8000
8000
8000
8000
8000
FFE0
ENDCHAR
STARTCHAR uni2515
ENCODING 9493
SWIDTH 600 0
DWIDTH 20 0
BBX 12 16 8 7
BITMAP
4000
4000
4000
4000
4000
4000
4000
4000
4000
4000
4000
4000
4000
FFF0
FFF0
FFF0
ENDCHAR
STARTCHAR uni2516
ENCODING 9494
SWIDTH 600 0
DWIDTH 20 0
BBX 12 16 8 7
BITMAP
E000
E000
E000
E000
E000
E000
E000
E000
E000
E000
E000
E000
E000
E000
FFF0
E000
ENDCHAR
STARTCHAR uni2517
ENCODING 9495
SWIDTH 600 0
DWIDTH 20 0
BBX 12 16 8 7
BITMAP
E000
E000
E000
E000
E000
E000
E000
E000
E000
E000
E000
E000
E000
FFF0
FFF0
FFF0
ENDCHAR
STARTCHAR SF040000
ENCODING 9496
SWIDTH 600 0
DWIDTH 20 0
BBX 10 15 0 8
BITMAP
0040
0040
0040
0040
0040
0040
0040
0040
0040
0040
0040
0040
0040
0040
FFC0
ENDCHAR
STARTCHAR uni2519
ENCODING 9497
SWIDTH 600 0
DWIDTH 20 0
BBX 11 16 0 7
BITMAP
0040
0040
0040
0040
0040
0040
0040
0040
0040
0040
0040
0040
0040
FFE0
FFE0
FFE0
ENDCHAR
STARTCHAR uni251A
ENCODING 9498
SWIDTH 600 0
DWIDTH 20 0
BBX 11 16 0 7
BITMAP
00E0
00E0
00E0
00E0
00E0
00E0
00E0
00E0
00E0
00E0
00E0
00E0
00E0
00E0
FFE0
00E0
ENDCHAR
STARTCHAR uni251B
ENCODING 9499
SWIDTH 600 0
DWIDTH 20 0
BBX 11 16 0 7
BITMAP
00E0
00E0
00E0
00E0
00E0
00E0
00E0
00E0
00E0
00E0
00E0
00E0
00E0
FFE0
FFE0
FFE0
ENDCHAR
STARTCHAR SF080000
ENCODING 9500
SWIDTH 600 0
DWIDTH 20 0
BBX 11 29 9 -6
BITMAP
8000
8000
8000
8000
8000
8000
8000
8000
8000
8000
8000
8000
8000
8000
FFE0
8000
8000
8000
8000
8000
8000
8000
8000
8000
8000
8000
8000
8000
8000
ENDCHAR
STARTCHAR uni251D
ENCODING 9501
SWIDTH 600 0
DWIDTH 20 0
BBX 12 29 8 -6
BITMAP
4000
4000
4000
4000
4000
4000
4000
4000
4000
4000
4000
4000
4000
FFF0
FFF0
FFF0
4000
4000
4000
4000
4000
4000
4000
4000
4000
4000
4000
4000
4000
ENDCHAR
STARTCHAR uni251E
ENCODING 9502
SWIDTH 600 0
DWIDTH 20 0
BBX 12 29 8 -6
BITMAP
E000
E000
E000
E000
E000
E000
E000
E000
E000
E000
E000
E000
E000
E000
FFF0
E000
4000
4000
4000
4000
4000
4000
4000
4000
4000
4000
4000
4000
4000
ENDCHAR
STARTCHAR uni251F
ENCODING 9503
SWIDTH 600 0
DWIDTH 20 0
BBX 12 29 8 -6
BITMAP
4000
4000
4000
4000
4000
4000
4000
4000
4000
4000
4000
4000
4000
E000
FFF0
E000
E000
E000
E000
E000
E000
E000
E000
E000
E000
E000
E000
E000
E000
ENDCHAR
STARTCHAR uni2520
ENCODING 9504
SWIDTH 600 0
DWIDTH 20 0
BBX 12 29 8 -6
BITMAP
E000
E000
E000
E000
E000
E000
E000
E000
E000
E000
E000
E000
E000
E000
FFF0
E000
E000
E000
E000
E000
E000
E000
E000
E000
E000
E000
E000
E000
E000
ENDCHAR
STARTCHAR uni2521
ENCODING 9505
SWIDTH 600 0
DWIDTH 20 0
BBX 12 29 8 -6
BITMAP
E000
E000
E000
E000
E000
E000
E000
E000
E000
E000
E000
E000
E000
FFF0
FFF0
FFF0
4000
4000
4000
4000
4000
4000
4000
4000
4000
4000
4000
4000
4000
ENDCHAR
STARTCHAR uni2522
ENCODING 9506
SWIDTH 600 0
DWIDTH 20 0
BBX 12 29 8 -6
BITMAP
4000
4000
4000
4000
4000
4000
4000
4000
4000
4000
4000
4000
4000
FFF0
FFF0
FFF0
E000
E000
E000
E000
E000
E000
E000
E000
E000
E000
E000
E000
E000
ENDCHAR
STARTCHAR uni2523
ENCODING 9507
SWIDTH 600 0
DWIDTH 20 0
BBX 12 29 8 -6
BITMAP
E000
E000
E000
E000
E000
E000
E000
E000
E000
E000
E000
E000
E000
FFF0
FFF0
FFF0
E000
E000
E000
E000
E000
E000
E000
E000
E000
E000
E000
E000
E000
ENDCHAR
STARTCHAR SF090000
ENCODING 9508
SWIDTH 600 0
DWIDTH 20 0
BBX 10 29 0 -6
BITMAP
0040
0040
0040
0040
0040
0040
0040
0040
0040
0040
0040
0040
0040
0040
FFC0
0040
0040
0040
0040
0040
0040
0040
0040
0040
0040
0040
0040
0040
0040
ENDCHAR
STARTCHAR uni2525
ENCODING 9509
SWIDTH 600 0
DWIDTH 20 0
BBX 11 29 0 -6
BITMAP
0040
0040
0040
0040
0040
0040
0040
0040
0040
0040
0040
0040
0040
FFE0
FFE0
FFE0
0040
0040
0040
0040
0040
0040
0040
0040
0040
0040
0040
0040
0040
ENDCHAR
STARTCHAR uni2526
ENCODING 9510
SWIDTH 600 0
DWIDTH 20 0
BBX 11 29 0 -6
BITMAP
00E0
00E0
00E0
00E0
00E0
00E0
00E0
00E0
00E0
00E0
00E0
00E0
00E0
00E0
FFE0
00E0
0040
0040
0040
0040
0040
0040
0040
0040
0040
0040
0040
0040
0040
ENDCHAR
STARTCHAR uni2527
ENCODING 9511
SWIDTH 600 0
DWIDTH 20 0
BBX 11 29 0 -6
BITMAP
0040
0040
0040
0040
0040
0040
0040
0040
0040
0040
0040
0040
0040
00E0
FFE0
00E0
00E0
00E0
00E0
00E0
00E0
00E0
00E0
00E0
00E0
00E0
00E0
00E0
00E0
ENDCHAR
STARTCHAR uni2528
ENCODING 9512
SWIDTH 600 0
DWIDTH 20 0
BBX 11 29 0 -6
BITMAP
00E0
00E0
00E0
00E0
00E0
00E0
00E0
00E0
00E0
00E0
00E0
00E0
00E0
00E0
FFE0
00E0
00E0
00E0
00E0
00E0
00E0
00E0
00E0
00E0
00E0
00E0
00E0
00E0
00E0
ENDCHAR
STARTCHAR uni2529
ENCODING 9513
SWIDTH 600 0
DWIDTH 20 0
BBX 11 29 0 -6
BITMAP
00E0
00E0
00E0
00E0
00E0
00E0
00E0
00E0
00E0
00E0
00E0
00E0
00E0
FFE0
FFE0
FFE0
0040
0040
0040
0040
0040
0040
0040
0040
0040
0040
0040
0040
0040
ENDCHAR
STARTCHAR uni252A
ENCODING 9514
SWIDTH 600 0
DWIDTH 20 0
BBX 11 29 0 -6
BITMAP
0040
0040
0040
0040
0040
0040
0040
0040
0040
0040
0040
0040
0040
FFE0
FFE0
FFE0
00E0
00E0
00E0
00E0
00E0
00E0
00E0
00E0
00E0
00E0
00E0
00E0
00E0
ENDCHAR
STARTCHAR uni252B
ENCODING 9515
SWIDTH 600 0
DWIDTH 20 0
BBX 11 29 0 -6
BITMAP
00E0
00E0
00E0
00E0
00E0
00E0
00E0
00E0
00E0
00E0
00E0
00E0
00E0
FFE0
FFE0
FFE0
00E0
00E0
00E0
00E0
00E0
00E0
00E0
00E0
00E0
00E0
00E0
00E0
00E0
ENDCHAR
STARTCHAR SF060000
ENCODING 9516
SWIDTH 600 0
DWIDTH 20 0
BBX 20 15 0 -6
BITMAP
FFFFF0
004000
004000
004000
004000
004000
004000
004000
004000
004000
004000
004000
004000
004000
004000
ENDCHAR
STARTCHAR uni252D
ENCODING 9517
SWIDTH 600 0
DWIDTH 20 0
BBX 20 16 0 -6
BITMAP
FFE000
FFFFF0
FFE000
004000
004000
004000
004000
004000
004000
004000
004000
004000
004000
004000
004000
004000
ENDCHAR
STARTCHAR uni252E
ENCODING 9518
SWIDTH 600 0
DWIDTH 20 0
BBX 20 16 0 -6
BITMAP
00FFF0
FFFFF0
00FFF0
004000
004000
004000
004000
004000
004000
004000
004000
004000
004000
004000
004000
004000
ENDCHAR
STARTCHAR uni252F
ENCODING 9519
SWIDTH 600 0
DWIDTH 20 0
BBX 20 16 0 -6
BITMAP
FFFFF0
FFFFF0
FFFFF0
004000
004000
004000
004000
004000
004000
004000
004000
004000
004000
004000
004000
004000
ENDCHAR
STARTCHAR uni2530
ENCODING 9520
SWIDTH 600 0
DWIDTH 20 0
BBX 20 16 0 -6
BITMAP
00E000
FFFFF0
00E000
00E000
00E000
00E000
00E000
00E000
00E000
00E000
00E000
00E000
00E000
00E000
00E000
00E000
ENDCHAR
STARTCHAR uni2531
ENCODING 9521
SWIDTH 600 0
DWIDTH 20 0
BBX 20 16 0 -6
BITMAP
FFE000
FFFFF0
FFE000
00E000
00E000
00E000
00E000
00E000
00E000
00E000
00E000
00E000
00E000
00E000
00E000
00E000
ENDCHAR
STARTCHAR uni2532
ENCODING 9522
SWIDTH 600 0
DWIDTH 20 0
BBX 20 16 0 -6
BITMAP
00FFF0
FFFFF0
00FFF0
00E000
00E000
00E000
00E000
00E000
00E000
00E000
00E000
00E000
00E000
00E000
00E000
00E000
ENDCHAR
STARTCHAR uni2533
ENCODING 9523
SWIDTH 600 0
DWIDTH 20 0
BBX 20 16 0 -6
BITMAP
FFFFF0
FFFFF0
FFFFF0
00E000
00E000
00E000
00E000
00E000
00E000
00E000
00E000
00E000
00E000
00E000
00E000
00E000
ENDCHAR
STARTCHAR SF070000
ENCODING 9524
SWIDTH 600 0
DWIDTH 20 0
BBX 20 15 0 8
BITMAP
004000
004000
004000
004000
004000
004000
004000
004000
004000
004000
004000
004000
004000
004000
FFFFF0
ENDCHAR
STARTCHAR uni2535
ENCODING 9525
SWIDTH 600 0
DWIDTH 20 0
BBX 20 16 0 7
BITMAP
004000
004000
004000
004000
004000
004000
004000
004000
004000
004000
004000
004000
004000
FFE000
FFFFF0
FFE000
ENDCHAR
STARTCHAR uni2536
ENCODING 9526
SWIDTH 600 0
DWIDTH 20 0
BBX 20 16 0 7
BITMAP
004000
004000
004000
004000
004000
004000
004000
004000
004000
004000
004000
004000
004000
00FFF0
FFFFF0
00FFF0
ENDCHAR
STARTCHAR uni2537
ENCODING 9527
SWIDTH 600 0
DWIDTH 20 0
BBX 20 16 0 7
BITMAP
004000
004000
004000
004000
004000
004000
004000
004000
004000
004000
004000
004000
004000
FFFFF0
FFFFF0
FFFFF0
ENDCHAR
STARTCHAR uni2538
ENCODING 9528
SWIDTH 600 0
DWIDTH 20 0
BBX 20 16 0 7
BITMAP
00E000
00E000
00E000
00E000
00E000
00E000
00E000
00E000
00E000
00E000
00E000
00E000
00E000
00E000
FFFFF0
00E000
ENDCHAR
STARTCHAR uni2539
ENCODING 9529
SWIDTH 600 0
DWIDTH 20 0
BBX 20 16 0 7
BITMAP
00E000
00E000
00E000
00E000
00E000
00E000
00E000
00E000
00E000
00E000
00E000
00E000
00E000
FFE000
FFFFF0
FFE000
ENDCHAR
STARTCHAR uni253A
ENCODING 9530
SWIDTH 600 0
DWIDTH 20 0
BBX 20 16 0 7
BITMAP
00E000
00E000
00E000
00E000
00E000
00E000
00E000
00E000
00E000
00E000
00E000
00E000
00E000
00FFF0
FFFFF0
00FFF0
ENDCHAR
STARTCHAR uni253B
ENCODING 9531
SWIDTH 600 0
DWIDTH 20 0
BBX 20 16 0 7
BITMAP
00E000
00E000
00E000
00E000
00E000
00E000
00E000
00E000
00E000
00E000
00E000
00E000
00E000
FFFFF0
FFFFF0
FFFFF0
ENDCHAR
STARTCHAR SF050000
ENCODING 9532
SWIDTH 600 0
DWIDTH 20 0
BBX 20 29 0 -6
BITMAP
004000
004000
004000
004000
004000
004000
004000
004000
004000
004000
004000
004000
004000
004000
FFFFF0
004000
004000
004000
004000
004000
004000
004000
004000
004000
004000
004000
004000
004000
004000
ENDCHAR
STARTCHAR uni253D
ENCODING 9533
SWIDTH 600 0
DWIDTH 20 0
BBX 20 29 0 -6
BITMAP
004000
004000
004000
004000
004000
004000
004000
004000
004000
004000
004000
004000
004000
FFE000
FFFFF0
FFE000
004000
004000
004000
004000
004000
004000
004000
004000
004000
004000
004000
004000
004000
ENDCHAR
STARTCHAR uni253E
ENCODING 9534
SWIDTH 600 0
DWIDTH 20 0
BBX 20 29 0 -6
BITMAP
004000
004000
004000
004000
004000
004000
004000
004000
004000
004000
004000
004000
004000
00FFF0
FFFFF0
00FFF0
004000
004000
004000
004000
004000
004000
004000
004000
004000
004000
004000
004000
004000
ENDCHAR
STARTCHAR uni253F
ENCODING 9535
SWIDTH 600 0
DWIDTH 20 0
BBX 20 29 0 -6
BITMAP
004000
004000
004000
004000
004000
004000
004000
004000
004000
004000
004000
004000
004000
FFFFF0
FFFFF0
FFFFF0
004000
004000
004000
004000
004000
004000
004000
004000
004000
004000
004000
004000
004000
ENDCHAR
STARTCHAR uni2540
ENCODING 9536
SWIDTH 600 0
DWIDTH 20 0
BBX 20 29 0 -6
BITMAP
00E000
00E000
00E000
00E000
00E000
00E000
00E000
00E000
00E000
00E000
00E000
00E000
00E000
00E000
FFFFF0
00E000
004000
004000
004000
004000
004000
004000
004000
004000
004000
004000
004000
004000
004000
ENDCHAR
STARTCHAR uni2541
ENCODING 9537
SWIDTH 600 0
DWIDTH 20 0
BBX 20 29 0 -6
BITMAP
004000
004000
004000
004000
004000
004000
004000
004000
004000
004000
004000
004000
004000
00E000
FFFFF0
00E000
00E000
00E000
00E000
00E000
00E000
00E000
00E000
00E000
00E000
00E000
00E000
00E000
00E000
ENDCHAR
STARTCHAR uni2542
ENCODING 9538
SWIDTH 600 0
DWIDTH 20 0
BBX 20 29 0 -6
BITMAP
00E000
00E000
00E000
00E000
00E000
00E000
00E000
00E000
00E000
00E000
00E000
00E000
00E000
00E000
FFFFF0
00E000
00E000
00E000
00E000
00E000
00E000
00E000
00E000
00E000
00E000
00E000
00E000
00E000
00E000
ENDCHAR
STARTCHAR uni2543
ENCODING 9539
SWIDTH 600 0
DWIDTH 20 0
BBX 20 29 0 -6
BITMAP
00E000
00E000
00E000
00E000
00E000
00E000
00E000
00E000
00E000
00E000
00E000
00E000
00E000
FFE000
FFFFF0
FFE000
004000
004000
004000
004000
004000
004000
004000
004000
004000
004000
004000
004000
004000
ENDCHAR
STARTCHAR uni2544
ENCODING 9540
SWIDTH 600 0
DWIDTH 20 0
BBX 20 29 0 -6
BITMAP
00E000
00E000
00E000
00E000
00E000
00E000
00E000
00E000
00E000
00E000
00E000
00E000
00E000
00FFF0
FFFFF0
00FFF0
004000
004000
004000
004000
004000
004000
004000
004000
004000
004000
004000
004000
004000
ENDCHAR
STARTCHAR uni2545
ENCODING 9541
SWIDTH 600 0
DWIDTH 20 0
BBX 20 29 0 -6
BITMAP
004000
004000
004000
004000
004000
004000
004000
004000
004000
004000
004000
004000
004000
FFE000
FFFFF0
FFE000
00E000
00E000
00E000
00E000
00E000
00E000
00E000
00E000
00E000
00E000
00E000
00E000
00E000
ENDCHAR
STARTCHAR uni2546
ENCODING 9542
SWIDTH 600 0
DWIDTH 20 0
BBX 20 29 0 -6
BITMAP
004000
004000
004000
004000
004000
004000
004000
004000
004000
004000
004000
004000
004000
00FFF0
FFFFF0
00FFF0
00E000
00E000
00E000
00E000
00E000
00E000
00E000
00E000
00E000
00E000
00E000
00E000
00E000
ENDCHAR
STARTCHAR uni2547
ENCODING 9543
SWIDTH 600 0
DWIDTH 20 0
BBX 20 29 0 -6
BITMAP
00E000
00E000
00E000
00E000
00E000
00E000
00E000
00E000
00E000
00E000
00E000
00E000
00E000
FFFFF0
FFFFF0
FFFFF0
004000
004000
004000
004000
004000
004000
004000
004000
004000
004000
004000
004000
004000
ENDCHAR
STARTCHAR uni2548
ENCODING 9544
SWIDTH 600 0
DWIDTH 20 0
BBX 20 29 0 -6
BITMAP
004000
004000
004000
004000
004000
004000
004000
004000
004000
004000
004000
004000
004000
FFFFF0
FFFFF0
FFFFF0
00E000
00E000
00E000
00E000
00E000
00E000
00E000
00E000
00E000
00E000
00E000
00E000
00E000
ENDCHAR
STARTCHAR uni2549
ENCODING 9545
SWIDTH 600 0
DWIDTH 20 0
BBX 20 29 0 -6
BITMAP
00E000
00E000
00E000
00E000
00E000
00E000
00E000
00E000
00E000
00E000
00E000
00E000
00E000
FFE000
FFFFF0
FFE000
00E000
00E000
00E000
00E000
00E000
00E000
00E000
00E000
00E000
00E000
00E000
00E000
00E000
ENDCHAR
STARTCHAR uni254A
ENCODING 9546
SWIDTH 600 0
DWIDTH 20 0
BBX 20 29 0 -6
BITMAP
00E000
00E000
00E000
00E000
00E000
00E000
00E000
00E000
00E000
00E000
00E000
00E000
00E000
00FFF0
FFFFF0
00FFF0
00E000
00E000
00E000
00E000
00E000
00E000
00E000
00E000
00E000
00E000
00E000
00E000
00E000
ENDCHAR
STARTCHAR uni254B
ENCODING 9547
SWIDTH 600 0
DWIDTH 20 0
BBX 20 29 0 -6
BITMAP
00E000
00E000
00E000
00E000
00E000
00E000
00E000
00E000
00E000
00E000
00E000
00E000
00E000
FFFFF0
FFFFF0
FFFFF0
00E000
00E000
00E000
00E000
00E000
00E000
00E000
00E000
00E000
00E000
00E000
00E000
00E000
ENDCHAR
STARTCHAR uni254C
ENCODING 9548
SWIDTH 600 0
DWIDTH 20 0
BBX 20 29 0 -6
BITMAP
000000
000000
000000
000000
000000
000000
000000
000000
000000
000000
000000
000000
000000
000000
FFBFF0
000000
000000
000000
000000
000000
000000
000000
000000
000000
000000
000000
000000
000000
000000
ENDCHAR
STARTCHAR uni254D
ENCODING 9549
SWIDTH 600 0
DWIDTH 20 0
BBX 20 29 0 -6
BITMAP
000000
000000
000000
000000
000000
000000
000000
000000
000000
000000
000000
000000
000000
FFBFF0
FFBFF0
FFBFF0
000000
000000
000000
000000
000000
000000
000000
000000
000000
000000
000000
000000
000000
ENDCHAR
STARTCHAR uni254E
ENCODING 9550
SWIDTH 600 0
DWIDTH 20 0
BBX 20 29 0 -6
BITMAP
004000
004000
004000
004000
004000
004000
004000
004000
004000
004000
004000
004000
004000
004000
000000
004000
004000
004000
004000
004000
004000
004000
004000
004000
004000
004000
004000
004000
004000
ENDCHAR
STARTCHAR uni254F
ENCODING 9551
SWIDTH 600 0
DWIDTH 20 0
BBX 20 29 0 -6
BITMAP
00E000
00E000
00E000
00E000
00E000
00E000
00E000
00E000
00E000
00E000
00E000
00E000
00E000
00E000
000000
00E000
00E000
00E000
00E000
00E000
00E000
00E000
00E000
00E000
00E000
00E000
00E000
00E000
00E000
ENDCHAR
STARTCHAR SF430000
ENCODING 9552
SWIDTH 600 0
DWIDTH 20 0
BBX 20 3 0 7
BITMAP
FFFFF0
000000
FFFFF0
ENDCHAR
STARTCHAR SF240000
ENCODING 9553
SWIDTH 600 0
DWIDTH 20 0
BBX 3 29 8 -6
BITMAP
A0
A0
A0
A0
A0
A0
A0
A0
A0
A0
A0
A0
A0
A0
A0
A0
A0
A0
A0
A0
A0
A0
A0
A0
A0
A0
A0
A0
A0
ENDCHAR
STARTCHAR SF390000
ENCODING 9556
SWIDTH 600 0
DWIDTH 20 0
BBX 12 16 8 -6
BITMAP
FFF0
8000
BFF0
A000
A000
A000
A000
A000
A000
A000
A000
A000
A000
A000
A000
A000
ENDCHAR
STARTCHAR SF250000
ENCODING 9559
SWIDTH 600 0
DWIDTH 20 0
BBX 11 16 0 -6
BITMAP
FFE0
0020
FFA0
00A0
00A0
00A0
00A0
00A0
00A0
00A0
00A0
00A0
00A0
00A0
00A0
00A0
ENDCHAR
STARTCHAR SF380000
ENCODING 9562
SWIDTH 600 0
DWIDTH 20 0
BBX 12 16 8 7
BITMAP
A000
A000
A000
A000
A000
A000
A000
A000
A000
A000
A000
A000
A000
BFF0
8000
FFF0
ENDCHAR
STARTCHAR SF260000
ENCODING 9565
SWIDTH 600 0
DWIDTH 20 0
BBX 11 16 0 7
BITMAP
00A0
00A0
00A0
00A0
00A0
00A0
00A0
00A0
00A0
00A0
00A0
00A0
00A0
FFA0
0020
FFE0
ENDCHAR
STARTCHAR SF420000
ENCODING 9568
SWIDTH 600 0
DWIDTH 20 0
BBX 12 29 8 -6
BITMAP
A000
A000
A000
A000
A000
A000
A000
A000
A000
A000
A000
A000
A000
BFF0
8000
BFF0
A000
A000
A000
A000
A000
A000
A000
A000
A000
A000
A000
A000
A000
ENDCHAR
STARTCHAR SF230000
ENCODING 9571
SWIDTH 600 0
DWIDTH 20 0
BBX 11 29 0 -6
BITMAP
00A0
00A0
00A0
00A0
00A0
00A0
00A0
00A0
00A0
00A0
00A0
00A0
00A0
FFA0
0020
FFA0
00A0
00A0
00A0
00A0
00A0
00A0
00A0
00A0
00A0
00A0
00A0
00A0
00A0
ENDCHAR
STARTCHAR SF410000
ENCODING 9574
SWIDTH 600 0
DWIDTH 20 0
BBX 20 16 0 -6
BITMAP
FFFFF0
000000
FFBFF0
00A000
00A000
00A000
00A000
00A000
00A000
00A000
00A000
00A000
00A000
00A000
00A000
00A000
ENDCHAR
STARTCHAR SF400000
ENCODING 9577
SWIDTH 600 0
DWIDTH 20 0
BBX 20 16 0 7
BITMAP
00A000
00A000
00A000
00A000
00A000
00A000
00A000
00A000
00A000
00A000
00A000
00A000
00A000
FFBFF0
000000
FFFFF0
ENDCHAR
STARTCHAR SF540000
ENCODING 9578
SWIDTH 600 0
DWIDTH 20 0
BBX 20 29 0 -6
BITMAP
004000
004000
004000
004000
004000
004000
004000
004000
004000
004000
004000
004000
004000
FFFFF0
004000
FFFFF0
004000
004000
004000
004000
004000
004000
004000
004000
004000
004000
004000
004000
004000
ENDCHAR
STARTCHAR SF530000
ENCODING 9579
SWIDTH 600 0
DWIDTH 20 0
BBX 20 29 0 -6
BITMAP
00A000
00A000
00A000
00A000
00A000
00A000
00A000
00A000
00A000
00A000
00A000
00A000
00A000
00A000
FFFFF0
00A000
00A000
00A000
00A000
00A000
00A000
00A000
00A000
00A000
00A000
00A000
00A000
00A000
00A000
ENDCHAR
STARTCHAR SF440000
ENCODING 9580
SWIDTH 600 0
DWIDTH 20 0
BBX 20 29 0 -6
BITMAP
00A000
00A000
00A000
00A000
00A000
00A000
00A000
00A000
00A000
00A000
00A000
00A000
00A000
FFBFF0
000000
FFBFF0
00A000
00A000
00A000
00A000
00A000
00A000
00A000
00A000
00A000
00A000
00A000
00A000
00A000
ENDCHAR
STARTCHAR uni2574
ENCODING 9588
SWIDTH 600 0
DWIDTH 20 0
BBX 10 1 0 8
BITMAP
FFC0
ENDCHAR
STARTCHAR uni2575
ENCODING 9589
SWIDTH 600 0
DWIDTH 20 0
BBX 1 15 9 8
BITMAP
80
80
80
80
80
80
80
80
80
80
80
80
80
80
80
ENDCHAR
STARTCHAR uni2576
ENCODING 9590
SWIDTH 600 0
DWIDTH 20 0
BBX 11 1 9 8
BITMAP
FFE0
ENDCHAR
STARTCHAR uni2577
ENCODING 9591
SWIDTH 600 0
DWIDTH 20 0
BBX 1 15 9 -6
BITMAP
80
80
80
80
80
80
80
80
80
80
80
80
80
80
80
ENDCHAR
STARTCHAR uni2578
ENCODING 9592
SWIDTH 600 0
DWIDTH 20 0
BBX 11 3 0 7
BITMAP
FFE0
FFE0
FFE0
ENDCHAR
STARTCHAR uni2579
ENCODING 9593
SWIDTH 600 0
DWIDTH 20 0
BBX 3 16 8 7
BITMAP
E0
E0
E0
E0
E0
E0
E0
E0
E0
E0
E0
E0
E0
E0
E0
E0
ENDCHAR
STARTCHAR uni257A
ENCODING 9594
SWIDTH 600 0
DWIDTH 20 0
BBX 12 3 8 7
BITMAP
FFF0
FFF0
FFF0
ENDCHAR
STARTCHAR uni257B
ENCODING 9595
SWIDTH 600 0
DWIDTH 20 0
BBX 3 16 8 -6
BITMAP
E0
E0
E0
E0
E0
E0
E0
E0
E0
E0
E0
E0
E0
E0
E0
E0
ENDCHAR
STARTCHAR uni257C
ENCODING 9596
SWIDTH 600 0
DWIDTH 20 0
BBX 20 3 0 7
BITMAP
00FFF0
FFFFF0
00FFF0
ENDCHAR
STARTCHAR uni257D
ENCODING 9597
SWIDTH 600 0
DWIDTH 20 0
BBX 3 29 8 -6
BITMAP
40
40
40
40
40
40
40
40
40
40
40
40
40
E0
E0
E0
E0
E0
E0
E0
E0
E0
E0
E0
E0
E0
E0
E0
E0
ENDCHAR
STARTCHAR uni257E
ENCODING 9598
SWIDTH 600 0
DWIDTH 20 0
BBX 20 3 0 7
BITMAP
FFE000
FFFFF0
FFE000
ENDCHAR
STARTCHAR uni257F
ENCODING 9599
SWIDTH 600 0
DWIDTH 20 0
BBX 3 29 8 -6
BITMAP
E0
E0
E0
E0
E0
E0
E0
E0
E0
E0
E0
E0
E0
E0
E0
E0
40
40
40
40
40
40
40
40
40
40
40
40
40
ENDCHAR
STARTCHAR upblock
ENCODING 9600
SWIDTH 600 0
DWIDTH 20 0
BBX 20 30 0 -6
BITMAP
FFFFF0
FFFFF0
FFFFF0
FFFFF0
FFFFF0
FFFFF0
FFFFF0
FFFFF0
FFFFF0
FFFFF0
FFFFF0
FFFFF0
FFFFF0
FFFFF0
FFFFF0
000000
000000
000000
000000
000000
000000
000000
000000
000000
000000
000000
000000
000000
000000
000000
ENDCHAR
STARTCHAR uni2581
ENCODING 9601
SWIDTH 600 0
DWIDTH 20 0
BBX 20 4 0 -6
BITMAP
FFFFF0
FFFFF0
FFFFF0
FFFFF0
ENDCHAR
STARTCHAR uni2582
ENCODING 9602
SWIDTH 600 0
DWIDTH 20 0
BBX 20 8 0 -6
BITMAP
FFFFF0
FFFFF0
FFFFF0
FFFFF0
FFFFF0
FFFFF0
FFFFF0
FFFFF0
ENDCHAR
STARTCHAR uni2583
ENCODING 9603
SWIDTH 600 0
DWIDTH 20 0
BBX 20 11 0 -6
BITMAP
FFFFF0
FFFFF0
FFFFF0
FFFFF0
FFFFF0
FFFFF0
FFFFF0
FFFFF0
FFFFF0
FFFFF0
FFFFF0
ENDCHAR
STARTCHAR dnblock
ENCODING 9604
SWIDTH 600 0
DWIDTH 20 0
BBX 20 15 0 -6
BITMAP
FFFFF0
FFFFF0
FFFFF0
FFFFF0
FFFFF0
FFFFF0
FFFFF0
FFFFF0
FFFFF0
FFFFF0
FFFFF0
FFFFF0
FFFFF0
FFFFF0
FFFFF0
ENDCHAR
STARTCHAR uni2585
ENCODING 9605
SWIDTH 600 0
DWIDTH 20 0
BBX 20 19 0 -6
BITMAP
FFFFF0
FFFFF0
FFFFF0
FFFFF0
FFFFF0
FFFFF0
FFFFF0
FFFFF0
FFFFF0
FFFFF0
FFFFF0
FFFFF0
FFFFF0
FFFFF0
FFFFF0
FFFFF0
FFFFF0
FFFFF0
FFFFF0
ENDCHAR
STARTCHAR uni2586
ENCODING 9606
SWIDTH 600 0
DWIDTH 20 0
BBX 20 23 0 -6
BITMAP
FFFFF0
FFFFF0
FFFFF0
FFFFF0
FFFFF0
FFFFF0
FFFFF0
FFFFF0
FFFFF0
FFFFF0
FFFFF0
FFFFF0
FFFFF0
FFFFF0
FFFFF0
FFFFF0
FFFFF0
FFFFF0
FFFFF0
FFFFF0
FFFFF0
FFFFF0
FFFFF0
ENDCHAR
STARTCHAR uni2587
ENCODING 9607
SWIDTH 600 0
DWIDTH 20 0
BBX 20 26 0 -6
BITMAP
FFFFF0
FFFFF0
FFFFF0
FFFFF0
FFFFF0
FFFFF0
FFFFF0
FFFFF0
FFFFF0
FFFFF0
FFFFF0
FFFFF0
FFFFF0
FFFFF0
FFFFF0
FFFFF0
FFFFF0
FFFFF0
FFFFF0
FFFFF0
FFFFF0
FFFFF0
FFFFF0
FFFFF0
FFFFF0
FFFFF0
ENDCHAR
STARTCHAR block
ENCODING 9608
SWIDTH 600 0
DWIDTH 20 0
BBX 20 30 0 -6
BITMAP
FFFFF0
FFFFF0
FFFFF0
FFFFF0
FFFFF0
FFFFF0
FFFFF0
FFFFF0
FFFFF0
FFFFF0
FFFFF0
FFFFF0
FFFFF0
FFFFF0
FFFFF0
FFFFF0
FFFFF0
FFFFF0
FFFFF0
FFFFF0
FFFFF0
FFFFF0
FFFFF0
FFFFF0
FFFFF0
FFFFF0
FFFFF0
FFFFF0
FFFFF0
FFFFF0
ENDCHAR
STARTCHAR uni2589
ENCODING 9609
SWIDTH 600 0
DWIDTH 20 0
BBX 18 30 0 -6
BITMAP
FFFFC0
FFFFC0
FFFFC0
FFFFC0
FFFFC0
FFFFC0
FFFFC0
FFFFC0
FFFFC0
FFFFC0
FFFFC0
FFFFC0
FFFFC0
FFFFC0
FFFFC0
FFFFC0
FFFFC0
FFFFC0
FFFFC0
FFFFC0
FFFFC0
FFFFC0
FFFFC0
FFFFC0
FFFFC0
FFFFC0
FFFFC0
FFFFC0
FFFFC0
FFFFC0
ENDCHAR
STARTCHAR uni258A
ENCODING 9610
SWIDTH 600 0
DWIDTH 20 0
BBX 15 30 0 -6
BITMAP
FFFE
FFFE
FFFE
FFFE
FFFE
FFFE
FFFE
FFFE
FFFE
FFFE
FFFE
FFFE
FFFE
FFFE
FFFE
FFFE
FFFE
FFFE
FFFE
FFFE
FFFE
FFFE
FFFE
FFFE
FFFE
FFFE
FFFE
FFFE
FFFE
FFFE
ENDCHAR
STARTCHAR uni258B
ENCODING 9611
SWIDTH 600 0
DWIDTH 20 0
BBX 13 30 0 -6
BITMAP
FFF8
FFF8
FFF8
FFF8
FFF8
FFF8
FFF8
FFF8
FFF8
FFF8
FFF8
FFF8
FFF8
FFF8
FFF8
FFF8
FFF8
FFF8
FFF8
FFF8
FFF8
FFF8
FFF8
FFF8
FFF8
FFF8
FFF8
FFF8
FFF8
FFF8
ENDCHAR
STARTCHAR lfblock
ENCODING 9612
SWIDTH 600 0
DWIDTH 20 0
BBX 10 30 0 -6
BITMAP
FFC0
FFC0
FFC0
FFC0
FFC0
FFC0
FFC0
FFC0
FFC0
FFC0
FFC0
FFC0
FFC0
FFC0
FFC0
FFC0
FFC0
FFC0
FFC0
FFC0
FFC0
FFC0
FFC0
FFC0
FFC0
FFC0
FFC0
FFC0
FFC0
FFC0
ENDCHAR
STARTCHAR uni258D
ENCODING 9613
SWIDTH 600 0
DWIDTH 20 0
BBX 8 30 0 -6
BITMAP
FF
FF
FF
FF
FF
FF
FF
FF
FF
FF
FF
FF
FF
FF
FF
FF
FF
FF
FF
FF
FF
FF
FF
FF
FF
FF
FF
FF
FF
FF
ENDCHAR
STARTCHAR uni258E
ENCODING 9614
SWIDTH 600 0
DWIDTH 20 0
BBX 5 30 0 -6
BITMAP
F8
F8
F8
F8
F8
F8
F8
F8
F8
F8
F8
F8
F8
F8
F8
F8
F8
F8
F8
F8
F8
F8
F8
F8
F8
F8
F8
F8
F8
F8
ENDCHAR
STARTCHAR uni258F
ENCODING 9615
SWIDTH 600 0
DWIDTH 20 0
BBX 3 30 0 -6
BITMAP
E0
E0
E0
E0
E0
E0
E0
E0
E0
E0
E0
E0
E0
E0
E0
E0
E0
E0
E0
E0
E0
E0
E0
E0
E0
E0
E0
E0
E0
E0
ENDCHAR
STARTCHAR rtblock
ENCODING 9616
SWIDTH 600 0
DWIDTH 20 0
BBX 20 30 0 -6
BITMAP
003FF0
003FF0
003FF0
003FF0
003FF0
003FF0
003FF0
003FF0
003FF0
003FF0
003FF0
003FF0
003FF0
003FF0
003FF0
003FF0
003FF0
003FF0
003FF0
003FF0
003FF0
003FF0
003FF0
003FF0
003FF0
003FF0
003FF0
003FF0
003FF0
003FF0
ENDCHAR
STARTCHAR ltshade
ENCODING 9617
SWIDTH 600 0
DWIDTH 20 0
BBX 20 30 0 -6
BITMAP
000000
555550
000000
AAAAA0
000000
555550
000000
AAAAA0
000000
555550
000000
AAAAA0
000000
555550
000000
AAAAA0
000000
555550
000000
AAAAA0
000000
555550
000000
AAAAA0
000000
555550
000000
AAAAA0
000000
555550
ENDCHAR
STARTCHAR shade
ENCODING 9618
SWIDTH 600 0
DWIDTH 20 0
BBX 20 30 0 -6
BITMAP
555550
AAAAA0
555550
AAAAA0
555550
AAAAA0
555550
AAAAA0
555550
AAAAA0
555550
AAAAA0
555550
AAAAA0
555550
AAAAA0
555550
AAAAA0
555550
AAAAA0
555550
AAAAA0
555550
AAAAA0
555550
AAAAA0
555550
AAAAA0
555550
AAAAA0
ENDCHAR
STARTCHAR dkshade
ENCODING 9619
SWIDTH 600 0
DWIDTH 20 0
BBX 20 30 0 -6
BITMAP
FFFFF0
AAAAA0
FFFFF0
555550
FFFFF0
AAAAA0
FFFFF0
555550
FFFFF0
AAAAA0
FFFFF0
555550
FFFFF0
AAAAA0
FFFFF0
555550
FFFFF0
AAAAA0
FFFFF0
555550
FFFFF0
AAAAA0
FFFFF0
555550
FFFFF0
AAAAA0
FFFFF0
555550
FFFFF0
AAAAA0
ENDCHAR
STARTCHAR uni2594
ENCODING 9620
SWIDTH 600 0
DWIDTH 20 0
BBX 20 30 0 -6
BITMAP
FFFFF0
FFFFF0
FFFFF0
FFFFF0
000000
000000
000000
000000
000000
000000
000000
000000
000000
000000
000000
000000
000000
000000
000000
000000
000000
000000
000000
000000
000000
000000
000000
000000
000000
000000
ENDCHAR
STARTCHAR uni2595
ENCODING 9621
SWIDTH 600 0
DWIDTH 20 0
BBX 20 30 0 -6
BITMAP
0001F0
0001F0
0001F0
0001F0
0001F0
0001F0
0001F0
0001F0
0001F0
0001F0
0001F0
0001F0
0001F0
0001F0
0001F0
0001F0
0001F0
0001F0
0001F0
0001F0
0001F0
0001F0
0001F0
0001F0
0001F0
0001F0
0001F0
0001F0
0001F0
0001F0
ENDCHAR
STARTCHAR fi
ENCODING -1
SWIDTH 600 0
DWIDTH 20 0
BBX 18 21 0 0
BITMAP
03C000
064600
0C0600
080600
080000
080000
080000
7F1E00
080200
080200
080200
080200
080200
080200
080200
080200
080200
080200
080200
080200
FF1FC0
ENDCHAR
STARTCHAR fl
ENCODING -1
SWIDTH 600 0
DWIDTH 20 0
BBX 18 21 0 0
BITMAP
03DE00
064200
0C0200
080200
080200
080200
080200
7F0200
080200
080200
080200
080200
080200
080200
080200
080200
080200
080200
080200
080200
FF1FC0
ENDCHAR
ENDFONT
